<svg width="68" height="69" viewBox="0 0 68 69" fill="none" xmlns="http://www.w3.org/2000/svg">
<g clip-path="url(#clip0_623_5825)">
<path d="M29.6426 35.1536L19.0253 36.1558C18.7173 34.61 18.9205 33.0059 19.6043 31.5858C20.2882 30.1657 21.4155 29.0066 22.8161 28.2836L29.6426 35.1536ZM31.3854 38.0294L24.588 46.2502C23.2762 45.3782 22.2835 44.1034 21.7595 42.6179C21.2355 41.1325 21.2087 39.5169 21.6832 38.0149L31.3854 38.0294ZM34.6389 38.8428L35.6266 49.4601C34.0846 49.7659 32.485 49.5631 31.068 48.8821C29.6511 48.2012 28.4934 47.0789 27.7689 45.6838L34.6389 38.8428ZM37.5147 37.0999L45.7209 43.9118C44.849 45.2236 43.5741 46.2163 42.0887 46.7403C40.6032 47.2643 38.9877 47.2911 37.4856 46.8166L37.5147 37.0999ZM38.3135 33.8464L48.9308 32.8587C49.2401 34.4029 49.0389 36.0058 48.3578 37.4257C47.6766 38.8457 46.5524 40.0057 45.1545 40.7309L38.3135 33.8464ZM36.5706 30.9706L43.3825 22.7644C44.6943 23.6363 45.6871 24.9111 46.2111 26.3966C46.735 27.8821 46.7618 29.4976 46.2874 30.9996L36.5706 30.9706ZM33.3317 30.1718L32.3295 19.5545C33.8737 19.2452 35.4766 19.4463 36.8965 20.1275C38.3164 20.8086 39.4764 21.9329 40.2017 23.3308L33.3317 30.1718ZM30.4559 31.9147L22.2496 25.0883C23.1297 23.7854 24.4052 22.7997 25.8879 22.2767C27.3706 21.7537 28.9822 21.721 30.4849 22.1834L30.4559 31.9147ZM53.3317 34.4855C53.3346 38.3096 52.2032 42.0486 50.0808 45.2296C47.9583 48.4107 44.94 50.8908 41.4079 52.3562C37.8757 53.8216 33.9883 54.2065 30.2373 53.4622C26.4863 52.7179 23.0403 50.8779 20.3353 48.1748C17.6302 45.4718 15.7876 42.0272 15.0405 38.2768C14.2934 34.5264 14.6754 30.6387 16.1382 27.1054C17.6009 23.5721 20.0787 20.552 23.2581 18.4271C26.4375 16.3023 30.1758 15.1681 33.9999 15.1681C36.5379 15.1681 39.051 15.6683 41.3956 16.64C43.7403 17.6117 45.8704 19.0359 47.6644 20.8312C49.4583 22.6265 50.881 24.7578 51.8509 27.1031C52.8209 29.4485 53.3191 31.962 53.3172 34.5L53.3317 34.4855ZM38.4007 34.4855C38.4007 35.3473 38.1451 36.1897 37.6663 36.9063C37.1875 37.6228 36.5071 38.1813 35.7109 38.5111C34.9147 38.8409 34.0386 38.9272 33.1933 38.7591C32.3481 38.5909 31.5717 38.1759 30.9623 37.5666C30.3529 36.9572 29.938 36.1808 29.7699 35.3356C29.6017 34.4903 29.688 33.6142 30.0178 32.818C30.3476 32.0218 30.9061 31.3413 31.6226 30.8625C32.3392 30.3837 33.1816 30.1282 34.0434 30.1282C34.6156 30.1301 35.1818 30.2447 35.7097 30.4654C36.2377 30.6862 36.717 31.0087 37.1202 31.4147C37.5235 31.8206 37.8429 32.3021 38.0601 32.8314C38.2773 33.3608 38.3881 33.9278 38.3861 34.5L38.4007 34.4855Z" stroke="white" stroke-width="0.93" stroke-linecap="round" stroke-linejoin="round"/>
</g>
<defs>
<clipPath id="clip0_623_5825">
<rect width="40" height="40" fill="white" transform="translate(14 14.5)"/>
</clipPath>
</defs>
</svg>
