<svg width="66" height="65" viewBox="0 0 66 65" fill="none" xmlns="http://www.w3.org/2000/svg">
<path d="M33 14.0864C36.6419 14.0864 40.2019 15.1664 43.23 17.1897C46.2581 19.213 48.6182 22.0888 50.0119 25.4534C51.4056 28.8181 51.7702 32.5204 51.0598 36.0923C50.3493 39.6642 48.5955 42.9452 46.0204 45.5204C43.4452 48.0955 40.1642 49.8493 36.5923 50.5598C33.0204 51.2703 29.3181 50.9056 25.9534 49.5119C22.5888 48.1182 19.713 45.7581 17.6897 42.73C15.6664 39.7019 14.5864 36.1419 14.5864 32.5C14.5939 29.9549 15.1343 27.4396 16.1729 25.1161C17.2114 22.7925 18.7251 20.7123 20.6164 19.0092" stroke="white" stroke-miterlimit="10"/>
<path d="M16.5962 18.1799L21.6471 18.1405L21.7063 23.2506" stroke="white" stroke-miterlimit="10"/>
<path d="M42.5053 33.3005H32.0806V19.5372" stroke="white" stroke-miterlimit="10"/>
</svg>
