<svg width="100" height="100" viewBox="0 0 100 100" fill="none" xmlns="http://www.w3.org/2000/svg">
<path d="M38.3688 61.1962H60.6141V42.021V35H26V61.1962H30.9816" stroke="#2D2D2D" stroke-miterlimit="10"/>
<path d="M70.8028 61.196H74.8982V52.1464L67.7108 42.2363H60.6143" stroke="#2D2D2D" stroke-miterlimit="10"/>
<path d="M26 53.834H60.6141" stroke="#2D2D2D" stroke-miterlimit="10"/>
<path d="M63.6184 48.3262H72.0315" stroke="#2D2D2D" stroke-miterlimit="10"/>
<path d="M60.6143 61.1963H63.4095" stroke="#2D2D2D" stroke-miterlimit="10"/>
<path d="M34.6753 64.8978C36.7152 64.8978 38.3689 63.2405 38.3689 61.1962C38.3689 59.1519 36.7152 57.4946 34.6753 57.4946C32.6354 57.4946 30.9817 59.1519 30.9817 61.1962C30.9817 63.2405 32.6354 64.8978 34.6753 64.8978Z" stroke="#2D2D2D" stroke-miterlimit="10"/>
<path d="M67.1028 64.8978C69.1427 64.8978 70.7964 63.2405 70.7964 61.1962C70.7964 59.1519 69.1427 57.4946 67.1028 57.4946C65.0629 57.4946 63.4092 59.1519 63.4092 61.1962C63.4092 63.2405 65.0629 64.8978 67.1028 64.8978Z" stroke="#2D2D2D" stroke-miterlimit="10"/>
</svg>
