<svg width="51" height="35" viewBox="0 0 51 35" fill="none" xmlns="http://www.w3.org/2000/svg">
<path d="M39.3022 27.009C41.2226 27.009 42.1264 26.2762 42.9159 24.0551L46.3747 14.3541H44.3721L42.0527 21.8594H42.0121L39.6927 14.3643H37.6334L40.9701 23.5977L40.7914 24.1593C40.6652 24.9632 39.9435 25.5367 39.1311 25.4774C38.9761 25.4774 38.6753 25.4613 38.5534 25.4452V26.97C38.8016 27.0039 39.0523 27.02 39.3022 27.0192V27.009ZM32.6287 22.1508C31.5783 22.1508 30.9116 21.6426 30.9116 20.8734C30.9116 20.0763 31.5546 19.6121 32.7837 19.5384L34.9726 19.4003V20.1169C34.9244 21.2978 33.9273 22.2169 32.7465 22.1686C32.7066 22.1669 32.6677 22.1635 32.6287 22.1602V22.1508ZM32.1001 23.6561C33.292 23.6883 34.4068 23.0674 35.0057 22.0365H35.0463V23.5613H36.8693V17.2461C36.8693 15.4147 35.4047 14.2346 33.1497 14.2346C31.0582 14.2346 29.5114 15.4308 29.4546 17.075H31.2293C31.4411 16.2389 32.2356 15.6874 33.0929 15.7806C34.2975 15.7806 34.9726 16.3422 34.9726 17.3757V18.0754L32.516 18.222C30.2289 18.36 28.9921 19.2961 28.9921 20.9242C28.9904 22.5752 30.2678 23.6655 32.0993 23.6655L32.1001 23.6561ZM21.5359 12.5311H23.8061C25.5156 12.5311 26.4923 13.4426 26.4923 15.0462C26.4923 16.6497 25.5156 17.5689 23.7985 17.5689H21.5359V12.5311ZM19.5663 10.8708V23.5587H21.5359V19.2334H24.2627C26.4838 19.3529 28.3805 17.6493 28.4999 15.4282C28.5067 15.302 28.5075 15.1766 28.5025 15.0504C28.6075 12.8539 26.9124 10.9885 24.7159 10.8827C24.5863 10.8767 24.4575 10.8776 24.3279 10.8835L19.5663 10.8708ZM13.0292 13.2385C11.8975 13.1732 10.9293 13.8814 10.3922 13.8814C9.85513 13.8814 9.02497 13.2715 8.12958 13.2884C6.94363 13.3189 5.86272 13.9754 5.28923 15.014C4.06856 17.114 4.97157 20.2228 6.15159 21.9314C6.72931 22.7785 7.42225 23.7061 8.33289 23.6731C9.19524 23.6409 9.53747 23.1115 10.5794 23.1115C11.6213 23.1115 11.9305 23.6731 12.842 23.6561C13.7857 23.6401 14.3804 22.809 14.9598 21.9619C15.3681 21.3622 15.6858 20.7057 15.9035 20.0136C14.7912 19.5274 14.0703 18.4321 14.0644 17.2182C14.0813 16.1474 14.6421 15.1597 15.5536 14.5981C14.9725 13.773 14.0398 13.2664 13.0309 13.2308L13.0292 13.2385ZM12.3227 12.1177C11.8272 12.742 11.069 13.1004 10.2719 13.086C10.2211 12.3083 10.4854 11.5434 11.0047 10.9623C11.5214 10.3625 12.2499 9.98642 13.0377 9.91272C13.0936 10.7124 12.8369 11.5019 12.3211 12.1152" fill="black"/>
</svg>
