<svg width="51" height="35" viewBox="0 0 51 35" fill="none" xmlns="http://www.w3.org/2000/svg">
<path d="M43.5725 10.9758H40.9531C40.1612 10.9758 39.552 11.2317 39.1865 12.0632L34.1914 24.0241H37.7245C37.7245 24.0241 38.3337 22.425 38.4555 22.0413C38.821 22.0413 42.2933 22.0413 42.7806 22.0413C42.9024 22.489 43.207 23.9601 43.207 23.9601H46.3746L43.5725 10.9758ZM39.4302 19.3549C39.7348 18.5873 40.7703 15.709 40.7703 15.709C40.7703 15.773 41.0749 14.9415 41.1968 14.4937L41.4404 15.6451C41.4404 15.6451 42.1105 18.7792 42.2323 19.4188H39.4302V19.3549Z" fill="#3362AB"/>
<path d="M34.4352 19.7386C34.4352 22.425 32.1204 24.216 28.5263 24.216C27.0034 24.216 25.5414 23.8961 24.7495 23.5124L25.2368 20.5701L25.6633 20.762C26.7597 21.2737 27.4907 21.4656 28.8309 21.4656C29.8056 21.4656 30.8411 21.0818 30.8411 20.1863C30.8411 19.6107 30.4147 19.2269 29.0746 18.5873C27.7953 17.9477 26.0897 16.9243 26.0897 15.0694C26.0897 12.5109 28.4654 10.7839 31.8158 10.7839C33.095 10.7839 34.1915 11.0398 34.8616 11.3596L34.3743 14.1739L34.1306 13.9181C33.5214 13.6622 32.7295 13.4064 31.5721 13.4064C30.2929 13.4703 29.6837 14.046 29.6837 14.5577C29.6837 15.1334 30.4147 15.5811 31.5721 16.1567C33.5214 17.1162 34.4352 18.2035 34.4352 19.7386Z" fill="#3362AB"/>
<path d="M4.70801 11.1037L4.76892 10.8479H10.0077C10.7387 10.8479 11.287 11.1037 11.4697 11.9353L12.6271 17.6918C11.4697 14.6217 8.78939 12.1271 4.70801 11.1037Z" fill="#F9B50B"/>
<path d="M19.9982 10.9758L14.6985 23.9601H11.1044L8.05859 13.0866C10.2516 14.5577 12.0791 16.8603 12.7491 18.4594L13.1146 19.8026L16.4041 10.9119H19.9982V10.9758Z" fill="#3362AB"/>
<path d="M21.3992 10.9119H24.7495L22.6175 23.9601H19.2671L21.3992 10.9119Z" fill="#3362AB"/>
</svg>
