<svg width="24" height="25" viewBox="0 0 24 25" fill="none" xmlns="http://www.w3.org/2000/svg">
<path d="M1 4.5H23" stroke="#BABEC1" stroke-linecap="round"/>
<path d="M21.4973 4.55234C21.5262 4.27772 21.327 4.03166 21.0523 4.00275C20.7777 3.97384 20.5317 4.17303 20.5027 4.44766L21.4973 4.55234ZM2.50275 4.55234L4.4085 22.657L5.40301 22.5523L3.49725 4.44766L2.50275 4.55234ZM5.90026 24H18.0997V23H5.90026V24ZM19.5915 22.657L21.4973 4.55234L20.5027 4.44766L18.597 22.5523L19.5915 22.657ZM18.0997 24C18.8674 24 19.5111 23.4204 19.5915 22.657L18.597 22.5523C18.5702 22.8068 18.3556 23 18.0997 23V24ZM4.4085 22.657C4.48886 23.4205 5.13262 24 5.90026 24V23C5.64438 23 5.4298 22.8068 5.40301 22.5523L4.4085 22.657Z" fill="#BABEC1"/>
<path d="M10 1.5L12 3.5L14 1.5" stroke="#BABEC1" stroke-linecap="round"/>
</svg>
