<svg width="75" height="75" viewBox="0 0 75 75" fill="none" xmlns="http://www.w3.org/2000/svg">
<path d="M47.4703 27.9315C47.9074 27.9315 48.3402 28.0178 48.7439 28.1853C49.1476 28.3529 49.5143 28.5984 49.823 28.9079C50.1317 29.2174 50.3762 29.5848 50.5427 29.9889C50.7092 30.3931 50.7942 30.8262 50.7931 31.2633V56.2514C50.795 57.0772 50.6338 57.8953 50.3187 58.6587C50.0036 59.422 49.5408 60.1156 48.9568 60.6995C48.3729 61.2835 47.6793 61.7463 46.9159 62.0614C46.1526 62.3765 45.3345 62.5377 44.5087 62.5358H30.2681C28.6518 62.5358 27.1017 61.8939 25.9585 60.7513C24.8153 59.6086 24.1727 58.0588 24.1719 56.4425V31.2633C24.1719 30.8267 24.2579 30.3943 24.4251 29.991C24.5923 29.5877 24.8373 29.2212 25.1462 28.9126C25.455 28.6041 25.8217 28.3594 26.2252 28.1925C26.6286 28.0257 27.0611 27.9401 27.4977 27.9405C27.4977 27.9405 27.5723 24.5401 29.5158 24.5401H44.443C47.0015 24.5311 47.4703 27.9315 47.4703 27.9315Z" stroke="#2D2D2D" stroke-miterlimit="10"/>
<path d="M25.0312 18.1604C25.0312 18.1604 36.5461 21.3996 49.2312 18.1604C49.2312 18.1604 45.9174 12.7627 37.1372 12.7627C28.357 12.7627 25.0312 18.1604 25.0312 18.1604Z" stroke="#2D2D2D" stroke-miterlimit="10"/>
<path d="M25.0315 18.1603C25.0315 18.1603 23.7985 17.8199 23.3835 18.6529C22.9685 19.4858 24.1567 19.9635 24.5777 20.0829C24.9986 20.2023 29.6917 21.4741 37.1374 21.5099C44.7384 21.5457 49.4046 20.5337 50.4376 20.0829C51.4705 19.6321 51.8079 19.238 51.6825 18.6439C51.5571 18.0498 50.8764 17.6109 49.2374 18.1603" stroke="#2D2D2D" stroke-miterlimit="10"/>
<path d="M26.4688 16.5273C26.4688 16.5273 36.4968 18.9157 47.7997 16.5273" stroke="#2D2D2D" stroke-miterlimit="10"/>
<path d="M35.8672 12.7536C35.8672 12.7536 35.8672 11.425 37.13 11.425C38.3929 11.425 38.3869 12.7924 38.3869 12.7924" stroke="#2D2D2D" stroke-miterlimit="10"/>
<path d="M24.5781 20.0828C24.9835 22.8023 25.6177 25.4828 26.4739 28.0957" stroke="#2D2D2D" stroke-miterlimit="10"/>
<path d="M50.1412 20.1934C49.7546 22.877 49.1322 25.5214 48.2812 28.0958" stroke="#2D2D2D" stroke-miterlimit="10"/>
<path d="M47.4726 27.9316C37.2743 23.546 27.5 27.9316 27.5 27.9316C27.5 27.9316 30.7422 32.8934 30.7213 37.485" stroke="#2D2D2D" stroke-miterlimit="10"/>
<path d="M24.1719 37.0851C24.1719 37.0851 28.8262 40.2198 32.4415 40.2198H44.8192C47.4852 40.2198 50.7901 37.0791 50.7901 37.0791" stroke="#2D2D2D" stroke-miterlimit="10"/>
<path d="M24.1719 34.5713C24.1719 34.5713 28.8262 37.715 32.4415 37.715H44.8192C47.4852 37.715 50.7901 34.5713 50.7901 34.5713" stroke="#2D2D2D" stroke-miterlimit="10"/>
<path d="M50.8087 54.6963C50.8087 54.6963 47.5008 57.84 44.8378 57.84H32.4572C28.8418 57.84 24.1875 54.6963 24.1875 54.6963" stroke="#2D2D2D" stroke-miterlimit="10"/>
<path d="M47.4744 27.9316C47.4744 27.9316 44.2322 33.192 44.2501 37.7836" stroke="#2D2D2D" stroke-miterlimit="10"/>
<path d="M28.1719 62.1655V63.5747H31.0767V62.5357" stroke="#2D2D2D" stroke-miterlimit="10"/>
<path d="M46.7125 62.1655V63.5747H43.8047V62.5357" stroke="#2D2D2D" stroke-miterlimit="10"/>
<path d="M27.6797 47.7668L34.2268 42.6438" stroke="#2D2D2D" stroke-miterlimit="10"/>
<path d="M27.3906 52.2779L38.9204 43.2559" stroke="#2D2D2D" stroke-miterlimit="10"/>
</svg>
