<svg width="51" height="35" viewBox="0 0 51 35" fill="none" xmlns="http://www.w3.org/2000/svg">
<path d="M11.7194 12.6935C11.1972 12.3239 10.5157 12.1387 9.67495 12.1387H6.42004C6.1623 12.1387 6.01991 12.2714 5.99286 12.5365L4.67065 21.0804C4.65691 21.1644 4.67731 21.2411 4.73165 21.3109C4.78569 21.3808 4.85365 21.4155 4.93505 21.4155H6.4811C6.75227 21.4155 6.90132 21.2832 6.92868 21.0177L7.2948 18.7143C7.30817 18.6026 7.35586 18.5119 7.43725 18.442C7.51859 18.3722 7.62031 18.3266 7.74237 18.3057C7.86443 18.285 7.97953 18.2745 8.08822 18.2745C8.1966 18.2745 8.32538 18.2816 8.4748 18.2955C8.62385 18.3094 8.71886 18.3162 8.75959 18.3162C9.92584 18.3162 10.8413 17.9779 11.5059 17.3006C12.1703 16.6236 12.5028 15.6848 12.5028 14.4839C12.5028 13.6602 12.2414 13.0635 11.7194 12.6933V12.6935ZM10.0413 15.259C9.97323 15.7477 9.79713 16.0686 9.51234 16.2223C9.22749 16.3761 8.82065 16.4526 8.2918 16.4526L7.62044 16.4735L7.96635 14.2327C7.99333 14.0793 8.08144 14.0025 8.23074 14.0025H8.61738C9.15959 14.0025 9.55313 14.083 9.79725 14.2432C10.0413 14.4039 10.1226 14.7426 10.0413 15.259Z" fill="#003087"/>
<path d="M46.0685 12.1387H44.5633C44.4137 12.1387 44.3256 12.2155 44.2988 12.3692L42.9765 21.0808L42.9561 21.1227C42.9561 21.1928 42.9832 21.2588 43.0376 21.3217C43.0915 21.3844 43.1596 21.4158 43.2409 21.4158H44.5838C44.841 21.4158 44.9835 21.2835 45.011 21.018L46.3332 12.453V12.4322C46.3331 12.2366 46.2447 12.1389 46.0685 12.1389V12.1387Z" fill="#009CDE"/>
<path d="M27.8821 15.5104C27.8821 15.4408 27.8549 15.3744 27.801 15.3117C27.7466 15.2489 27.6855 15.2173 27.6179 15.2173H26.0515C25.902 15.2173 25.7799 15.2874 25.6852 15.4267L23.5289 18.6936L22.6338 15.5524C22.5656 15.3292 22.4166 15.2173 22.1862 15.2173H20.6603C20.5923 15.2173 20.5313 15.2488 20.4774 15.3117C20.423 15.3744 20.396 15.4409 20.396 15.5104C20.396 15.5385 20.5283 15.9503 20.7926 16.746C21.057 17.542 21.3418 18.4007 21.647 19.3221C21.9522 20.2434 22.1114 20.7323 22.1251 20.7877C21.0129 22.3516 20.4571 23.1892 20.4571 23.3007C20.4571 23.4823 20.545 23.573 20.7215 23.573H22.2879C22.437 23.573 22.559 23.5033 22.6542 23.3637L27.8417 15.657C27.8686 15.6293 27.8821 15.5807 27.8821 15.5104V15.5104Z" fill="#003087"/>
<path d="M42.4683 15.2174H40.9222C40.7321 15.2174 40.6172 15.4478 40.5765 15.9086C40.2234 15.3503 39.5797 15.0708 38.6437 15.0708C37.6673 15.0708 36.8365 15.4478 36.1518 16.2017C35.4668 16.9556 35.1245 17.8424 35.1245 18.8614C35.1245 19.6853 35.3584 20.3414 35.8262 20.8299C36.2941 21.3188 36.9213 21.5628 37.7081 21.5628C38.1014 21.5628 38.5014 21.4789 38.9083 21.3115C39.3151 21.144 39.6335 20.9208 39.8645 20.6414C39.8645 20.6554 39.8507 20.718 39.8239 20.8297C39.7965 20.9416 39.7831 21.0256 39.7831 21.081C39.7831 21.3046 39.871 21.416 40.0476 21.416H41.4514C41.7087 21.416 41.8581 21.2836 41.8986 21.0182L42.7328 15.5524C42.7462 15.4686 42.7259 15.3919 42.6718 15.322C42.6172 15.2524 42.5496 15.2174 42.4683 15.2174ZM39.8136 19.3431C39.4677 19.6921 39.0506 19.8665 38.5624 19.8665C38.169 19.8665 37.8505 19.755 37.6063 19.5315C37.3621 19.3086 37.24 19.0014 37.24 18.6101C37.24 18.0939 37.4096 17.6572 37.7488 17.3013C38.0873 16.9453 38.5081 16.7673 39.0099 16.7673C39.3894 16.7673 39.7047 16.8825 39.9559 17.1127C40.2065 17.3431 40.3324 17.6608 40.3324 18.0657C40.3323 18.5683 40.1593 18.9942 39.8136 19.3431Z" fill="#009CDE"/>
<path d="M19.3581 15.2174H17.812C17.6219 15.2174 17.5068 15.4478 17.4661 15.9086C17.0999 15.3503 16.4557 15.0708 15.5335 15.0708C14.557 15.0708 13.7262 15.4478 13.0414 16.2017C12.3565 16.9556 12.0142 17.8424 12.0142 18.8614C12.0142 19.6853 12.2481 20.3414 12.7161 20.8299C13.184 21.3188 13.811 21.5628 14.5977 21.5628C14.9773 21.5628 15.3708 21.4789 15.7776 21.3115C16.1845 21.144 16.51 20.9208 16.7541 20.6414C16.6997 20.8088 16.6727 20.9555 16.6727 21.081C16.6727 21.3046 16.7608 21.416 16.9372 21.416H18.3408C18.5983 21.416 18.7476 21.2836 18.7884 21.0182L19.6224 15.5524C19.6358 15.4686 19.6155 15.3919 19.5614 15.322C19.5071 15.2524 19.4394 15.2174 19.3581 15.2174ZM16.7034 19.3534C16.3574 19.6959 15.9334 19.8665 15.432 19.8665C15.0384 19.8665 14.7231 19.755 14.4859 19.5315C14.2485 19.3086 14.1299 19.0014 14.1299 18.6101C14.1299 18.0939 14.2993 17.6572 14.6385 17.3013C14.9774 16.9453 15.3978 16.7672 15.8998 16.7672C16.2793 16.7672 16.5947 16.8825 16.8458 17.1127C17.0965 17.3431 17.2221 17.6608 17.2221 18.0657C17.2221 18.5823 17.0492 19.0117 16.7034 19.3534Z" fill="#003087"/>
<path d="M34.8294 12.6935C34.3072 12.3239 33.6259 12.1387 32.785 12.1387H29.5504C29.2791 12.1387 29.1298 12.2714 29.1028 12.5365L27.7805 21.0804C27.7668 21.1644 27.7872 21.2411 27.8416 21.3109C27.8954 21.3808 27.9635 21.4155 28.0449 21.4155H29.713C29.8757 21.4155 29.9841 21.3249 30.0385 21.1434L30.4047 18.7143C30.4182 18.6026 30.4656 18.5119 30.5472 18.442C30.6286 18.3722 30.7302 18.3266 30.8523 18.3057C30.9743 18.285 31.0894 18.2745 31.1981 18.2745C31.3066 18.2745 31.4353 18.2816 31.5846 18.2955C31.7337 18.3094 31.829 18.3162 31.8694 18.3162C33.0359 18.3162 33.9511 17.9779 34.6158 17.3006C35.2803 16.6236 35.6126 15.6848 35.6126 14.4839C35.6126 13.6602 35.3514 13.0634 34.8294 12.6933V12.6935ZM32.7443 16.1384C32.4459 16.3478 31.9983 16.4524 31.4017 16.4524L30.7506 16.4734L31.0965 14.2326C31.1233 14.0792 31.2115 14.0023 31.3609 14.0023H31.7269C32.0253 14.0023 32.2626 14.0163 32.4392 14.0442C32.6152 14.0722 32.785 14.1593 32.9477 14.3058C33.1106 14.4525 33.1918 14.6655 33.1918 14.9446C33.1918 15.5312 33.0425 15.9289 32.7443 16.1384Z" fill="#009CDE"/>
</svg>
