<?xml version="1.0" encoding="utf-8"?><svg viewBox="0 0 27 25" xmlns="http://www.w3.org/2000/svg" xmlns:xlink="http://www.w3.org/1999/xlink"><style>:root>svg{display:none}:root>svg:target{display:block}</style><svg viewBox="0 0 27 24" id="account-nav-item-icon" xmlns="http://www.w3.org/2000/svg"><path d="M3.5 11.5v12h2m-2-12L1 10V7.5l2.5-7h4m-4 11l3-1.5M24 11.5v12H11m13-12l2.5-1.5V7.5l-3-7H20m4 11L21.5 10M20 .5l1.5 7V10M20 .5h-4m5.5 9.5L19 11.5 16.5 10m0 0V7.5l-.5-7m.5 9.5L14 11.5 11.5 10M16 .5h-4m0 0l-.5 7V10M12 .5H7.5m4 9.5L9 11.5 6.5 10m1-9.5l-1 7V10m-1 13.5V14H11v9.5m-5.5 0H11m3-4h8.5V14H14v5.5z"/></svg><svg viewBox="0 0 26 22" id="account-nav-item-icon2" xmlns="http://www.w3.org/2000/svg"><path d="M4 6.75l-3-3.5 9-2.5 3.5 3.5M4 6.75l9.5-2.5M4 6.75l-3 4 3 1m0-5l9 2.5m.5-5l3-3.5 9 2.5-3 3.5m-9-2.5l9 2.5m-9-2.5v5m-.5 0l-3 4.5-6-2m9-2.5v12m.5-12l3 4.5 6-2m-9-2.5l9-2.5m0 0l3 4-3 1m-18.5 0v6.5l9 3m0 0l9.5-3v-6.5"/></svg><svg viewBox="0 0 17 25" id="account-nav-item-icon3" xmlns="http://www.w3.org/2000/svg"><circle cx="8.5" cy="9" r="3.5"/><path d="M16.5 9c0 1.147-.41 2.697-1.083 4.414-.668 1.705-1.578 3.527-2.538 5.201-.96 1.675-1.963 3.188-2.812 4.277-.426.545-.804.972-1.111 1.258-.155.143-.28.24-.375.299a.659.659 0 01-.081.043.66.66 0 01-.081-.043 2.533 2.533 0 01-.375-.299c-.307-.286-.685-.713-1.11-1.258-.85-1.09-1.853-2.602-2.813-4.277-.96-1.674-1.87-3.496-2.538-5.2C.909 11.696.5 10.146.5 9 .5 4.267 3.842.5 8.5.5c4.658 0 8 3.767 8 8.5z"/></svg><svg viewBox="0 0 23 24" id="account-nav-item-icon4" xmlns="http://www.w3.org/2000/svg"><path d="M3.5 6h15M3.5 11h15M3.5 15h6M3.5 19h6"/><rect x=".5" y="1" width="22" height="22" rx="3.5"/></svg><svg viewBox="0 0 25 20" id="account-nav-item-icon5" xmlns="http://www.w3.org/2000/svg"><rect x=".5" y="8.084" width="19" height="11" rx="1.5"/><path d="M4.468 7.66L5.97 1.403A1 1 0 017.15.66l15.79 3.356a1 1 0 01.77 1.186l-1.995 9.367a1 1 0 01-1.224.76l-1.004-.254M2.5 15.084h2M5.593 3.199l17.022 3.624M6.5 15.084h2M10.5 15.084h2M14.5 15.084h2"/></svg><svg viewBox="0 0 23 24" id="account-nav-item-icon6" xmlns="http://www.w3.org/2000/svg"><path d="M.5 2.954a1.5 1.5 0 012.057-1.393l6 2.4c.57.228.943.78.943 1.393v15.692a1.5 1.5 0 01-2.057 1.393l-6-2.4A1.5 1.5 0 01.5 18.646V2.954z"/><path fill-rule="evenodd" clip-rule="evenodd" d="M13 1H2a1 1 0 00-1 1v17.732A2 2 0 010 18V2a2 2 0 012-2h11a2 2 0 012 2v5h-1V2a1 1 0 00-1-1zm1 12v5a1 1 0 01-1 1H9v1h4a2 2 0 002-2v-5h-1z"/><path d="M13 9.5a.5.5 0 000 1v-1zm9.354.854a.5.5 0 000-.708l-3.182-3.182a.5.5 0 10-.707.708L21.293 10l-2.828 2.828a.5.5 0 10.707.708l3.182-3.182zM13 10.5h9v-1h-9v1z"/></svg><svg fill="none" viewBox="0 0 11 21" id="arrow-left" xmlns="http://www.w3.org/2000/svg"><path d="M10.5 1L1 10.5l9.5 9.5" stroke="#000" stroke-linecap="round"/></svg><svg fill="none" viewBox="0 0 11 21" id="arrow-right" xmlns="http://www.w3.org/2000/svg"><path d="M.5 20l9.5-9.5L.5 1" stroke="#000" stroke-linecap="round"/></svg><svg viewBox="0 0 14 14" id="star" xmlns="http://www.w3.org/2000/svg"><path d="M6.049.927c.3-.921 1.603-.921 1.902 0l.957 2.946a1 1 0 00.951.691h3.098c.97 0 1.372 1.24.588 1.81l-2.506 1.82a1 1 0 00-.363 1.118l.957 2.947c.3.92-.755 1.687-1.539 1.118l-2.506-1.821a1 1 0 00-1.176 0l-2.506 1.82c-.784.57-1.838-.196-1.539-1.117l.957-2.947a1 1 0 00-.363-1.118L.455 6.374c-.784-.57-.381-1.81.588-1.81H4.14a1 1 0 00.95-.69L6.05.926z"/></svg></svg>