<svg width="34" height="35" viewBox="0 0 34 35" fill="none" xmlns="http://www.w3.org/2000/svg">
<g clip-path="url(#clip0_17040_14977)">
<path d="M18.3246 0.512207C19.2636 0.683074 20.2168 0.796985 21.1415 1.03335C24.9959 1.99319 28.3914 4.27968 30.7351 7.49353C33.0788 10.7074 34.2218 14.6444 33.9645 18.6169C33.4318 26.884 26.9386 33.5948 18.6883 34.4036C9.50466 35.3035 1.27846 28.7664 0.127845 19.6592C0.0937531 19.383 0.0426154 19.1082 0 18.832V16.0625C0.0410998 15.9495 0.0729321 15.8333 0.0951763 15.7151C0.470815 12.169 1.95051 8.83144 4.32449 6.17555C6.69846 3.51967 9.84625 1.68022 13.3216 0.918015C14.0602 0.755692 14.8103 0.646053 15.5546 0.512207H18.3246ZM16.8501 6.74457C15.447 6.74194 14.0571 7.01666 12.76 7.55298C11.4629 8.08931 10.284 8.87673 9.29081 9.8702C8.29759 10.8637 7.50953 12.0437 6.97171 13.3427C6.4339 14.6418 6.15688 16.0343 6.15651 17.4408C6.1552 18.8472 6.4305 20.2401 6.96666 21.5398C7.50282 22.8394 8.28932 24.0204 9.28118 25.0152C10.273 26.0099 11.4508 26.7989 12.7471 27.337C14.0434 27.8752 15.4329 28.1519 16.8359 28.1513C22.7552 28.1499 27.558 23.3813 27.5722 17.4821C27.5731 16.0709 27.2963 14.6734 26.7577 13.3696C26.2191 12.0658 25.4292 10.8813 24.4332 9.8839C23.4373 8.88651 22.2549 8.09583 20.9536 7.55714C19.6524 7.01845 18.258 6.74232 16.8501 6.74457Z" fill="black"/>
<path d="M16.8501 6.74465C18.258 6.7424 19.6524 7.01853 20.9536 7.55722C22.2549 8.09591 23.4373 8.88659 24.4332 9.88398C25.4292 10.8814 26.2191 12.0659 26.7577 13.3697C27.2963 14.6735 27.5731 16.071 27.5722 17.4822C27.558 23.3814 22.7552 28.15 16.8359 28.1514C15.4328 28.1519 14.0434 27.8752 12.7471 27.3371C11.4508 26.799 10.273 26.01 9.28117 25.0153C8.28931 24.0205 7.50281 22.8395 6.96665 21.5399C6.43049 20.2402 6.15519 18.8473 6.1565 17.4409C6.15687 16.0344 6.43389 14.6418 6.9717 13.3428C7.50952 12.0437 8.29758 10.8637 9.2908 9.87028C10.284 8.87682 11.4629 8.0894 12.76 7.55307C14.0571 7.01674 15.447 6.74203 16.8501 6.74465ZM20.7026 20.1961C20.1003 20.8283 19.5832 21.4976 18.9397 22.0102C18.2962 22.5228 17.6044 22.977 16.8544 23.2233C15.4339 23.6875 14.2719 22.9385 14.0489 21.4591C13.9423 20.7557 14.0702 20.0167 14.0958 19.2934C14.1057 18.9887 14.2591 18.8491 14.5688 18.7708C15.6683 18.486 16.7834 18.2411 17.836 17.8439C18.9415 17.4143 20.0165 16.9096 21.0534 16.3331C21.5253 16.0502 21.9401 15.6812 22.2765 15.2453C23.8646 13.3088 23.1544 11.0747 20.7395 10.424C18.971 9.9484 17.2521 10.162 15.6029 10.9195C12.1255 12.5171 9.81858 16.4926 10.0146 20.5763C10.1908 24.2328 12.8798 25.4987 15.5731 25.1584C18.3246 24.8052 19.9895 22.9542 21.5108 20.8184L20.7026 20.1961Z" fill="white"/>
<path d="M20.7025 20.196L21.5107 20.8225C19.9894 22.9541 18.3245 24.8052 15.573 25.1583C12.874 25.4986 10.1907 24.2328 10.0145 20.5762C9.81849 16.4925 12.1254 12.517 15.6042 10.9208C17.2535 10.1633 18.9723 9.94973 20.7408 10.4253C23.1557 11.0746 23.866 13.3087 22.2764 15.2452C21.94 15.6811 21.5252 16.0501 21.0533 16.333C20.0178 16.9093 18.9442 17.4141 17.8401 17.8438C16.7833 18.241 15.6682 18.4888 14.573 18.7707C14.2633 18.849 14.1099 18.9886 14.0999 19.2933C14.0744 20.0166 13.9465 20.7556 14.053 21.459C14.2761 22.9342 15.4451 23.6874 16.8586 23.2232C17.6086 22.9769 18.3188 22.5113 18.9439 22.0101C19.5689 21.5089 20.1002 20.8282 20.7025 20.196ZM14.4678 17.8039C16.2776 17.1902 17.8373 16.3886 18.9893 14.9561C19.6058 14.1872 19.9837 13.3172 19.8502 12.3048C19.7394 11.4861 19.1399 11.0817 18.3274 11.2298C17.4751 11.3864 16.931 11.966 16.4807 12.6395C15.448 14.1773 14.9608 15.9286 14.4678 17.8039Z" fill="black"/>
<path d="M14.468 17.8041C14.9609 15.9289 15.4482 14.1775 16.4795 12.6397C16.9312 11.9662 17.4738 11.3867 18.3261 11.23C19.1387 11.0877 19.7381 11.4863 19.8489 12.3051C19.991 13.3175 19.6046 14.1875 18.9881 14.9564C17.8375 16.3888 16.2778 17.1904 14.468 17.8041Z" fill="white"/>
</g>
<defs>
<clipPath id="clip0_17040_14977">
<rect width="34" height="34" fill="white" transform="translate(0 0.5)"/>
</clipPath>
</defs>
</svg>
