<svg width="76" height="75" viewBox="0 0 76 75" fill="none" xmlns="http://www.w3.org/2000/svg">
<path d="M41.5938 59.5959H52.0992C55.6049 59.5959 57.2409 57.8432 57.2409 56.032V50.5325" stroke="#2D2D2D" stroke-miterlimit="10"/>
<path d="M24.6349 29.3423H22.9837C21.6336 29.3423 20.5391 30.4621 20.5391 31.8434V49.5433C20.5391 50.9246 21.6336 52.0444 22.9837 52.0444H24.6349C25.985 52.0444 27.0795 50.9246 27.0795 49.5433V31.8434C27.0795 30.4621 25.985 29.3423 24.6349 29.3423Z" stroke="#2D2D2D" stroke-miterlimit="10"/>
<path d="M41.5938 61.4929V57.6947C41.5938 56.8957 40.9607 56.248 40.1798 56.248H33.9899C33.209 56.248 32.5759 56.8957 32.5759 57.6947V61.4929C32.5759 62.2918 33.209 62.9395 33.9899 62.9395H40.1798C40.9607 62.9395 41.5938 62.2918 41.5938 61.4929Z" stroke="#2D2D2D" stroke-miterlimit="10"/>
<path d="M52.924 29.3423H51.2728C49.9226 29.3423 48.8281 30.4621 48.8281 31.8434V49.5433C48.8281 50.9246 49.9226 52.0444 51.2728 52.0444H52.924C54.2741 52.0444 55.3686 50.9246 55.3686 49.5433V31.8434C55.3686 30.4621 54.2741 29.3423 52.924 29.3423Z" stroke="#2D2D2D" stroke-miterlimit="10"/>
<path d="M15.5 39.8078V34.9838C15.5 22.3242 25.531 12.0605 37.905 12.0605C50.2789 12.0605 60.3111 22.3242 60.3111 34.9838L60.4957 40.084" stroke="#2D2D2D" stroke-miterlimit="10"/>
<path d="M20.6511 31.1013C20.6511 31.1013 15.5 29.9895 15.5 41.1319C15.5 52.2744 20.5926 50.6723 20.5926 50.6723L20.7679 50.5982" stroke="#2D2D2D" stroke-miterlimit="10"/>
<path d="M55.3393 31.1013C55.3393 31.1013 60.4904 29.9895 60.4904 41.1319C60.4904 52.2744 55.3978 50.6723 55.3978 50.6723L55.1641 50.5277" stroke="#2D2D2D" stroke-miterlimit="10"/>
</svg>
