<svg width="76" height="75" viewBox="0 0 76 75" fill="none" xmlns="http://www.w3.org/2000/svg">
<path d="M25.5067 48.75H47C47.5523 48.75 48 48.3023 48 47.75V28.6204V22.25C48 21.6977 47.5523 21.25 47 21.25H14C13.4477 21.25 13 21.6977 13 22.25V47.75C13 48.3023 13.4477 48.75 14 48.75H18.0371" stroke="#2D2D2D" stroke-miterlimit="10"/>
<path d="M58.6993 48.75H62C62.5523 48.75 63 48.3023 63 47.75V39.5271C63 39.317 62.9338 39.1122 62.8108 38.9418L55.7517 29.1646C55.5637 28.9042 55.2621 28.75 54.9409 28.75H48" stroke="#2D2D2D" stroke-miterlimit="10"/>
<path d="M13 41.25H48" stroke="#2D2D2D" stroke-miterlimit="10"/>
<path d="M53 36.25L60.5 36.25" stroke="#2D2D2D" stroke-miterlimit="10" stroke-linecap="round"/>
<path d="M43 48.75L50.5 48.75" stroke="#2D2D2D" stroke-miterlimit="10"/>
<path d="M21.75 53.75C23.8211 53.75 25.5 52.0711 25.5 50C25.5 47.9289 23.8211 46.25 21.75 46.25C19.6789 46.25 18 47.9289 18 50C18 52.0711 19.6789 53.75 21.75 53.75Z" stroke="#2D2D2D" stroke-miterlimit="10"/>
<path d="M54.25 53.75C56.3211 53.75 58 52.0711 58 50C58 47.9289 56.3211 46.25 54.25 46.25C52.1789 46.25 50.5 47.9289 50.5 50C50.5 52.0711 52.1789 53.75 54.25 53.75Z" stroke="#2D2D2D" stroke-miterlimit="10"/>
</svg>
