<svg width="76" height="75" viewBox="0 0 76 75" fill="none" xmlns="http://www.w3.org/2000/svg">
<path d="M22.6732 13.0513L20.4531 58.5046L22.1067 61.0854C22.1067 61.0854 34.7231 65.301 47.2527 61.0854L48.9063 58.6761L47.0792 13.0513C47.0792 13.0513 33.8529 10.7782 22.6732 13.0513Z" stroke="#2D2D2D" stroke-miterlimit="10"/>
<path d="M21.7969 30.8848C21.7969 30.8848 33.566 32.6961 47.8028 31.2354" stroke="#2D2D2D" stroke-miterlimit="10"/>
<path d="M22.2545 21.5957L18.6641 13.0509H22.6705M47.0739 13.0459L57.34 13.2528V33.2107H53.599V17.4684C53.599 16.8654 53.599 16.0909 52.7288 16.0909H50.1182C48.9878 16.0909 48.901 16.6081 48.901 17.5541V21.7773H47.4235" stroke="#2D2D2D" stroke-miterlimit="10"/>
<path d="M22.0469 25.8799C22.0469 25.8799 31.7439 27.3784 47.5654 25.8799" stroke="#2D2D2D" stroke-miterlimit="10"/>
<path d="M34.8938 54.8943C37.8252 54.8943 40.2017 52.5449 40.2017 49.6468C40.2017 46.7488 37.8252 44.3994 34.8938 44.3994C31.9623 44.3994 29.5859 46.7488 29.5859 49.6468C29.5859 52.5449 31.9623 54.8943 34.8938 54.8943Z" stroke="#2D2D2D" stroke-miterlimit="10"/>
<path d="M34.8406 53.6055C37.0307 53.6055 38.8062 51.8503 38.8062 49.6851C38.8062 47.5199 37.0307 45.7646 34.8406 45.7646C32.6505 45.7646 30.875 47.5199 30.875 49.6851C30.875 51.8503 32.6505 53.6055 34.8406 53.6055Z" stroke="#2D2D2D" stroke-miterlimit="10"/>
<path d="M38.2855 38.8799H31.3062C30.7142 38.8799 30.2344 39.3537 30.2344 39.9382C30.2344 40.5227 30.7142 40.9965 31.3062 40.9965H38.2855C38.8774 40.9965 39.3573 40.5227 39.3573 39.9382C39.3573 39.3537 38.8774 38.8799 38.2855 38.8799Z" stroke="#2D2D2D" stroke-miterlimit="10"/>
</svg>
