<svg width="76" height="75" viewBox="0 0 76 75" fill="none" xmlns="http://www.w3.org/2000/svg">
<g clip-path="url(#clip0_1013_25046)">
<path d="M35.8125 64.2002V58.0111" stroke="#2D2D2D" stroke-miterlimit="10"/>
<path d="M40.6172 64.2002V58.0111" stroke="#2D2D2D" stroke-miterlimit="10"/>
<path d="M38.2186 38.827H38.2159C35.6804 38.827 33.625 40.9052 33.625 43.4689V54.0162C33.625 56.5798 35.6804 58.6581 38.2159 58.6581H38.2186C40.7541 58.6581 42.8095 56.5798 42.8095 54.0162V43.4689C42.8095 40.9052 40.7541 38.827 38.2186 38.827Z" stroke="#2D2D2D" stroke-miterlimit="10"/>
<path d="M38.2195 64.2002H32.9316C30.6743 64.2002 29.6232 64.5498 29.0596 66.1797C28.7032 67.2224 28.4068 68.2851 28.1719 69.3624H38.2195" stroke="#2D2D2D" stroke-miterlimit="10"/>
<path d="M36.0078 39.3997V8.17884C36.0078 6.38378 37.293 5.64868 38.2188 5.64868" stroke="#2D2D2D" stroke-miterlimit="10"/>
<path d="M40.4298 39.3997V8.17884C40.4298 6.38378 39.1445 5.64868 38.2188 5.64868" stroke="#2D2D2D" stroke-miterlimit="10"/>
<path d="M36.0078 12.6555H40.4299" stroke="#2D2D2D" stroke-miterlimit="10"/>
<path d="M33.625 45.4539H42.8068" stroke="#2D2D2D" stroke-miterlimit="10"/>
<path d="M38.2318 43.5295C39.089 43.5295 39.7838 42.8269 39.7838 41.9602C39.7838 41.0935 39.089 40.3909 38.2318 40.3909C37.3746 40.3909 36.6797 41.0935 36.6797 41.9602C36.6797 42.8269 37.3746 43.5295 38.2318 43.5295Z" stroke="#2D2D2D" stroke-miterlimit="10"/>
<path d="M37.7812 64.2002H43.0692C45.3292 64.2002 46.3776 64.5498 46.9439 66.1797C47.297 67.223 47.5915 68.2856 47.8262 69.3624H37.7812" stroke="#2D2D2D" stroke-miterlimit="10"/>
</g>
<defs>
<clipPath id="clip0_1013_25046">
<rect width="20" height="64" fill="white" transform="translate(28 5.5)"/>
</clipPath>
</defs>
</svg>
