<svg width="48" height="48" viewBox="0 0 48 48" fill="none" xmlns="http://www.w3.org/2000/svg">
<mask id="path-1-inside-1_1182_41415" fill="white">
<path fill-rule="evenodd" clip-rule="evenodd" d="M24 48C37.2548 48 48 37.2548 48 24C48 10.7452 37.2548 0 24 0C10.7452 0 0 10.7452 0 24C0 37.2548 10.7452 48 24 48ZM22.2194 31.5235L29.9392 25.5852C30.9799 24.7847 30.9799 23.2153 29.9392 22.4148L22.2194 16.4765C20.9042 15.4648 19 16.4024 19 18.0617L19 29.9383C19 31.5976 20.9042 32.5352 22.2194 31.5235Z"/>
</mask>
<path fill-rule="evenodd" clip-rule="evenodd" d="M24 48C37.2548 48 48 37.2548 48 24C48 10.7452 37.2548 0 24 0C10.7452 0 0 10.7452 0 24C0 37.2548 10.7452 48 24 48ZM22.2194 31.5235L29.9392 25.5852C30.9799 24.7847 30.9799 23.2153 29.9392 22.4148L22.2194 16.4765C20.9042 15.4648 19 16.4024 19 18.0617L19 29.9383C19 31.5976 20.9042 32.5352 22.2194 31.5235Z" fill="#F7F6F6"/>
<path d="M29.9392 25.5852L29.3295 24.7926L29.3295 24.7926L29.9392 25.5852ZM22.2194 31.5235L21.6097 30.7309L21.6097 30.7309L22.2194 31.5235ZM29.9392 22.4148L29.3295 23.2074L29.3295 23.2074L29.9392 22.4148ZM22.2194 16.4765L21.6097 17.2691L21.6097 17.2691L22.2194 16.4765ZM19 18.0617L20 18.0617V18.0617H19ZM19 29.9383L18 29.9383V29.9383H19ZM47 24C47 36.7025 36.7025 47 24 47V49C37.8071 49 49 37.8071 49 24H47ZM24 1C36.7025 1 47 11.2975 47 24H49C49 10.1929 37.8071 -1 24 -1V1ZM1 24C1 11.2975 11.2975 1 24 1V-1C10.1929 -1 -1 10.1929 -1 24H1ZM24 47C11.2975 47 1 36.7025 1 24H-1C-1 37.8071 10.1929 49 24 49V47ZM29.3295 24.7926L21.6097 30.7309L22.8291 32.3161L30.5489 26.3779L29.3295 24.7926ZM29.3295 23.2074C29.8499 23.6077 29.8499 24.3923 29.3295 24.7926L30.5489 26.3779C32.11 25.177 32.11 22.823 30.5489 21.6221L29.3295 23.2074ZM21.6097 17.2691L29.3295 23.2074L30.5489 21.6221L22.8291 15.6839L21.6097 17.2691ZM20 18.0617C20 17.2321 20.9521 16.7632 21.6097 17.2691L22.8291 15.6839C20.8563 14.1663 18 15.5727 18 18.0617H20ZM20 29.9383L20 18.0617L18 18.0617L18 29.9383L20 29.9383ZM21.6097 30.7309C20.9521 31.2368 20 30.7679 20 29.9383H18C18 32.4273 20.8563 33.8337 22.8291 32.3161L21.6097 30.7309Z" fill="white" mask="url(#path-1-inside-1_1182_41415)"/>
</svg>
