<svg width="107" height="19" viewBox="0 0 107 19" fill="none" xmlns="http://www.w3.org/2000/svg">
<path d="M8.92937 3.05066C9.10898 2.49787 9.89102 2.49787 10.0706 3.05066L11.0279 5.99696C11.2154 6.57379 11.7529 6.96434 12.3594 6.96434H15.4574C16.0386 6.96434 16.2803 7.70811 15.81 8.04975L13.3037 9.87067C12.8131 10.2272 12.6077 10.8591 12.7952 11.4359L13.7525 14.3822C13.9321 14.935 13.2994 15.3947 12.8292 15.053L10.3229 13.2321C9.83222 12.8756 9.16778 12.8756 8.6771 13.2321L6.17082 15.053C5.7006 15.3947 5.06791 14.935 5.24752 14.3822L6.20483 11.4359C6.39226 10.8591 6.18693 10.2272 5.69625 9.87066L3.18997 8.04975C2.71975 7.70811 2.96141 6.96434 3.54265 6.96434H6.64057C7.24709 6.96434 7.78463 6.57379 7.97205 5.99696L8.92937 3.05066Z" fill="#2D2D2D" stroke="#2D2D2D" stroke-width="0.8"/>
<path d="M30.9294 3.05066C31.109 2.49787 31.891 2.49787 32.0706 3.05066L33.0279 5.99696C33.2154 6.57379 33.7529 6.96434 34.3594 6.96434H37.4574C38.0386 6.96434 38.2803 7.70811 37.81 8.04975L35.3037 9.87067C34.8131 10.2272 34.6077 10.8591 34.7952 11.4359L35.7525 14.3822C35.9321 14.935 35.2994 15.3947 34.8292 15.053L32.3229 13.2321C31.8322 12.8756 31.1678 12.8756 30.6771 13.2321L28.1708 15.053C27.7006 15.3947 27.0679 14.935 27.2475 14.3822L28.2048 11.4359C28.3923 10.8591 28.1869 10.2272 27.6963 9.87066L25.19 8.04975C24.7197 7.70811 24.9614 6.96434 25.5426 6.96434H28.6406C29.2471 6.96434 29.7846 6.57379 29.9721 5.99696L30.9294 3.05066Z" fill="#2D2D2D" stroke="#2D2D2D" stroke-width="0.8"/>
<path d="M52.9294 3.05066C53.109 2.49787 53.891 2.49787 54.0706 3.05066L55.0279 5.99696C55.2154 6.57379 55.7529 6.96434 56.3594 6.96434H59.4574C60.0386 6.96434 60.2803 7.70811 59.81 8.04975L57.3037 9.87067C56.8131 10.2272 56.6077 10.8591 56.7952 11.4359L57.7525 14.3822C57.9321 14.935 57.2994 15.3947 56.8292 15.053L54.3229 13.2321C53.8322 12.8756 53.1678 12.8756 52.6771 13.2321L50.1708 15.053C49.7006 15.3947 49.0679 14.935 49.2475 14.3822L50.2048 11.4359C50.3923 10.8591 50.1869 10.2272 49.6963 9.87066L47.19 8.04975C46.7197 7.70811 46.9614 6.96434 47.5426 6.96434H50.6406C51.2471 6.96434 51.7846 6.57379 51.9721 5.99696L52.9294 3.05066Z" fill="#2D2D2D" stroke="#2D2D2D" stroke-width="0.8"/>
<path d="M74.9294 3.05066C75.109 2.49787 75.891 2.49787 76.0706 3.05066L77.0279 5.99696C77.2154 6.57379 77.7529 6.96434 78.3594 6.96434H81.4574C82.0386 6.96434 82.2803 7.70811 81.81 8.04975L79.3037 9.87067C78.8131 10.2272 78.6077 10.8591 78.7952 11.4359L79.7525 14.3822C79.9321 14.935 79.2994 15.3947 78.8292 15.053L76.3229 13.2321C75.8322 12.8756 75.1678 12.8756 74.6771 13.2321L72.1708 15.053C71.7006 15.3947 71.0679 14.935 71.2475 14.3822L72.2048 11.4359C72.3923 10.8591 72.1869 10.2272 71.6963 9.87066L69.19 8.04975C68.7197 7.70811 68.9614 6.96434 69.5426 6.96434H72.6406C73.2471 6.96434 73.7846 6.57379 73.9721 5.99696L74.9294 3.05066Z" fill="#2D2D2D" stroke="#2D2D2D" stroke-width="0.8"/>
<path d="M96.9294 3.05066C97.109 2.49787 97.891 2.49787 98.0706 3.05066L99.0279 5.99696C99.2154 6.57379 99.7529 6.96434 100.359 6.96434H103.457C104.039 6.96434 104.28 7.70811 103.81 8.04975L101.304 9.87067C100.813 10.2272 100.608 10.8591 100.795 11.4359L101.752 14.3822C101.932 14.935 101.299 15.3947 100.829 15.053L98.3229 13.2321C97.8322 12.8756 97.1678 12.8756 96.6771 13.2321L94.1708 15.053C93.7006 15.3947 93.0679 14.935 93.2475 14.3822L94.2048 11.4359C94.3923 10.8591 94.1869 10.2272 93.6963 9.87066L91.19 8.04975C90.7197 7.70811 90.9614 6.96434 91.5426 6.96434H94.6406C95.2471 6.96434 95.7846 6.57379 95.9721 5.99696L96.9294 3.05066Z" stroke="#2D2D2D" stroke-width="0.8"/>
</svg>
