<svg width="30" height="29" viewBox="0 0 30 29" fill="none" xmlns="http://www.w3.org/2000/svg">
<path d="M14.2602 0.81354C14.6569 0.377267 15.3431 0.377268 15.7398 0.81354L18.4156 3.75589C18.6369 3.99925 18.9637 4.11821 19.2897 4.07404L23.2307 3.54001C23.8151 3.46083 24.3407 3.90189 24.3642 4.49112L24.5227 8.46503C24.5358 8.79371 24.7097 9.09492 24.9878 9.27061L28.3501 11.3948C28.8486 11.7097 28.9678 12.3855 28.607 12.852L26.174 15.998C25.9728 16.2582 25.9124 16.6007 26.0125 16.9141L27.2227 20.7025C27.4022 21.2642 27.0591 21.8585 26.4829 21.9839L22.5969 22.83C22.2755 22.9 22.009 23.1236 21.8843 23.428L20.3763 27.108C20.1527 27.6537 19.5079 27.8884 18.9858 27.6141L15.4651 25.7644C15.1739 25.6114 14.8261 25.6114 14.5349 25.7644L11.0142 27.6141C10.4921 27.8884 9.84735 27.6537 9.62374 27.108L8.1157 23.428C7.99097 23.1236 7.72453 22.9 7.40312 22.83L3.51709 21.9839C2.9409 21.8585 2.59781 21.2642 2.77726 20.7025L3.98754 16.9141C4.08764 16.6007 4.02724 16.2582 3.82601 15.998L1.393 12.852C1.03225 12.3855 1.1514 11.7097 1.64994 11.3948L5.01223 9.27061C5.29032 9.09492 5.46423 8.79371 5.47733 8.46503L5.63577 4.49112C5.65926 3.90189 6.1849 3.46083 6.76925 3.54001L10.7103 4.07404C11.0363 4.11821 11.3631 3.99925 11.5844 3.75589L14.2602 0.81354Z" fill="#004080"/>
<path d="M8.64185 14.8916L11.7276 17.9774C12.5087 18.7584 13.775 18.7584 14.5561 17.9774L22.1418 10.3916" stroke="white" stroke-linecap="round"/>
</svg>
