<svg width="26" height="26" viewBox="0 0 26 26" fill="none" xmlns="http://www.w3.org/2000/svg">
<path d="M13.0002 14.846C15.5492 14.846 17.6155 12.7796 17.6155 10.2306C17.6155 7.68161 15.5492 5.61523 13.0002 5.61523C10.4511 5.61523 8.38477 7.68161 8.38477 10.2306C8.38477 12.7796 10.4511 14.846 13.0002 14.846Z" stroke="#2D2D2D" stroke-linecap="round" stroke-linejoin="round"/>
<path d="M5.11719 22.0454C5.94102 20.6932 7.09886 19.5755 8.47942 18.8C9.85997 18.0245 11.4168 17.6172 13.0003 17.6172C14.5837 17.6172 16.1406 18.0245 17.5211 18.8C18.9017 19.5755 20.0595 20.6932 20.8833 22.0454" stroke="#2D2D2D" stroke-linecap="round" stroke-linejoin="round"/>
<path d="M13 25C19.6274 25 25 19.6274 25 13C25 6.37258 19.6274 1 13 1C6.37258 1 1 6.37258 1 13C1 19.6274 6.37258 25 13 25Z" stroke="#2D2D2D" stroke-linecap="round" stroke-linejoin="round"/>
</svg>
