<svg width="51" height="35" viewBox="0 0 51 35" fill="none" xmlns="http://www.w3.org/2000/svg">
<path d="M24.4136 18.62V23.4364H22.875V11.5419H26.9557C27.4428 11.5318 27.9271 11.6176 28.3806 11.7944C28.8341 11.9711 29.2479 12.2353 29.5981 12.5717C29.9518 12.8876 30.2333 13.2751 30.4237 13.7081C30.6141 14.1411 30.7089 14.6095 30.7019 15.0819C30.712 15.5568 30.6186 16.0283 30.4281 16.4641C30.2376 16.8998 29.9544 17.2895 29.5981 17.6064C28.8845 18.2821 28.0037 18.6196 26.9557 18.619H24.4136V18.62ZM24.4136 13.0063V17.1584H26.9939C27.2768 17.1667 27.5583 17.1163 27.8204 17.0105C28.0826 16.9046 28.3196 16.7455 28.5163 16.5434C28.712 16.3545 28.8675 16.1285 28.9737 15.8789C29.0799 15.6292 29.1346 15.361 29.1346 15.09C29.1346 14.8189 29.0799 14.5507 28.9737 14.301C28.8675 14.0514 28.712 13.8254 28.5163 13.6365C28.3221 13.4302 28.0859 13.2672 27.8234 13.1584C27.561 13.0496 27.2782 12.9974 26.9939 13.0054H24.4136V13.0063Z" fill="#5F6368"/>
<path d="M34.2474 15.0325C35.3846 15.0325 36.2823 15.3343 36.9404 15.9379C37.5985 16.5415 37.9273 17.369 37.9267 18.4206V23.4363H36.4549V22.3069H36.388C35.7509 23.237 34.9036 23.702 33.846 23.702C32.9432 23.702 32.1879 23.4363 31.5801 22.9048C31.2884 22.6609 31.0552 22.3554 30.8975 22.0106C30.7398 21.6659 30.6615 21.2905 30.6684 20.9118C30.6684 20.0697 30.9889 19.4 31.6298 18.9027C32.2707 18.4054 33.1264 18.1561 34.1967 18.1548C35.1103 18.1548 35.8627 18.3209 36.454 18.6531V18.3038C36.4557 18.0457 36.3996 17.7904 36.2897 17.5565C36.1798 17.3226 36.0188 17.1159 35.8185 16.9515C35.4116 16.5869 34.8813 16.388 34.3334 16.3944C33.4739 16.3944 32.7938 16.7544 32.293 17.4744L30.9379 16.6269C31.6833 15.5639 32.7865 15.0325 34.2474 15.0325ZM32.2567 20.9451C32.2557 21.1395 32.3014 21.3314 32.3902 21.5047C32.479 21.6781 32.6082 21.8278 32.767 21.9416C33.1073 22.2074 33.5297 22.3482 33.9626 22.3402C34.6118 22.3391 35.2342 22.0824 35.6933 21.6265C36.203 21.1501 36.4578 20.5911 36.4578 19.9495C35.9781 19.5699 35.3091 19.3801 34.4509 19.3801C33.8259 19.3801 33.3047 19.5297 32.8874 19.829C32.466 20.1327 32.2567 20.5018 32.2567 20.9451Z" fill="#5F6368"/>
<path d="M46.3745 15.2982L41.2368 27.0237H39.6485L41.555 22.921L38.1768 15.2982H39.8492L42.2909 21.1444H42.3243L44.6992 15.2982H46.3745Z" fill="#5F6368"/>
<path d="M18.1958 17.5817C18.1964 17.116 18.1568 16.6512 18.0773 16.1923H11.5884V18.824H15.305C15.2289 19.2443 15.0679 19.645 14.8318 20.0019C14.5956 20.3587 14.2891 20.6644 13.9307 20.9005V22.6088H16.1488C17.4476 21.4196 18.1958 19.661 18.1958 17.5817Z" fill="#4285F4"/>
<path d="M11.5887 24.2593C13.4456 24.2593 15.009 23.6538 16.1491 22.6098L13.931 20.9015C13.3137 21.3172 12.5186 21.5545 11.5887 21.5545C9.79397 21.5545 8.27064 20.353 7.72591 18.7339H5.44092V20.4944C6.01362 21.6261 6.89179 22.5775 7.97739 23.2423C9.06299 23.9071 10.3133 24.2592 11.5887 24.2593Z" fill="#34A853"/>
<path d="M7.72568 18.7339C7.4377 17.8855 7.4377 16.9667 7.72568 16.1183V14.3578H5.44069C4.95892 15.3098 4.70801 16.3606 4.70801 17.4261C4.70801 18.4916 4.95892 19.5423 5.44069 20.4944L7.72568 18.7339Z" fill="#FBBC04"/>
<path d="M11.5887 13.2976C12.57 13.2817 13.5181 13.6499 14.2283 14.3226L16.1921 12.3723C14.9468 11.2108 13.2971 10.573 11.5887 10.5929C10.3133 10.5929 9.06299 10.945 7.97739 11.6098C6.89179 12.2746 6.01362 13.226 5.44092 14.3577L7.72591 16.1182C8.27064 14.4991 9.79397 13.2976 11.5887 13.2976Z" fill="#EA4335"/>
</svg>
