<svg width="51" height="35" viewBox="0 0 51 35" fill="none" xmlns="http://www.w3.org/2000/svg">
<rect x="0.541504" y="0.34314" width="50" height="34.3137" rx="4" fill="#1F72CD"/>
<path fill-rule="evenodd" clip-rule="evenodd" d="M9.50525 12.4955L4.82715 22.8564H10.4275L11.1218 21.2045H12.7087L13.403 22.8564H19.5674V21.5956L20.1167 22.8564H23.3054L23.8547 21.569V22.8564H36.675L38.2339 21.2474L39.6936 22.8564L46.2784 22.8698L41.5855 17.7049L46.2784 12.4955H39.7957L38.2782 14.0748L36.8645 12.4955H22.9177L21.7201 15.1697L20.4944 12.4955H14.9057V13.7134L14.284 12.4955H9.50525ZM28.65 13.9666H36.012L38.2637 16.4009L40.588 13.9666H42.8397L39.4185 17.7033L42.8397 21.3969H40.4859L38.2342 18.9344L35.898 21.3969H28.65V13.9666ZM30.4679 16.8642V15.507V15.5057H35.0616L37.066 17.6762L34.9728 19.8585H30.4679V18.3769H34.4842V16.8642H30.4679ZM10.5892 13.9666H13.319L16.422 20.9925V13.9666H19.4125L21.8092 19.0041L24.018 13.9666H26.9935V21.4013H25.183L25.1682 15.5755L22.5286 21.4013H20.909L18.2546 15.5755V21.4013H14.53L13.8238 19.7345H10.0089L9.30419 21.3998H7.30854L10.5892 13.9666ZM10.6601 18.1942L11.917 15.225L13.1724 18.1942H10.6601Z" fill="white"/>
</svg>
