<svg width="76" height="75" viewBox="0 0 76 75" fill="none" xmlns="http://www.w3.org/2000/svg">
<path d="M40.3594 16.149H49.629L58.8987 37.6811L49.9844 47.2823" stroke="black" stroke-linecap="round" stroke-linejoin="round"/>
<path d="M33.6545 58.851H49.7683C49.7683 58.851 50.7725 45.787 48.316 35.2414C45.7978 24.4439 42.1054 16.149 41.0393 16.149H26.1924C25.1264 16.149 21.4186 24.4439 18.9003 35.2886C16.4593 45.787 17.4481 58.8983 17.4481 58.8983H33.6545V58.851Z" stroke="black" stroke-linecap="round" stroke-linejoin="round"/>
<path d="M30.9057 16.1333H17.1094L21.8833 24.8846" stroke="black" stroke-linecap="round" stroke-linejoin="round"/>
<path d="M25.8828 55.1679H41.3322V22.3977H25.8828V55.1679Z" stroke="black" stroke-linecap="round" stroke-linejoin="round"/>
<path d="M29.2516 24.6958C29.2516 24.8203 29.2153 24.942 29.1474 25.0455C29.0795 25.1491 28.983 25.2298 28.8701 25.2774C28.7572 25.3251 28.6329 25.3375 28.513 25.3132C28.3932 25.289 28.2831 25.229 28.1966 25.1409C28.1102 25.0529 28.0513 24.9407 28.0275 24.8186C28.0037 24.6965 28.0159 24.5699 28.0627 24.4548C28.1094 24.3398 28.1886 24.2414 28.2903 24.1723C28.3919 24.1031 28.5114 24.0662 28.6336 24.0662C28.7148 24.0662 28.7951 24.0824 28.8701 24.1141C28.9451 24.1457 29.0132 24.1921 29.0706 24.2506C29.128 24.309 29.1735 24.3784 29.2045 24.4548C29.2356 24.5312 29.2516 24.6131 29.2516 24.6958Z" fill="black"/>
<path d="M31.2594 24.6958C31.2594 24.8203 31.2231 24.942 31.1552 25.0455C31.0873 25.1491 30.9908 25.2298 30.8779 25.2774C30.765 25.3251 30.6407 25.3375 30.5209 25.3132C30.401 25.289 30.2909 25.229 30.2044 25.1409C30.118 25.0529 30.0592 24.9407 30.0353 24.8186C30.0115 24.6965 30.0237 24.5699 30.0705 24.4548C30.1173 24.3398 30.1965 24.2414 30.2981 24.1723C30.3997 24.1031 30.5192 24.0662 30.6414 24.0662C30.7226 24.0662 30.8029 24.0824 30.8779 24.1141C30.9529 24.1457 31.021 24.1921 31.0784 24.2506C31.1358 24.309 31.1813 24.3784 31.2124 24.4548C31.2434 24.5312 31.2594 24.6131 31.2594 24.6958Z" fill="black"/>
<path d="M33.1266 24.6958C33.1266 24.8203 33.0903 24.942 33.0224 25.0455C32.9545 25.1491 32.858 25.2298 32.7451 25.2774C32.6322 25.3251 32.5079 25.3375 32.388 25.3132C32.2682 25.289 32.1581 25.229 32.0716 25.1409C31.9852 25.0529 31.9263 24.9407 31.9025 24.8186C31.8787 24.6965 31.8909 24.5699 31.9377 24.4548C31.9844 24.3398 32.0636 24.2414 32.1653 24.1723C32.2669 24.1031 32.3864 24.0662 32.5086 24.0662C32.5898 24.0662 32.6701 24.0824 32.7451 24.1141C32.8201 24.1457 32.8882 24.1921 32.9456 24.2506C33.003 24.309 33.0485 24.3784 33.0795 24.4548C33.1106 24.5312 33.1266 24.6131 33.1266 24.6958Z" fill="black"/>
<path d="M33.9531 24.6958C33.9531 24.5712 33.9894 24.4495 34.0573 24.346C34.1252 24.2424 34.2217 24.1617 34.3346 24.1141C34.4475 24.0664 34.5718 24.054 34.6917 24.0783C34.8115 24.1026 34.9217 24.1625 35.0081 24.2506C35.0945 24.3386 35.1534 24.4508 35.1772 24.5729C35.2011 24.6951 35.1888 24.8216 35.142 24.9367C35.0953 25.0517 35.0161 25.1501 34.9144 25.2192C34.8128 25.2884 34.6933 25.3253 34.5711 25.3253C34.4899 25.3253 34.4096 25.3091 34.3346 25.2774C34.2596 25.2458 34.1915 25.1994 34.1341 25.1409C34.0767 25.0825 34.0312 25.0131 34.0002 24.9367C33.9691 24.8603 33.9531 24.7784 33.9531 24.6958Z" fill="black"/>
<path d="M37.2828 24.6958C37.2828 24.8203 37.2466 24.942 37.1787 25.0455C37.1108 25.1491 37.0143 25.2298 36.9013 25.2774C36.7884 25.3251 36.6642 25.3375 36.5443 25.3132C36.4244 25.289 36.3143 25.229 36.2279 25.1409C36.1415 25.0529 36.0826 24.9407 36.0587 24.8186C36.0349 24.6965 36.0471 24.5699 36.0939 24.4548C36.1407 24.3398 36.2199 24.2414 36.3215 24.1723C36.4231 24.1031 36.5426 24.0662 36.6649 24.0662C36.746 24.0662 36.8264 24.0824 36.9013 24.1141C36.9763 24.1457 37.0444 24.1921 37.1018 24.2506C37.1592 24.309 37.2047 24.3784 37.2358 24.4548C37.2668 24.5312 37.2828 24.6131 37.2828 24.6958Z" fill="black"/>
<path d="M39.2985 24.6958C39.2985 24.8203 39.2622 24.942 39.1943 25.0455C39.1264 25.1491 39.0299 25.2298 38.917 25.2774C38.804 25.3251 38.6798 25.3375 38.5599 25.3132C38.44 25.289 38.3299 25.229 38.2435 25.1409C38.1571 25.0529 38.0982 24.9407 38.0744 24.8186C38.0505 24.6965 38.0628 24.5699 38.1095 24.4548C38.1563 24.3398 38.2355 24.2414 38.3371 24.1723C38.4388 24.1031 38.5583 24.0662 38.6805 24.0662C38.7616 24.0662 38.842 24.0824 38.917 24.1141C38.9919 24.1457 39.0601 24.1921 39.1175 24.2506C39.1748 24.309 39.2204 24.3784 39.2514 24.4548C39.2825 24.5312 39.2985 24.6131 39.2985 24.6958Z" fill="black"/>
<path d="M30.2594 26.6947C30.2594 26.8192 30.2231 26.9409 30.1552 27.0444C30.0873 27.148 29.9908 27.2287 29.8779 27.2763C29.765 27.324 29.6407 27.3364 29.5209 27.3121C29.401 27.2879 29.2909 27.2279 29.2044 27.1398C29.118 27.0518 29.0592 26.9396 29.0353 26.8175C29.0115 26.6954 29.0237 26.5688 29.0705 26.4537C29.1173 26.3387 29.1965 26.2403 29.2981 26.1712C29.3997 26.102 29.5192 26.0651 29.6414 26.0651C29.7226 26.0651 29.8029 26.0813 29.8779 26.113C29.9529 26.1446 30.021 26.191 30.0784 26.2495C30.1358 26.3079 30.1813 26.3773 30.2124 26.4537C30.2434 26.5301 30.2594 26.612 30.2594 26.6947Z" fill="black"/>
<path d="M32.1246 26.6947C32.1151 26.8139 32.0726 26.9279 32.0019 27.0234C31.9312 27.1188 31.8352 27.1918 31.7253 27.2337C31.6153 27.2757 31.496 27.2848 31.3811 27.2602C31.2662 27.2355 31.1606 27.178 31.0767 27.0944C30.9927 27.0108 30.9339 26.9046 30.907 26.7882C30.8802 26.6717 30.8864 26.5499 30.925 26.437C30.9636 26.324 31.033 26.2246 31.1251 26.1504C31.2171 26.0762 31.328 26.0302 31.4448 26.0179C31.535 26.0083 31.6262 26.0192 31.7119 26.0496C31.7976 26.08 31.8756 26.1292 31.9405 26.1938C32.0054 26.2584 32.0555 26.3368 32.0873 26.4234C32.1192 26.5099 32.1319 26.6026 32.1246 26.6947Z" fill="black"/>
<path d="M32.9922 26.6947C32.9922 26.5701 33.0284 26.4484 33.0963 26.3449C33.1642 26.2413 33.2608 26.1606 33.3737 26.113C33.4866 26.0653 33.6109 26.0529 33.7307 26.0772C33.8506 26.1015 33.9607 26.1614 34.0471 26.2495C34.1336 26.3375 34.1924 26.4497 34.2163 26.5718C34.2401 26.694 34.2279 26.8205 34.1811 26.9356C34.1343 27.0506 34.0551 27.149 33.9535 27.2181C33.8519 27.2873 33.7324 27.3242 33.6102 27.3242C33.4463 27.3242 33.2891 27.2579 33.1732 27.1398C33.0573 27.0218 32.9922 26.8616 32.9922 26.6947Z" fill="black"/>
<path d="M36.2828 26.6947C36.2828 26.8192 36.2466 26.9409 36.1787 27.0444C36.1108 27.148 36.0143 27.2287 35.9013 27.2763C35.7884 27.324 35.6642 27.3364 35.5443 27.3121C35.4244 27.2879 35.3143 27.2279 35.2279 27.1398C35.1415 27.0518 35.0826 26.9396 35.0587 26.8175C35.0349 26.6954 35.0471 26.5688 35.0939 26.4537C35.1407 26.3387 35.2199 26.2403 35.3215 26.1712C35.4231 26.102 35.5426 26.0651 35.6649 26.0651C35.8288 26.0651 35.9859 26.1314 36.1018 26.2495C36.2177 26.3675 36.2828 26.5277 36.2828 26.6947Z" fill="black"/>
<path d="M38.2905 26.6947C38.2927 26.778 38.2781 26.8608 38.2478 26.9382C38.2175 27.0155 38.1721 27.0858 38.1143 27.1447C38.0564 27.2036 37.9875 27.2499 37.9115 27.2808C37.8356 27.3117 37.7543 27.3265 37.6726 27.3243C37.5884 27.3274 37.5044 27.3136 37.4254 27.2836C37.3465 27.2537 37.2741 27.2081 37.2124 27.1497C37.1507 27.0912 37.1009 27.0209 37.0659 26.9429C37.0309 26.8648 37.0113 26.7805 37.0082 26.6947C37.0052 26.6089 37.0188 26.5234 37.0482 26.4429C37.0776 26.3625 37.1222 26.2888 37.1796 26.2259C37.237 26.1631 37.306 26.1124 37.3826 26.0767C37.4592 26.041 37.542 26.021 37.6262 26.0179C37.7158 26.0079 37.8065 26.0186 37.8916 26.0491C37.9766 26.0796 38.0539 26.1291 38.1176 26.1941C38.1814 26.259 38.23 26.3377 38.2599 26.4244C38.2899 26.511 38.3003 26.6034 38.2905 26.6947Z" fill="black"/>
<path d="M29.2516 28.8353C29.2516 28.9598 29.2153 29.0815 29.1474 29.1851C29.0795 29.2886 28.983 29.3693 28.8701 29.4169C28.7572 29.4646 28.6329 29.4771 28.513 29.4528C28.3932 29.4285 28.2831 29.3685 28.1966 29.2805C28.1102 29.1924 28.0513 29.0802 28.0275 28.9581C28.0037 28.836 28.0159 28.7094 28.0627 28.5943C28.1094 28.4793 28.1886 28.381 28.2903 28.3118C28.3919 28.2426 28.5114 28.2057 28.6336 28.2057C28.7975 28.2057 28.9547 28.272 29.0706 28.3901C29.1865 28.5082 29.2516 28.6683 29.2516 28.8353Z" fill="black"/>
<path d="M31.2594 28.8353C31.2594 28.9598 31.2231 29.0815 31.1552 29.1851C31.0873 29.2886 30.9908 29.3693 30.8779 29.4169C30.765 29.4646 30.6407 29.4771 30.5209 29.4528C30.401 29.4285 30.2909 29.3685 30.2044 29.2805C30.118 29.1924 30.0592 29.0802 30.0353 28.9581C30.0115 28.836 30.0237 28.7094 30.0705 28.5943C30.1173 28.4793 30.1965 28.381 30.2981 28.3118C30.3997 28.2426 30.5192 28.2057 30.6414 28.2057C30.8053 28.2057 30.9625 28.272 31.0784 28.3901C31.1943 28.5082 31.2594 28.6683 31.2594 28.8353Z" fill="black"/>
<path d="M33.1266 28.8353C33.1266 28.9598 33.0903 29.0815 33.0224 29.1851C32.9545 29.2886 32.858 29.3693 32.7451 29.4169C32.6322 29.4646 32.5079 29.4771 32.388 29.4528C32.2682 29.4285 32.1581 29.3685 32.0716 29.2805C31.9852 29.1924 31.9263 29.0802 31.9025 28.9581C31.8787 28.836 31.8909 28.7094 31.9377 28.5943C31.9844 28.4793 32.0636 28.381 32.1653 28.3118C32.2669 28.2426 32.3864 28.2057 32.5086 28.2057C32.5898 28.2057 32.6701 28.222 32.7451 28.2536C32.8201 28.2853 32.8882 28.3316 32.9456 28.3901C33.003 28.4486 33.0485 28.518 33.0795 28.5943C33.1106 28.6707 33.1266 28.7526 33.1266 28.8353Z" fill="black"/>
<path d="M33.9531 28.8353C33.9531 28.7108 33.9894 28.589 34.0573 28.4855C34.1252 28.382 34.2217 28.3013 34.3346 28.2536C34.4475 28.206 34.5718 28.1935 34.6917 28.2178C34.8115 28.2421 34.9217 28.302 35.0081 28.3901C35.0945 28.4781 35.1534 28.5903 35.1772 28.7125C35.2011 28.8346 35.1888 28.9612 35.142 29.0762C35.0953 29.1913 35.0161 29.2896 34.9144 29.3588C34.8128 29.4279 34.6933 29.4649 34.5711 29.4649C34.4072 29.4649 34.25 29.3985 34.1341 29.2805C34.0182 29.1624 33.9531 29.0023 33.9531 28.8353Z" fill="black"/>
<path d="M37.2828 28.8353C37.2828 28.9598 37.2466 29.0815 37.1787 29.1851C37.1108 29.2886 37.0143 29.3693 36.9013 29.4169C36.7884 29.4646 36.6642 29.4771 36.5443 29.4528C36.4244 29.4285 36.3143 29.3685 36.2279 29.2805C36.1415 29.1924 36.0826 29.0802 36.0587 28.9581C36.0349 28.836 36.0471 28.7094 36.0939 28.5943C36.1407 28.4793 36.2199 28.381 36.3215 28.3118C36.4231 28.2426 36.5426 28.2057 36.6649 28.2057C36.8288 28.2057 36.9859 28.272 37.1018 28.3901C37.2177 28.5082 37.2828 28.6683 37.2828 28.8353Z" fill="black"/>
<path d="M39.2985 28.8353C39.2985 28.9598 39.2622 29.0815 39.1943 29.1851C39.1264 29.2886 39.0299 29.3693 38.917 29.4169C38.804 29.4646 38.6798 29.4771 38.5599 29.4528C38.44 29.4285 38.3299 29.3685 38.2435 29.2805C38.1571 29.1924 38.0982 29.0802 38.0744 28.9581C38.0505 28.836 38.0628 28.7094 38.1095 28.5943C38.1563 28.4793 38.2355 28.381 38.3371 28.3118C38.4388 28.2426 38.5583 28.2057 38.6805 28.2057C38.8444 28.2057 39.0016 28.272 39.1175 28.3901C39.2333 28.5082 39.2985 28.6683 39.2985 28.8353Z" fill="black"/>
<path d="M30.2594 30.8343C30.2594 30.9588 30.2231 31.0805 30.1552 31.1841C30.0873 31.2876 29.9908 31.3683 29.8779 31.416C29.765 31.4636 29.6407 31.4761 29.5209 31.4518C29.401 31.4275 29.2909 31.3675 29.2044 31.2795C29.118 31.1914 29.0592 31.0793 29.0353 30.9571C29.0115 30.835 29.0237 30.7084 29.0705 30.5934C29.1173 30.4783 29.1965 30.38 29.2981 30.3108C29.3997 30.2416 29.5192 30.2047 29.6414 30.2047C29.7226 30.2047 29.8029 30.221 29.8779 30.2526C29.9529 30.2843 30.021 30.3307 30.0784 30.3891C30.1358 30.4476 30.1813 30.517 30.2124 30.5934C30.2434 30.6698 30.2594 30.7516 30.2594 30.8343Z" fill="black"/>
<path d="M32.1266 30.8343C32.1266 30.9588 32.0903 31.0805 32.0224 31.1841C31.9545 31.2876 31.858 31.3683 31.7451 31.416C31.6322 31.4636 31.5079 31.4761 31.388 31.4518C31.2682 31.4275 31.1581 31.3675 31.0716 31.2795C30.9852 31.1914 30.9263 31.0793 30.9025 30.9571C30.8787 30.835 30.8909 30.7084 30.9377 30.5934C30.9844 30.4783 31.0636 30.38 31.1653 30.3108C31.2669 30.2416 31.3864 30.2047 31.5086 30.2047C31.5898 30.2047 31.6701 30.221 31.7451 30.2526C31.8201 30.2843 31.8882 30.3307 31.9456 30.3891C32.003 30.4476 32.0485 30.517 32.0795 30.5934C32.1106 30.6698 32.1266 30.7516 32.1266 30.8343Z" fill="black"/>
<path d="M32.9922 30.8343C32.9922 30.7098 33.0284 30.5881 33.0963 30.4845C33.1642 30.381 33.2608 30.3003 33.3737 30.2526C33.4866 30.205 33.6109 30.1925 33.7307 30.2168C33.8506 30.2411 33.9607 30.3011 34.0471 30.3891C34.1336 30.4772 34.1924 30.5893 34.2163 30.7115C34.2401 30.8336 34.2279 30.9602 34.1811 31.0752C34.1343 31.1903 34.0551 31.2886 33.9535 31.3578C33.8519 31.427 33.7324 31.4639 33.6102 31.4639C33.4463 31.4639 33.2891 31.3976 33.1732 31.2795C33.0573 31.1614 32.9922 31.0013 32.9922 30.8343Z" fill="black"/>
<path d="M36.2828 30.8343C36.2828 30.9588 36.2466 31.0805 36.1787 31.1841C36.1108 31.2876 36.0143 31.3683 35.9013 31.416C35.7884 31.4636 35.6642 31.4761 35.5443 31.4518C35.4244 31.4275 35.3143 31.3675 35.2279 31.2795C35.1415 31.1914 35.0826 31.0793 35.0587 30.9571C35.0349 30.835 35.0471 30.7084 35.0939 30.5934C35.1407 30.4783 35.2199 30.38 35.3215 30.3108C35.4231 30.2416 35.5426 30.2047 35.6649 30.2047C35.746 30.2047 35.8264 30.221 35.9013 30.2526C35.9763 30.2843 36.0444 30.3307 36.1018 30.3891C36.1592 30.4476 36.2047 30.517 36.2358 30.5934C36.2668 30.6698 36.2828 30.7516 36.2828 30.8343Z" fill="black"/>
<path d="M38.2906 30.8343C38.2928 30.9175 38.2782 31.0004 38.2479 31.0777C38.2176 31.1551 38.1722 31.2254 38.1144 31.2843C38.0566 31.3432 37.9876 31.3895 37.9116 31.4203C37.8357 31.4512 37.7544 31.466 37.6727 31.4639C37.5088 31.4639 37.3516 31.3975 37.2357 31.2795C37.1198 31.1614 37.0547 31.0012 37.0547 30.8343C37.0547 30.6673 37.1198 30.5071 37.2357 30.3891C37.3516 30.271 37.5088 30.2047 37.6727 30.2047C37.7544 30.2025 37.8357 30.2173 37.9116 30.2482C37.9876 30.2791 38.0566 30.3254 38.1144 30.3843C38.1722 30.4432 38.2176 30.5134 38.2479 30.5908C38.2782 30.6682 38.2928 30.751 38.2906 30.8343Z" fill="black"/>
<path d="M29.2516 32.8175C29.2516 32.942 29.2153 33.0637 29.1474 33.1672C29.0795 33.2708 28.983 33.3515 28.8701 33.3991C28.7572 33.4468 28.6329 33.4592 28.513 33.435C28.3932 33.4107 28.2831 33.3507 28.1966 33.2626C28.1102 33.1746 28.0513 33.0624 28.0275 32.9403C28.0037 32.8182 28.0159 32.6916 28.0627 32.5765C28.1094 32.4615 28.1886 32.3632 28.2903 32.294C28.3919 32.2248 28.5114 32.1879 28.6336 32.1879C28.7975 32.1879 28.9547 32.2542 29.0706 32.3723C29.1865 32.4903 29.2516 32.6505 29.2516 32.8175Z" fill="black"/>
<path d="M31.2594 32.8175C31.2594 32.942 31.2231 33.0637 31.1552 33.1672C31.0873 33.2708 30.9908 33.3515 30.8779 33.3991C30.765 33.4468 30.6407 33.4592 30.5209 33.435C30.401 33.4107 30.2909 33.3507 30.2044 33.2626C30.118 33.1746 30.0592 33.0624 30.0353 32.9403C30.0115 32.8182 30.0237 32.6916 30.0705 32.5765C30.1173 32.4615 30.1965 32.3632 30.2981 32.294C30.3997 32.2248 30.5192 32.1879 30.6414 32.1879C30.8053 32.1879 30.9625 32.2542 31.0784 32.3723C31.1943 32.4903 31.2594 32.6505 31.2594 32.8175Z" fill="black"/>
<path d="M33.1266 32.8175C33.1266 32.942 33.0903 33.0637 33.0224 33.1672C32.9545 33.2708 32.858 33.3515 32.7451 33.3991C32.6322 33.4468 32.5079 33.4592 32.388 33.435C32.2682 33.4107 32.1581 33.3507 32.0716 33.2626C31.9852 33.1746 31.9263 33.0624 31.9025 32.9403C31.8787 32.8182 31.8909 32.6916 31.9377 32.5765C31.9844 32.4615 32.0636 32.3632 32.1653 32.294C32.2669 32.2248 32.3864 32.1879 32.5086 32.1879C32.5898 32.1879 32.6701 32.2042 32.7451 32.2358C32.8201 32.2674 32.8882 32.3138 32.9456 32.3723C33.003 32.4307 33.0485 32.5001 33.0795 32.5765C33.1106 32.6529 33.1266 32.7348 33.1266 32.8175Z" fill="black"/>
<path d="M33.9531 32.8175C33.9531 32.6929 33.9894 32.5712 34.0573 32.4677C34.1252 32.3641 34.2217 32.2834 34.3346 32.2358C34.4475 32.1881 34.5718 32.1757 34.6917 32.2C34.8115 32.2243 34.9217 32.2842 35.0081 32.3723C35.0945 32.4603 35.1534 32.5725 35.1772 32.6946C35.2011 32.8168 35.1888 32.9433 35.142 33.0584C35.0953 33.1734 35.0161 33.2718 34.9144 33.3409C34.8128 33.4101 34.6933 33.447 34.5711 33.447C34.4072 33.447 34.25 33.3807 34.1341 33.2626C34.0182 33.1446 33.9531 32.9844 33.9531 32.8175Z" fill="black"/>
<path d="M37.2828 32.8175C37.2828 32.942 37.2466 33.0637 37.1787 33.1672C37.1108 33.2708 37.0143 33.3515 36.9013 33.3991C36.7884 33.4468 36.6642 33.4592 36.5443 33.435C36.4244 33.4107 36.3143 33.3507 36.2279 33.2626C36.1415 33.1746 36.0826 33.0624 36.0587 32.9403C36.0349 32.8182 36.0471 32.6916 36.0939 32.5765C36.1407 32.4615 36.2199 32.3632 36.3215 32.294C36.4231 32.2248 36.5426 32.1879 36.6649 32.1879C36.8288 32.1879 36.9859 32.2542 37.1018 32.3723C37.2177 32.4903 37.2828 32.6505 37.2828 32.8175Z" fill="black"/>
<path d="M39.2985 32.8175C39.2985 32.942 39.2622 33.0637 39.1943 33.1672C39.1264 33.2708 39.0299 33.3515 38.917 33.3991C38.804 33.4468 38.6798 33.4592 38.5599 33.435C38.44 33.4107 38.3299 33.3507 38.2435 33.2626C38.1571 33.1746 38.0982 33.0624 38.0744 32.9403C38.0505 32.8182 38.0628 32.6916 38.1095 32.5765C38.1563 32.4615 38.2355 32.3632 38.3371 32.294C38.4388 32.2248 38.5583 32.1879 38.6805 32.1879C38.8444 32.1879 39.0016 32.2542 39.1175 32.3723C39.2333 32.4903 39.2985 32.6505 39.2985 32.8175Z" fill="black"/>
<path d="M30.2594 34.8164C30.2594 34.9409 30.2231 35.0626 30.1552 35.1661C30.0873 35.2697 29.9908 35.3504 29.8779 35.398C29.765 35.4457 29.6407 35.4581 29.5209 35.4339C29.401 35.4096 29.2909 35.3496 29.2044 35.2615C29.118 35.1735 29.0592 35.0613 29.0353 34.9392C29.0115 34.8171 29.0237 34.6905 29.0705 34.5754C29.1173 34.4604 29.1965 34.3621 29.2981 34.2929C29.3997 34.2237 29.5192 34.1868 29.6414 34.1868C29.7226 34.1868 29.8029 34.2031 29.8779 34.2347C29.9529 34.2663 30.021 34.3127 30.0784 34.3712C30.1358 34.4296 30.1813 34.499 30.2124 34.5754C30.2434 34.6518 30.2594 34.7337 30.2594 34.8164Z" fill="black"/>
<path d="M32.1266 34.8164C32.1266 34.9409 32.0903 35.0626 32.0224 35.1661C31.9545 35.2697 31.858 35.3504 31.7451 35.398C31.6322 35.4457 31.5079 35.4581 31.388 35.4339C31.2682 35.4096 31.1581 35.3496 31.0716 35.2615C30.9852 35.1735 30.9263 35.0613 30.9025 34.9392C30.8787 34.8171 30.8909 34.6905 30.9377 34.5754C30.9844 34.4604 31.0636 34.3621 31.1653 34.2929C31.2669 34.2237 31.3864 34.1868 31.5086 34.1868C31.6725 34.1868 31.8297 34.2531 31.9456 34.3712C32.0615 34.4892 32.1266 34.6494 32.1266 34.8164Z" fill="black"/>
<path d="M32.9922 34.8164C32.9922 34.6918 33.0284 34.5701 33.0963 34.4666C33.1642 34.363 33.2608 34.2823 33.3737 34.2347C33.4866 34.187 33.6109 34.1746 33.7307 34.1989C33.8506 34.2232 33.9607 34.2831 34.0471 34.3712C34.1336 34.4592 34.1924 34.5714 34.2163 34.6935C34.2401 34.8157 34.2279 34.9423 34.1811 35.0573C34.1343 35.1723 34.0551 35.2707 33.9535 35.3398C33.8519 35.409 33.7324 35.4459 33.6102 35.4459C33.4463 35.4459 33.2891 35.3796 33.1732 35.2615C33.0573 35.1435 32.9922 34.9833 32.9922 34.8164Z" fill="black"/>
<path d="M36.2828 34.8164C36.2828 34.9409 36.2466 35.0626 36.1787 35.1661C36.1108 35.2697 36.0143 35.3504 35.9013 35.398C35.7884 35.4457 35.6642 35.4581 35.5443 35.4339C35.4244 35.4096 35.3143 35.3496 35.2279 35.2615C35.1415 35.1735 35.0826 35.0613 35.0587 34.9392C35.0349 34.8171 35.0471 34.6905 35.0939 34.5754C35.1407 34.4604 35.2199 34.3621 35.3215 34.2929C35.4231 34.2237 35.5426 34.1868 35.6649 34.1868C35.8288 34.1868 35.9859 34.2531 36.1018 34.3712C36.2177 34.4892 36.2828 34.6494 36.2828 34.8164Z" fill="black"/>
<path d="M38.2906 34.8164C38.2928 34.8997 38.2782 34.9826 38.2479 35.0599C38.2176 35.1373 38.1722 35.2075 38.1144 35.2664C38.0566 35.3253 37.9876 35.3716 37.9116 35.4025C37.8357 35.4334 37.7544 35.4482 37.6727 35.446C37.5088 35.446 37.3516 35.3797 37.2357 35.2616C37.1198 35.1436 37.0547 34.9834 37.0547 34.8164C37.0547 34.6495 37.1198 34.4893 37.2357 34.3713C37.3516 34.2532 37.5088 34.1869 37.6727 34.1869C37.7544 34.1847 37.8357 34.1995 37.9116 34.2304C37.9876 34.2612 38.0566 34.3075 38.1144 34.3664C38.1722 34.4253 38.2176 34.4956 38.2479 34.573C38.2782 34.6503 38.2928 34.7332 38.2906 34.8164Z" fill="black"/>
<path d="M29.2516 37.0357C29.2516 37.1602 29.2153 37.282 29.1474 37.3855C29.0795 37.489 28.983 37.5697 28.8701 37.6174C28.7572 37.665 28.6329 37.6775 28.513 37.6532C28.3932 37.6289 28.2831 37.569 28.1966 37.4809C28.1102 37.3929 28.0513 37.2807 28.0275 37.1585C28.0037 37.0364 28.0159 36.9098 28.0627 36.7948C28.1094 36.6797 28.1886 36.5814 28.2903 36.5122C28.3919 36.4431 28.5114 36.4061 28.6336 36.4061C28.7975 36.4061 28.9547 36.4725 29.0706 36.5905C29.1865 36.7086 29.2516 36.8687 29.2516 37.0357Z" fill="black"/>
<path d="M31.2594 37.0357C31.2594 37.1602 31.2231 37.282 31.1552 37.3855C31.0873 37.489 30.9908 37.5697 30.8779 37.6174C30.765 37.665 30.6407 37.6775 30.5209 37.6532C30.401 37.6289 30.2909 37.569 30.2044 37.4809C30.118 37.3929 30.0592 37.2807 30.0353 37.1585C30.0115 37.0364 30.0237 36.9098 30.0705 36.7948C30.1173 36.6797 30.1965 36.5814 30.2981 36.5122C30.3997 36.4431 30.5192 36.4061 30.6414 36.4061C30.8053 36.4061 30.9625 36.4725 31.0784 36.5905C31.1943 36.7086 31.2594 36.8687 31.2594 37.0357Z" fill="black"/>
<path d="M33.1266 37.0357C33.1266 37.1602 33.0903 37.282 33.0224 37.3855C32.9545 37.489 32.858 37.5697 32.7451 37.6174C32.6322 37.665 32.5079 37.6775 32.388 37.6532C32.2682 37.6289 32.1581 37.569 32.0716 37.4809C31.9852 37.3929 31.9263 37.2807 31.9025 37.1585C31.8787 37.0364 31.8909 36.9098 31.9377 36.7948C31.9844 36.6797 32.0636 36.5814 32.1653 36.5122C32.2669 36.4431 32.3864 36.4061 32.5086 36.4061C32.5898 36.4061 32.6701 36.4224 32.7451 36.4541C32.8201 36.4857 32.8882 36.5321 32.9456 36.5905C33.003 36.649 33.0485 36.7184 33.0795 36.7948C33.1106 36.8712 33.1266 36.953 33.1266 37.0357Z" fill="black"/>
<path d="M33.9531 37.0357C33.9531 36.9112 33.9894 36.7895 34.0573 36.6859C34.1252 36.5824 34.2217 36.5017 34.3346 36.4541C34.4475 36.4064 34.5718 36.3939 34.6917 36.4182C34.8115 36.4425 34.9217 36.5025 35.0081 36.5905C35.0945 36.6786 35.1534 36.7908 35.1772 36.9129C35.2011 37.035 35.1888 37.1616 35.142 37.2767C35.0953 37.3917 35.0161 37.49 34.9144 37.5592C34.8128 37.6284 34.6933 37.6653 34.5711 37.6653C34.4072 37.6653 34.25 37.599 34.1341 37.4809C34.0182 37.3628 33.9531 37.2027 33.9531 37.0357Z" fill="black"/>
<path d="M37.2828 37.0357C37.2828 37.1602 37.2466 37.282 37.1787 37.3855C37.1108 37.489 37.0143 37.5697 36.9013 37.6174C36.7884 37.665 36.6642 37.6775 36.5443 37.6532C36.4244 37.6289 36.3143 37.569 36.2279 37.4809C36.1415 37.3929 36.0826 37.2807 36.0587 37.1585C36.0349 37.0364 36.0471 36.9098 36.0939 36.7948C36.1407 36.6797 36.2199 36.5814 36.3215 36.5122C36.4231 36.4431 36.5426 36.4061 36.6649 36.4061C36.8288 36.4061 36.9859 36.4725 37.1018 36.5905C37.2177 36.7086 37.2828 36.8687 37.2828 37.0357Z" fill="black"/>
<path d="M39.2985 37.0357C39.2985 37.1602 39.2622 37.282 39.1943 37.3855C39.1264 37.489 39.0299 37.5697 38.917 37.6174C38.804 37.665 38.6798 37.6775 38.5599 37.6532C38.44 37.6289 38.3299 37.569 38.2435 37.4809C38.1571 37.3929 38.0982 37.2807 38.0744 37.1585C38.0505 37.0364 38.0628 36.9098 38.1095 36.7948C38.1563 36.6797 38.2355 36.5814 38.3371 36.5122C38.4388 36.4431 38.5583 36.4061 38.6805 36.4061C38.8444 36.4061 39.0016 36.4725 39.1175 36.5905C39.2333 36.7086 39.2985 36.8687 39.2985 37.0357Z" fill="black"/>
<path d="M30.2594 38.956C30.2594 39.0805 30.2231 39.2023 30.1552 39.3058C30.0873 39.4093 29.9908 39.49 29.8779 39.5377C29.765 39.5853 29.6407 39.5978 29.5209 39.5735C29.401 39.5492 29.2909 39.4892 29.2044 39.4012C29.118 39.3131 29.0592 39.201 29.0353 39.0788C29.0115 38.9567 29.0237 38.8301 29.0705 38.7151C29.1173 38.6 29.1965 38.5017 29.2981 38.4325C29.3997 38.3633 29.5192 38.3264 29.6414 38.3264C29.7226 38.3264 29.8029 38.3427 29.8779 38.3743C29.9529 38.406 30.021 38.4524 30.0784 38.5108C30.1358 38.5693 30.1813 38.6387 30.2124 38.7151C30.2434 38.7915 30.2594 38.8733 30.2594 38.956Z" fill="black"/>
<path d="M32.1266 38.956C32.1266 39.0805 32.0903 39.2023 32.0224 39.3058C31.9545 39.4093 31.858 39.49 31.7451 39.5377C31.6322 39.5853 31.5079 39.5978 31.388 39.5735C31.2682 39.5492 31.1581 39.4892 31.0716 39.4012C30.9852 39.3131 30.9263 39.201 30.9025 39.0788C30.8787 38.9567 30.8909 38.8301 30.9377 38.7151C30.9844 38.6 31.0636 38.5017 31.1653 38.4325C31.2669 38.3633 31.3864 38.3264 31.5086 38.3264C31.5898 38.3264 31.6701 38.3427 31.7451 38.3743C31.8201 38.406 31.8882 38.4524 31.9456 38.5108C32.003 38.5693 32.0485 38.6387 32.0795 38.7151C32.1106 38.7915 32.1266 38.8733 32.1266 38.956Z" fill="black"/>
<path d="M32.9922 38.956C32.9922 38.8315 33.0284 38.7098 33.0963 38.6062C33.1642 38.5027 33.2608 38.422 33.3737 38.3743C33.4866 38.3267 33.6109 38.3142 33.7307 38.3385C33.8506 38.3628 33.9607 38.4228 34.0471 38.5108C34.1336 38.5989 34.1924 38.7111 34.2163 38.8332C34.2401 38.9553 34.2279 39.0819 34.1811 39.1969C34.1343 39.312 34.0551 39.4103 33.9535 39.4795C33.8519 39.5487 33.7324 39.5856 33.6102 39.5856C33.4463 39.5856 33.2891 39.5193 33.1732 39.4012C33.0573 39.2831 32.9922 39.123 32.9922 38.956Z" fill="black"/>
<path d="M36.2828 38.956C36.2828 39.0805 36.2466 39.2023 36.1787 39.3058C36.1108 39.4093 36.0143 39.49 35.9013 39.5377C35.7884 39.5853 35.6642 39.5978 35.5443 39.5735C35.4244 39.5492 35.3143 39.4892 35.2279 39.4012C35.1415 39.3131 35.0826 39.201 35.0587 39.0788C35.0349 38.9567 35.0471 38.8301 35.0939 38.7151C35.1407 38.6 35.2199 38.5017 35.3215 38.4325C35.4231 38.3633 35.5426 38.3264 35.6649 38.3264C35.746 38.3264 35.8264 38.3427 35.9013 38.3743C35.9763 38.406 36.0444 38.4524 36.1018 38.5108C36.1592 38.5693 36.2047 38.6387 36.2358 38.7151C36.2668 38.7915 36.2828 38.8733 36.2828 38.956Z" fill="black"/>
<path d="M38.2906 38.956C38.2928 39.0392 38.2782 39.1221 38.2479 39.1994C38.2176 39.2768 38.1722 39.3471 38.1144 39.406C38.0566 39.4649 37.9876 39.5112 37.9116 39.542C37.8357 39.5729 37.7544 39.5877 37.6727 39.5856C37.5088 39.5856 37.3516 39.5192 37.2357 39.4012C37.1198 39.2831 37.0547 39.1229 37.0547 38.956C37.0547 38.789 37.1198 38.6289 37.2357 38.5108C37.3516 38.3927 37.5088 38.3264 37.6727 38.3264C37.7544 38.3242 37.8357 38.339 37.9116 38.3699C37.9876 38.4008 38.0566 38.4471 38.1144 38.506C38.1722 38.5649 38.2176 38.6351 38.2479 38.7125C38.2782 38.7899 38.2928 38.8727 38.2906 38.956Z" fill="black"/>
<path d="M29.1578 40.6243C29.1578 40.7489 29.1216 40.8706 29.0537 40.9741C28.9858 41.0777 28.8893 41.1584 28.7763 41.206C28.6634 41.2537 28.5392 41.2661 28.4193 41.2418C28.2994 41.2175 28.1893 41.1576 28.1029 41.0695C28.0165 40.9815 27.9576 40.8693 27.9337 40.7472C27.9099 40.625 27.9221 40.4984 27.9689 40.3834C28.0157 40.2684 28.0949 40.17 28.1965 40.1009C28.2981 40.0317 28.4176 39.9948 28.5399 39.9948C28.7038 39.9948 28.8609 40.0611 28.9768 40.1792C29.0927 40.2972 29.1578 40.4574 29.1578 40.6243Z" fill="black"/>
<path d="M31.1651 40.6244C31.1682 40.7533 31.1332 40.8802 31.0648 40.9887C30.9964 41.0972 30.8977 41.1824 30.7813 41.2331C30.6649 41.2839 30.5363 41.298 30.412 41.2736C30.2877 41.2492 30.1735 41.1875 30.084 41.0963C29.9945 41.0051 29.9338 40.8887 29.9099 40.762C29.8859 40.6354 29.8998 40.5044 29.9496 40.3858C29.9995 40.2673 30.083 40.1667 30.1895 40.097C30.296 40.0273 30.4206 39.9917 30.5471 39.9948C30.711 39.9948 30.8682 40.0611 30.9841 40.1792C31.1 40.2973 31.1651 40.4574 31.1651 40.6244Z" fill="black"/>
<path d="M32.9938 40.6243C32.9938 40.7489 32.9575 40.8706 32.8896 40.9741C32.8217 41.0777 32.7252 41.1584 32.6123 41.206C32.4994 41.2537 32.3751 41.2661 32.2552 41.2418C32.1354 41.2175 32.0252 41.1576 31.9388 41.0695C31.8524 40.9815 31.7935 40.8693 31.7697 40.7472C31.7458 40.625 31.7581 40.4984 31.8049 40.3834C31.8516 40.2684 31.9308 40.17 32.0325 40.1009C32.1341 40.0317 32.2536 39.9948 32.3758 39.9948C32.5397 39.9948 32.6969 40.0611 32.8128 40.1792C32.9287 40.2972 32.9938 40.4574 32.9938 40.6243Z" fill="black"/>
<path d="M33.8596 40.6244C33.8575 40.5412 33.872 40.4583 33.9023 40.381C33.9326 40.3036 33.978 40.2333 34.0359 40.1744C34.0937 40.1155 34.1626 40.0692 34.2386 40.0384C34.3145 40.0075 34.3958 39.9927 34.4776 39.9948C34.6415 39.9948 34.7986 40.0612 34.9145 40.1792C35.0304 40.2973 35.0955 40.4575 35.0955 40.6244C35.0955 40.7914 35.0304 40.9515 34.9145 41.0696C34.7986 41.1877 34.6415 41.254 34.4776 41.254C34.3958 41.2562 34.3145 41.2414 34.2386 41.2105C34.1626 41.1796 34.0937 41.1333 34.0359 41.0744C33.978 41.0155 33.9326 40.9453 33.9023 40.8679C33.872 40.7905 33.8575 40.7077 33.8596 40.6244Z" fill="black"/>
<path d="M37.1964 40.6244C37.1994 40.7527 37.1649 40.879 37.0972 40.9871C37.0295 41.0953 36.9317 41.1805 36.8162 41.2317C36.7008 41.283 36.573 41.298 36.4491 41.2749C36.3252 41.2518 36.2109 41.1917 36.1208 41.1021C36.0306 41.0125 35.9688 40.8975 35.943 40.772C35.9173 40.6464 35.9289 40.5158 35.9764 40.397C36.0238 40.2781 36.105 40.1764 36.2095 40.1048C36.3139 40.0331 36.437 39.9949 36.5629 39.9948C36.6454 39.9927 36.7274 40.0075 36.8042 40.0382C36.8809 40.0689 36.9509 40.1149 37.0099 40.1736C37.069 40.2322 37.1159 40.3024 37.1479 40.3798C37.1799 40.4572 37.1964 40.5404 37.1964 40.6244Z" fill="black"/>
<path d="M39.1735 40.6243C39.1735 40.7489 39.1372 40.8706 39.0693 40.9741C39.0014 41.0777 38.9049 41.1584 38.792 41.206C38.679 41.2537 38.5548 41.2661 38.4349 41.2418C38.315 41.2175 38.2049 41.1576 38.1185 41.0695C38.0321 40.9815 37.9732 40.8693 37.9494 40.7472C37.9255 40.625 37.9378 40.4984 37.9845 40.3834C38.0313 40.2684 38.1105 40.17 38.2121 40.1009C38.3138 40.0317 38.4333 39.9948 38.5555 39.9948C38.7194 39.9948 38.8766 40.0611 38.9925 40.1792C39.1083 40.2972 39.1735 40.4574 39.1735 40.6243Z" fill="black"/>
<path d="M30.1654 42.6234C30.1624 42.7472 30.1236 42.8673 30.0539 42.9687C29.9842 43.0702 29.8866 43.1484 29.7735 43.1937C29.6603 43.2389 29.5366 43.2492 29.4177 43.2231C29.2989 43.1971 29.1902 43.1359 29.1053 43.0473C29.0204 42.9586 28.9631 42.8465 28.9405 42.7248C28.9179 42.6031 28.931 42.4773 28.9782 42.3632C29.0254 42.2491 29.1045 42.1516 29.2058 42.0831C29.3071 42.0146 29.4259 41.9781 29.5475 41.978C29.6299 41.978 29.7116 41.9948 29.7876 42.0274C29.8636 42.06 29.9324 42.1078 29.99 42.168C30.0476 42.2281 30.0928 42.2994 30.1229 42.3776C30.153 42.4558 30.1675 42.5394 30.1654 42.6234Z" fill="black"/>
<path d="M32.0326 42.6234C32.0296 42.7472 31.9908 42.8673 31.9211 42.9687C31.8513 43.0702 31.7538 43.1484 31.6406 43.1937C31.5275 43.2389 31.4037 43.2492 31.2849 43.2231C31.1661 43.1971 31.0574 43.1359 30.9725 43.0473C30.8876 42.9586 30.8303 42.8465 30.8077 42.7248C30.785 42.6031 30.7982 42.4773 30.8453 42.3632C30.8925 42.2491 30.9717 42.1516 31.073 42.0831C31.1743 42.0146 31.2931 41.9781 31.4147 41.978C31.4971 41.978 31.5788 41.9948 31.6548 42.0274C31.7308 42.06 31.7996 42.1078 31.8572 42.168C31.9148 42.2281 31.96 42.2994 31.9901 42.3776C32.0202 42.4558 32.0347 42.5394 32.0326 42.6234Z" fill="black"/>
<path d="M32.8516 42.6234C32.8516 42.4988 32.8878 42.3771 32.9557 42.2736C33.0236 42.17 33.1201 42.0894 33.233 42.0417C33.346 41.994 33.4702 41.9816 33.5901 42.0059C33.71 42.0302 33.8201 42.0901 33.9065 42.1782C33.9929 42.2662 34.0518 42.3784 34.0756 42.5005C34.0995 42.6227 34.0873 42.7493 34.0405 42.8643C33.9937 42.9793 33.9145 43.0777 33.8129 43.1469C33.7112 43.216 33.5918 43.253 33.4695 43.253C33.3884 43.253 33.308 43.2367 33.233 43.205C33.1581 43.1734 33.0899 43.127 33.0326 43.0686C32.9752 43.0101 32.9297 42.9407 32.8986 42.8643C32.8675 42.7879 32.8516 42.706 32.8516 42.6234Z" fill="black"/>
<path d="M36.1889 42.6234C36.1858 42.7472 36.147 42.8673 36.0773 42.9687C36.0076 43.0702 35.91 43.1484 35.7969 43.1937C35.6837 43.2389 35.56 43.2492 35.4412 43.2231C35.3223 43.1971 35.2137 43.1359 35.1288 43.0473C35.0439 42.9586 34.9865 42.8465 34.9639 42.7248C34.9413 42.6031 34.9544 42.4773 35.0016 42.3632C35.0488 42.2491 35.128 42.1516 35.2292 42.0831C35.3305 42.0146 35.4494 41.9781 35.5709 41.978C35.6534 41.978 35.735 41.9948 35.811 42.0274C35.887 42.06 35.9558 42.1078 36.0134 42.168C36.071 42.2281 36.1162 42.2994 36.1464 42.3776C36.1765 42.4558 36.1909 42.5394 36.1889 42.6234Z" fill="black"/>
<path d="M38.1967 42.6234C38.1937 42.7472 38.1549 42.8673 38.0851 42.9687C38.0154 43.0702 37.9179 43.1484 37.8047 43.1937C37.6915 43.2389 37.5678 43.2492 37.449 43.2231C37.3301 43.1971 37.2215 43.1359 37.1366 43.0473C37.0517 42.9586 36.9944 42.8465 36.9717 42.7248C36.9491 42.6031 36.9622 42.4773 37.0094 42.3632C37.0566 42.2491 37.1358 42.1516 37.2371 42.0831C37.3383 42.0146 37.4572 41.9781 37.5787 41.978C37.6612 41.978 37.7428 41.9948 37.8188 42.0274C37.8948 42.06 37.9637 42.1078 38.0213 42.168C38.0788 42.2281 38.124 42.2994 38.1542 42.3776C38.1843 42.4558 38.1988 42.5394 38.1967 42.6234Z" fill="black"/>
<path d="M29.1578 44.764C29.1578 44.8885 29.1216 45.0102 29.0537 45.1138C28.9858 45.2173 28.8893 45.298 28.7763 45.3457C28.6634 45.3933 28.5392 45.4058 28.4193 45.3815C28.2994 45.3572 28.1893 45.2972 28.1029 45.2092C28.0165 45.1211 27.9576 45.0089 27.9337 44.8868C27.9099 44.7647 27.9221 44.6381 27.9689 44.5231C28.0157 44.408 28.0949 44.3097 28.1965 44.2405C28.2981 44.1713 28.4176 44.1344 28.5399 44.1344C28.7038 44.1344 28.8609 44.2007 28.9768 44.3188C29.0927 44.4369 29.1578 44.597 29.1578 44.764Z" fill="black"/>
<path d="M31.1651 44.7639C31.1682 44.8929 31.1332 45.0198 31.0648 45.1283C30.9964 45.2368 30.8977 45.3219 30.7813 45.3727C30.6649 45.4235 30.5363 45.4376 30.412 45.4132C30.2877 45.3888 30.1735 45.327 30.084 45.2358C29.9945 45.1446 29.9338 45.0282 29.9099 44.9016C29.8859 44.7749 29.8998 44.6439 29.9496 44.5254C29.9995 44.4068 30.083 44.3062 30.1895 44.2365C30.296 44.1668 30.4206 44.1312 30.5471 44.1343C30.711 44.1343 30.8682 44.2007 30.9841 44.3187C31.1 44.4368 31.1651 44.597 31.1651 44.7639Z" fill="black"/>
<path d="M32.9938 44.764C32.9938 44.8885 32.9575 45.0102 32.8896 45.1138C32.8217 45.2173 32.7252 45.298 32.6123 45.3457C32.4994 45.3933 32.3751 45.4058 32.2552 45.3815C32.1354 45.3572 32.0252 45.2972 31.9388 45.2092C31.8524 45.1211 31.7935 45.0089 31.7697 44.8868C31.7458 44.7647 31.7581 44.6381 31.8049 44.5231C31.8516 44.408 31.9308 44.3097 32.0325 44.2405C32.1341 44.1713 32.2536 44.1344 32.3758 44.1344C32.5397 44.1344 32.6969 44.2007 32.8128 44.3188C32.9287 44.4369 32.9938 44.597 32.9938 44.764Z" fill="black"/>
<path d="M33.8596 44.764C33.8575 44.6807 33.872 44.5978 33.9023 44.5205C33.9326 44.4431 33.978 44.3728 34.0359 44.3139C34.0937 44.255 34.1626 44.2088 34.2386 44.1779C34.3145 44.147 34.3958 44.1322 34.4776 44.1344C34.6415 44.1344 34.7986 44.2007 34.9145 44.3188C35.0304 44.4368 35.0955 44.597 35.0955 44.764C35.0955 44.9309 35.0304 45.0911 34.9145 45.2091C34.7986 45.3272 34.6415 45.3935 34.4776 45.3935C34.3958 45.3957 34.3145 45.3809 34.2386 45.35C34.1626 45.3192 34.0937 45.2729 34.0359 45.214C33.978 45.1551 33.9326 45.0848 33.9023 45.0074C33.872 44.9301 33.8575 44.8472 33.8596 44.764Z" fill="black"/>
<path d="M37.1964 44.7639C37.1994 44.8922 37.1649 45.0185 37.0972 45.1267C37.0295 45.2348 36.9317 45.32 36.8162 45.3713C36.7008 45.4225 36.573 45.4376 36.4491 45.4145C36.3252 45.3914 36.2109 45.3312 36.1208 45.2416C36.0306 45.152 35.9688 45.0371 35.943 44.9115C35.9173 44.7859 35.9289 44.6553 35.9764 44.5365C36.0238 44.4177 36.105 44.3159 36.2095 44.2443C36.3139 44.1727 36.437 44.1344 36.5629 44.1344C36.6454 44.1323 36.7274 44.147 36.8042 44.1777C36.8809 44.2084 36.9509 44.2544 37.0099 44.3131C37.069 44.3718 37.1159 44.4419 37.1479 44.5193C37.1799 44.5967 37.1964 44.6799 37.1964 44.7639Z" fill="black"/>
<path d="M39.1735 44.764C39.1735 44.8885 39.1372 45.0102 39.0693 45.1138C39.0014 45.2173 38.9049 45.298 38.792 45.3457C38.679 45.3933 38.5548 45.4058 38.4349 45.3815C38.315 45.3572 38.2049 45.2972 38.1185 45.2092C38.0321 45.1211 37.9732 45.0089 37.9494 44.8868C37.9255 44.7647 37.9378 44.6381 37.9845 44.5231C38.0313 44.408 38.1105 44.3097 38.2121 44.2405C38.3138 44.1713 38.4333 44.1344 38.5555 44.1344C38.7194 44.1344 38.8766 44.2007 38.9925 44.3188C39.1083 44.4369 39.1735 44.597 39.1735 44.764Z" fill="black"/>
<path d="M30.1656 46.7629C30.1656 46.8874 30.1294 47.0091 30.0615 47.1127C29.9936 47.2162 29.8971 47.2969 29.7842 47.3446C29.6712 47.3922 29.547 47.4047 29.4271 47.3804C29.3072 47.3561 29.1971 47.2961 29.1107 47.2081C29.0243 47.12 28.9654 47.0078 28.9416 46.8857C28.9177 46.7636 28.93 46.637 28.9767 46.522C29.0235 46.4069 29.1027 46.3086 29.2043 46.2394C29.306 46.1702 29.4254 46.1333 29.5477 46.1333C29.7116 46.1333 29.8687 46.1996 29.9846 46.3177C30.1005 46.4358 30.1656 46.5959 30.1656 46.7629Z" fill="black"/>
<path d="M32.0328 46.7629C32.0328 46.8874 31.9966 47.0091 31.9287 47.1127C31.8608 47.2162 31.7643 47.2969 31.6513 47.3446C31.5384 47.3922 31.4142 47.4047 31.2943 47.3804C31.1744 47.3561 31.0643 47.2961 30.9779 47.2081C30.8915 47.12 30.8326 47.0078 30.8087 46.8857C30.7849 46.7636 30.7971 46.637 30.8439 46.522C30.8907 46.4069 30.9699 46.3086 31.0715 46.2394C31.1731 46.1702 31.2926 46.1333 31.4149 46.1333C31.5788 46.1333 31.7359 46.1996 31.8518 46.3177C31.9677 46.4358 32.0328 46.5959 32.0328 46.7629Z" fill="black"/>
<path d="M32.8516 46.7629C32.8516 46.6384 32.8878 46.5166 32.9557 46.4131C33.0236 46.3096 33.1201 46.2289 33.233 46.1812C33.346 46.1336 33.4702 46.1211 33.5901 46.1454C33.71 46.1697 33.8201 46.2297 33.9065 46.3177C33.9929 46.4058 34.0518 46.5179 34.0756 46.6401C34.0995 46.7622 34.0873 46.8888 34.0405 47.0038C33.9937 47.1189 33.9145 47.2172 33.8129 47.2864C33.7112 47.3556 33.5918 47.3925 33.4695 47.3925C33.3884 47.3925 33.308 47.3762 33.233 47.3446C33.1581 47.3129 33.0899 47.2665 33.0326 47.2081C32.9752 47.1496 32.9297 47.0802 32.8986 47.0038C32.8675 46.9274 32.8516 46.8456 32.8516 46.7629Z" fill="black"/>
<path d="M36.1891 46.7629C36.1891 46.8874 36.1528 47.0091 36.0849 47.1127C36.017 47.2162 35.9205 47.2969 35.8076 47.3446C35.6947 47.3922 35.5704 47.4047 35.4505 47.3804C35.3307 47.3561 35.2206 47.2961 35.1341 47.2081C35.0477 47.12 34.9888 47.0078 34.965 46.8857C34.9412 46.7636 34.9534 46.637 35.0002 46.522C35.0469 46.4069 35.1261 46.3086 35.2278 46.2394C35.3294 46.1702 35.4489 46.1333 35.5711 46.1333C35.735 46.1333 35.8922 46.1996 36.0081 46.3177C36.124 46.4358 36.1891 46.5959 36.1891 46.7629Z" fill="black"/>
<path d="M38.1969 46.7629C38.1969 46.8874 38.1606 47.0091 38.0927 47.1127C38.0248 47.2162 37.9283 47.2969 37.8154 47.3446C37.7025 47.3922 37.5782 47.4047 37.4584 47.3804C37.3385 47.3561 37.2284 47.2961 37.1419 47.2081C37.0555 47.12 36.9967 47.0078 36.9728 46.8857C36.949 46.7636 36.9612 46.637 37.008 46.522C37.0548 46.4069 37.134 46.3086 37.2356 46.2394C37.3372 46.1702 37.4567 46.1333 37.5789 46.1333C37.7428 46.1333 37.9 46.1996 38.0159 46.3177C38.1318 46.4358 38.1969 46.5959 38.1969 46.7629Z" fill="black"/>
<path d="M29.1578 48.7304C29.1578 48.8549 29.1216 48.9767 29.0537 49.0802C28.9858 49.1837 28.8893 49.2644 28.7763 49.3121C28.6634 49.3597 28.5392 49.3722 28.4193 49.3479C28.2994 49.3236 28.1893 49.2637 28.1029 49.1756C28.0165 49.0876 27.9576 48.9754 27.9337 48.8532C27.9099 48.7311 27.9221 48.6045 27.9689 48.4895C28.0157 48.3744 28.0949 48.2761 28.1965 48.2069C28.2981 48.1378 28.4176 48.1008 28.5399 48.1008C28.7038 48.1008 28.8609 48.1672 28.9768 48.2852C29.0927 48.4033 29.1578 48.5634 29.1578 48.7304Z" fill="black"/>
<path d="M31.1651 48.7304C31.1682 48.8593 31.1332 48.9862 31.0648 49.0947C30.9964 49.2032 30.8977 49.2883 30.7813 49.3391C30.6649 49.3899 30.5363 49.404 30.412 49.3796C30.2877 49.3552 30.1735 49.2934 30.084 49.2022C29.9945 49.111 29.9338 48.9946 29.9099 48.868C29.8859 48.7414 29.8998 48.6103 29.9496 48.4918C29.9995 48.3733 30.083 48.2726 30.1895 48.203C30.296 48.1333 30.4206 48.0977 30.5471 48.1008C30.711 48.1008 30.8682 48.1671 30.9841 48.2852C31.1 48.4032 31.1651 48.5634 31.1651 48.7304Z" fill="black"/>
<path d="M32.9938 48.7304C32.9938 48.8549 32.9575 48.9767 32.8896 49.0802C32.8217 49.1837 32.7252 49.2644 32.6123 49.3121C32.4994 49.3597 32.3751 49.3722 32.2552 49.3479C32.1354 49.3236 32.0252 49.2637 31.9388 49.1756C31.8524 49.0876 31.7935 48.9754 31.7697 48.8532C31.7458 48.7311 31.7581 48.6045 31.8049 48.4895C31.8516 48.3744 31.9308 48.2761 32.0325 48.2069C32.1341 48.1378 32.2536 48.1008 32.3758 48.1008C32.5397 48.1008 32.6969 48.1672 32.8128 48.2852C32.9287 48.4033 32.9938 48.5634 32.9938 48.7304Z" fill="black"/>
<path d="M33.8553 48.7304C33.8451 48.6376 33.8558 48.5436 33.8866 48.4557C33.9173 48.3677 33.9674 48.2881 34.033 48.2228C34.0985 48.1575 34.1778 48.1084 34.2648 48.079C34.3518 48.0497 34.4443 48.041 34.5351 48.0535C34.699 48.0535 34.8562 48.1199 34.9721 48.238C35.088 48.356 35.1531 48.5162 35.1531 48.6831C35.1531 48.8501 35.088 49.0103 34.9721 49.1283C34.8562 49.2464 34.699 49.3127 34.5351 49.3127C34.4534 49.3149 34.3721 49.3001 34.2961 49.2692C34.2202 49.2383 34.1512 49.192 34.0934 49.1331C34.0356 49.0742 33.9901 49.004 33.9598 48.9266C33.9295 48.8492 33.915 48.7664 33.9171 48.6831" fill="black"/>
<path d="M37.1964 48.7304C37.1994 48.8586 37.1649 48.9849 37.0972 49.0931C37.0295 49.2013 36.9317 49.2864 36.8162 49.3377C36.7008 49.389 36.573 49.404 36.4491 49.3809C36.3252 49.3578 36.2109 49.2976 36.1208 49.208C36.0306 49.1184 35.9688 49.0035 35.943 48.8779C35.9173 48.7523 35.9289 48.6218 35.9764 48.5029C36.0238 48.3841 36.105 48.2824 36.2095 48.2107C36.3139 48.1391 36.437 48.1008 36.5629 48.1008C36.6454 48.0987 36.7274 48.1134 36.8042 48.1441C36.8809 48.1748 36.9509 48.2209 37.0099 48.2795C37.069 48.3382 37.1159 48.4083 37.1479 48.4857C37.1799 48.5632 37.1964 48.6464 37.1964 48.7304Z" fill="black"/>
<path d="M39.1735 48.7304C39.1735 48.8549 39.1372 48.9767 39.0693 49.0802C39.0014 49.1837 38.9049 49.2644 38.792 49.3121C38.679 49.3597 38.5548 49.3722 38.4349 49.3479C38.315 49.3236 38.2049 49.2637 38.1185 49.1756C38.0321 49.0876 37.9732 48.9754 37.9494 48.8532C37.9255 48.7311 37.9378 48.6045 37.9845 48.4895C38.0313 48.3744 38.1105 48.2761 38.2121 48.2069C38.3138 48.1378 38.4333 48.1008 38.5555 48.1008C38.7194 48.1008 38.8766 48.1672 38.9925 48.2852C39.1083 48.4033 39.1735 48.5634 39.1735 48.7304Z" fill="black"/>
<path d="M30.1656 50.7293C30.1656 50.8538 30.1294 50.9756 30.0615 51.0791C29.9936 51.1826 29.8971 51.2633 29.7842 51.311C29.6712 51.3586 29.547 51.3711 29.4271 51.3468C29.3072 51.3225 29.1971 51.2626 29.1107 51.1745C29.0243 51.0865 28.9654 50.9743 28.9416 50.8522C28.9177 50.73 28.93 50.6034 28.9767 50.4884C29.0235 50.3733 29.1027 50.275 29.2043 50.2058C29.306 50.1367 29.4254 50.0997 29.5477 50.0997C29.7116 50.0997 29.8687 50.1661 29.9846 50.2841C30.1005 50.4022 30.1656 50.5623 30.1656 50.7293Z" fill="black"/>
<path d="M32.0328 50.7293C32.0328 50.8538 31.9966 50.9756 31.9287 51.0791C31.8608 51.1826 31.7643 51.2633 31.6513 51.311C31.5384 51.3586 31.4142 51.3711 31.2943 51.3468C31.1744 51.3225 31.0643 51.2626 30.9779 51.1745C30.8915 51.0865 30.8326 50.9743 30.8087 50.8522C30.7849 50.73 30.7971 50.6034 30.8439 50.4884C30.8907 50.3733 30.9699 50.275 31.0715 50.2058C31.1731 50.1367 31.2926 50.0997 31.4149 50.0997C31.5788 50.0997 31.7359 50.1661 31.8518 50.2841C31.9677 50.4022 32.0328 50.5623 32.0328 50.7293Z" fill="black"/>
<path d="M32.8516 50.7293C32.8516 50.6048 32.8878 50.4831 32.9557 50.3795C33.0236 50.276 33.1201 50.1953 33.233 50.1477C33.346 50.1 33.4702 50.0875 33.5901 50.1118C33.71 50.1361 33.8201 50.1961 33.9065 50.2841C33.9929 50.3722 34.0518 50.4844 34.0756 50.6065C34.0995 50.7286 34.0873 50.8552 34.0405 50.9703C33.9937 51.0853 33.9145 51.1836 33.8129 51.2528C33.7112 51.322 33.5918 51.3589 33.4695 51.3589C33.3884 51.3589 33.308 51.3426 33.233 51.311C33.1581 51.2793 33.0899 51.233 33.0326 51.1745C32.9752 51.116 32.9297 51.0466 32.8986 50.9703C32.8675 50.8939 32.8516 50.812 32.8516 50.7293Z" fill="black"/>
<path d="M36.1891 50.7293C36.1891 50.8538 36.1528 50.9756 36.0849 51.0791C36.017 51.1826 35.9205 51.2633 35.8076 51.311C35.6947 51.3586 35.5704 51.3711 35.4505 51.3468C35.3307 51.3225 35.2206 51.2626 35.1341 51.1745C35.0477 51.0865 34.9888 50.9743 34.965 50.8522C34.9412 50.73 34.9534 50.6034 35.0002 50.4884C35.0469 50.3733 35.1261 50.275 35.2278 50.2058C35.3294 50.1367 35.4489 50.0997 35.5711 50.0997C35.735 50.0997 35.8922 50.1661 36.0081 50.2841C36.124 50.4022 36.1891 50.5623 36.1891 50.7293Z" fill="black"/>
<path d="M38.1969 50.7293C38.1969 50.8538 38.1606 50.9756 38.0927 51.0791C38.0248 51.1826 37.9283 51.2633 37.8154 51.311C37.7025 51.3586 37.5782 51.3711 37.4584 51.3468C37.3385 51.3225 37.2284 51.2626 37.1419 51.1745C37.0555 51.0865 36.9967 50.9743 36.9728 50.8522C36.949 50.73 36.9612 50.6034 37.008 50.4884C37.0548 50.3733 37.134 50.275 37.2356 50.2058C37.3372 50.1367 37.4567 50.0997 37.5789 50.0997C37.7428 50.0997 37.9 50.1661 38.0159 50.2841C38.1318 50.4022 38.1969 50.5623 38.1969 50.7293Z" fill="black"/>
<path d="M29.1578 52.8699C29.1578 52.9526 29.1418 53.0345 29.1108 53.1109C29.0797 53.1873 29.0342 53.2567 28.9768 53.3151C28.9194 53.3736 28.8513 53.42 28.7763 53.4516C28.7014 53.4833 28.621 53.4995 28.5399 53.4995C28.4587 53.4995 28.3783 53.4833 28.3034 53.4516C28.2284 53.42 28.1603 53.3736 28.1029 53.3151C28.0455 53.2567 28 53.1873 27.9689 53.1109C27.9379 53.0345 27.9219 52.9526 27.9219 52.8699C27.9219 52.703 27.987 52.5428 28.1029 52.4248C28.2188 52.3067 28.376 52.2404 28.5399 52.2404C28.7038 52.2404 28.8609 52.3067 28.9768 52.4248C29.0927 52.5428 29.1578 52.703 29.1578 52.8699Z" fill="black"/>
<path d="M31.1654 52.8699C31.1796 52.962 31.1741 53.0562 31.1492 53.1459C31.1243 53.2356 31.0807 53.3188 31.0212 53.3897C30.9617 53.4606 30.8879 53.5175 30.8048 53.5565C30.7216 53.5955 30.6312 53.6157 30.5397 53.6157C30.4482 53.6157 30.3577 53.5955 30.2746 53.5565C30.1915 53.5175 30.1176 53.4606 30.0582 53.3897C29.9987 53.3188 29.955 53.2356 29.9301 53.1459C29.9052 53.0562 29.8997 52.962 29.914 52.8699C29.9375 52.7181 30.0134 52.5797 30.1281 52.4798C30.2428 52.38 30.3888 52.3251 30.5397 52.3251C30.6906 52.3251 30.8365 52.38 30.9512 52.4798C31.0659 52.5797 31.1419 52.7181 31.1654 52.8699Z" fill="black"/>
<path d="M32.9938 52.8699C32.9938 53.0369 32.9287 53.1971 32.8128 53.3151C32.6969 53.4332 32.5397 53.4995 32.3758 53.4995C32.2119 53.4995 32.0547 53.4332 31.9388 53.3151C31.8229 53.1971 31.7578 53.0369 31.7578 52.8699C31.7578 52.703 31.8229 52.5428 31.9388 52.4248C32.0547 52.3067 32.2119 52.2404 32.3758 52.2404C32.5397 52.2404 32.6969 52.3067 32.8128 52.4248C32.9287 52.5428 32.9938 52.703 32.9938 52.8699Z" fill="black"/>
<path d="M33.8596 52.8699C33.8575 52.7866 33.872 52.7038 33.9023 52.6264C33.9326 52.5491 33.978 52.4788 34.0359 52.4199C34.0937 52.361 34.1626 52.3147 34.2386 52.2838C34.3145 52.253 34.3958 52.2382 34.4776 52.2403C34.6415 52.2403 34.7986 52.3067 34.9145 52.4247C35.0304 52.5428 35.0955 52.7029 35.0955 52.8699C35.0956 53.0384 35.031 53.2002 34.9155 53.3208C34.8 53.4413 34.6429 53.5111 34.4776 53.5152C34.3951 53.5153 34.3134 53.4985 34.2374 53.4659C34.1614 53.4332 34.0926 53.3854 34.035 53.3253C33.9774 53.2652 33.9322 53.1939 33.9021 53.1157C33.872 53.0375 33.8575 52.9539 33.8596 52.8699Z" fill="black"/>
<path d="M37.1966 52.8699C37.2109 52.962 37.2054 53.0562 37.1805 53.1459C37.1556 53.2356 37.1119 53.3188 37.0524 53.3897C36.993 53.4606 36.9191 53.5175 36.836 53.5565C36.7529 53.5955 36.6624 53.6157 36.5709 53.6157C36.4794 53.6157 36.389 53.5955 36.3058 53.5565C36.2227 53.5175 36.1489 53.4606 36.0894 53.3897C36.03 53.3188 35.9863 53.2356 35.9614 53.1459C35.9365 53.0562 35.931 52.962 35.9452 52.8699C35.9687 52.7181 36.0447 52.5797 36.1594 52.4798C36.2741 52.38 36.42 52.3251 36.5709 52.3251C36.7218 52.3251 36.8678 52.38 36.9825 52.4798C37.0972 52.5797 37.1731 52.7181 37.1966 52.8699Z" fill="black"/>
<path d="M39.1735 52.8699C39.1735 53.0369 39.1083 53.1971 38.9925 53.3151C38.8766 53.4332 38.7194 53.4995 38.5555 53.4995C38.3916 53.4995 38.2344 53.4332 38.1185 53.3151C38.0026 53.1971 37.9375 53.0369 37.9375 52.8699C37.9375 52.703 38.0026 52.5428 38.1185 52.4248C38.2344 52.3067 38.3916 52.2404 38.5555 52.2404C38.7194 52.2404 38.8766 52.3067 38.9925 52.4248C39.1083 52.5428 39.1735 52.703 39.1735 52.8699Z" fill="black"/>
</svg>
