<svg width="75" height="75" viewBox="0 0 75 75" fill="none" xmlns="http://www.w3.org/2000/svg">
<path d="M48.4873 12.6633H19.6641V62.3365H55.3326V57.5839H23.9735V30.8336H44.4298L48.4873 12.6633Z" stroke="#2D2D2D" stroke-miterlimit="10"/>
<path d="M24.0625 12.6633V15.7456H47.8006" stroke="#2D2D2D" stroke-miterlimit="10"/>
<path d="M26.3403 23.9958C27.6933 23.9958 28.7901 22.9143 28.7901 21.5803C28.7901 20.2463 27.6933 19.1648 26.3403 19.1648C24.9874 19.1648 23.8906 20.2463 23.8906 21.5803C23.8906 22.9143 24.9874 23.9958 26.3403 23.9958Z" stroke="#2D2D2D" stroke-miterlimit="10"/>
<path d="M35.0513 23.9958C36.4042 23.9958 37.501 22.9143 37.501 21.5803C37.501 20.2463 36.4042 19.1648 35.0513 19.1648C33.6983 19.1648 32.6016 20.2463 32.6016 21.5803C32.6016 22.9143 33.6983 23.9958 35.0513 23.9958Z" stroke="#2D2D2D" stroke-miterlimit="10"/>
<path d="M47.7975 37.9983V34.8311H27.5234L30.9643 38.1585" stroke="#2D2D2D" stroke-miterlimit="10"/>
<path d="M47.0434 38.0835H31.6655C29.8439 38.0835 28.3672 39.5396 28.3672 41.3358V50.7494C28.3672 52.5456 29.8439 54.0017 31.6655 54.0017H47.0434C48.865 54.0017 50.3418 52.5456 50.3418 50.7494V41.3358C50.3418 39.5396 48.865 38.0835 47.0434 38.0835Z" stroke="#2D2D2D" stroke-miterlimit="10"/>
<path d="M47.7969 37.0408H51.1118C52.4643 37.0408 53.8168 37.7501 53.8168 39.4171V49.1641C53.8168 50.161 53.6809 50.5369 53.1107 50.5369C52.6499 50.5369 52.388 50.1054 52.3814 49.1869C52.3814 48.6182 52.3814 40.986 52.3814 40.0185C52.3814 39.051 52.1195 38.4561 50.7505 38.443C49.3814 38.4299 48.2709 38.3155 48.2709 38.3155" stroke="#2D2D2D" stroke-miterlimit="10"/>
<path d="M37.6641 30.8337V34.8313" stroke="#2D2D2D" stroke-miterlimit="10"/>
<path d="M40.8828 30.8337V34.8313" stroke="#2D2D2D" stroke-miterlimit="10"/>
<path d="M27.5234 57.5841V54.0017H33.0196" stroke="#2D2D2D" stroke-miterlimit="10"/>
<path d="M51.2759 57.5841V54.0017H46.0781" stroke="#2D2D2D" stroke-miterlimit="10"/>
</svg>
