<svg width="51" height="35" viewBox="0 0 51 35" fill="none" xmlns="http://www.w3.org/2000/svg">
<rect x="0.5" y="0.343262" width="50" height="34.3137" rx="4" fill="#1F72CD"/>
<path fill-rule="evenodd" clip-rule="evenodd" d="M9.46375 12.4956L4.78564 22.8566H10.386L11.0803 21.2046H12.6672L13.3615 22.8566H19.5259V21.5957L20.0752 22.8566H23.2639L23.8132 21.5691V22.8566H36.6335L38.1924 21.2475L39.6521 22.8566L46.2368 22.8699L41.544 17.705L46.2368 12.4956H39.7542L38.2367 14.0749L36.823 12.4956H22.8762L21.6786 15.1699L20.4529 12.4956H14.8642V13.7135L14.2425 12.4956H9.46375ZM28.6085 13.9668H35.9705L38.2222 16.401L40.5465 13.9668H42.7982L39.377 17.7034L42.7982 21.397H40.4444L38.1927 18.9345L35.8565 21.397H28.6085V13.9668ZM30.4264 16.8643V15.5071V15.5058H35.0201L37.0245 17.6763L34.9312 19.8586H30.4264V18.377H34.4427V16.8643H30.4264ZM10.5477 13.9668H13.2775L16.3805 20.9926V13.9668H19.371L21.7677 19.0042L23.9765 13.9668H26.952V21.4014H25.1415L25.1267 15.5757L22.4871 21.4014H20.8675L18.2131 15.5757V21.4014H14.4884L13.7823 19.7347H9.96735L9.26268 21.4H7.26704L10.5477 13.9668ZM10.6186 18.1943L11.8755 15.2251L13.1309 18.1943H10.6186Z" fill="white"/>
</svg>
