<svg width="51" height="35" viewBox="0 0 51 35" fill="none" xmlns="http://www.w3.org/2000/svg">
<path d="M30.7421 7.13896L19.9575 7.18262L20.2584 27.8604L31.043 27.8168L30.7421 7.13896Z" fill="#FF5F00"/>
<path d="M20.6741 17.5586C20.6127 13.3533 22.4149 9.61595 25.2336 7.19098C23.1105 5.44421 20.4474 4.39443 17.5591 4.40609C10.7166 4.43371 5.26665 10.3434 5.37293 17.6203C5.47921 24.8972 11.1011 30.7623 17.9436 30.7346C20.8319 30.723 23.4641 29.6518 25.5359 27.8881C22.6473 25.5228 20.7355 21.7638 20.6741 17.5586Z" fill="#EB001B"/>
<path d="M45.6274 17.3794C45.7337 24.6563 40.2838 30.566 33.4413 30.5936C30.553 30.6053 27.8898 29.5555 25.7667 27.8088C28.6198 25.3837 30.3877 21.6464 30.3263 17.4412C30.2649 13.2359 28.3536 9.51353 25.4645 7.1116C27.5363 5.34789 30.1684 4.27675 33.0567 4.26509C39.8993 4.23747 45.5217 10.1391 45.6274 17.3794Z" fill="#F79E1B"/>
</svg>
