<svg width="46" height="45" viewBox="0 0 46 45" fill="none" xmlns="http://www.w3.org/2000/svg">
<path fill-rule="evenodd" clip-rule="evenodd" d="M12.5 0.00244141H34.9535C37.7389 0.00244141 40.3741 1.52255 42.2961 3.58647C44.216 5.64801 45.5 8.33264 45.5 10.7768V44.0024H12.5V16.5024H13.5V43.0024H44.5V10.7768C44.5 8.65454 43.3654 6.20201 41.5643 4.26797C39.7654 2.33632 37.3774 1.00244 34.9535 1.00244H13.5V7.00244H12.5V0.00244141Z" fill="black"/>
<path fill-rule="evenodd" clip-rule="evenodd" d="M37.2984 3.64413C36.8744 2.38937 36.157 1.38136 35.6416 0.850898L36.3588 0.154053C36.9684 0.781485 37.7698 1.91558 38.2458 3.32398C38.6632 4.5593 38.8367 6.02757 38.3871 7.55118C39.4128 7.6138 40.7251 7.81553 41.9482 8.2527C43.4556 8.79148 44.9536 9.73561 45.4759 11.3484L44.5245 11.6565C44.1469 10.4904 43.0198 9.69768 41.6116 9.19436C40.22 8.69696 38.6762 8.52879 37.6877 8.52879H36.9379L37.2261 7.83659C37.8432 6.35455 37.72 4.89175 37.2984 3.64413Z" fill="black"/>
<path fill-rule="evenodd" clip-rule="evenodd" d="M24 7.50244H1V15.5024H24V7.50244ZM0 6.50244V16.5024H25V6.50244H0Z" fill="black"/>
<path d="M8.37676 9.50244H7V13.5024H7.83125V12.2453H8.37676C9.09372 12.2453 9.64962 11.6339 9.64962 10.8739C9.64962 10.1139 9.09372 9.50244 8.37676 9.50244ZM8.37676 11.3882H7.83125V10.3596H8.37676C8.63133 10.3596 8.81837 10.5824 8.81837 10.8739C8.81837 11.1653 8.63133 11.3882 8.37676 11.3882Z" fill="black"/>
<path d="M12.0387 9.50244H10.584V13.5024H12.0387C13.0414 13.5024 13.8051 12.6339 13.8051 11.5024C13.8051 10.371 13.0414 9.50244 12.0387 9.50244ZM12.0387 12.6224H11.4152V10.3824H12.0387C12.6101 10.3824 13.005 10.8167 13.005 11.5024C13.005 12.1882 12.6101 12.6224 12.0387 12.6224Z" fill="black"/>
<path d="M17 10.3824V9.50244H14.792V13.5024H15.6232V12.0339H16.974V11.1539H15.6232V10.3824H17Z" fill="black"/>
<path fill-rule="evenodd" clip-rule="evenodd" d="M27.4934 17.6778C27.396 18.2441 27.4365 19.1728 27.7725 20.5981C27.9182 21.2158 28.1126 21.8134 28.3452 22.3887C28.5407 21.8919 28.768 21.2196 28.9329 20.52C29.1462 19.6146 29.2342 18.7474 29.0832 18.1565C28.998 17.8226 28.7765 17.4913 28.5054 17.2647C28.2204 17.0264 27.9821 16.9812 27.8611 17.0109C27.7925 17.0276 27.5905 17.1138 27.4934 17.6778ZM27.8736 23.7768C27.4185 22.8579 27.0454 21.8718 26.7992 20.8276C26.4507 19.3494 26.3772 18.268 26.5079 17.5082C26.639 16.7462 27.0074 16.1902 27.6234 16.0395C28.1869 15.9016 28.7473 16.1635 29.1468 16.4975C29.5603 16.8432 29.9092 17.3495 30.0521 17.909C30.2663 18.7475 30.1262 19.8159 29.9062 20.7494C29.6853 21.6866 29.3626 22.5726 29.1251 23.12C29.0708 23.2971 29.0123 23.486 28.9502 23.6851C29.7319 25.1607 30.7387 26.4537 31.7542 27.5139C32.268 28.0503 32.7813 28.5242 33.2641 28.929C33.918 28.7854 34.5233 28.6998 35.044 28.6998C35.8844 28.6998 36.5157 28.8438 36.9355 29.1275C37.3914 29.4356 37.5776 29.9026 37.4712 30.3714C37.3751 30.7943 37.0605 31.1372 36.6938 31.3356C36.3168 31.5395 35.8328 31.621 35.3453 31.4619C34.9252 31.3248 34.2741 30.9508 33.5372 30.4134C33.3689 30.2907 33.1942 30.158 33.0146 30.0157C32.7426 30.0845 32.4583 30.1633 32.1637 30.2512C31.0149 30.5941 29.7471 31.0625 28.4988 31.5624C27.561 31.9379 26.6383 32.3295 25.7899 32.6963C25.4914 33.401 25.2131 33.9853 24.9744 34.3746C23.5421 36.7111 21.4706 37.4073 20.2211 36.7958C19.8847 36.6312 19.6262 36.3557 19.5347 35.9849C19.4458 35.6242 19.5349 35.2549 19.7208 34.9274C20.0867 34.2828 20.8928 33.6674 22.084 33.2011C22.5636 33.0133 23.2732 32.7031 24.1364 32.3257C24.2789 32.2634 24.4257 32.1993 24.5762 32.1336C24.7216 32.0701 24.8703 32.0053 25.022 31.9394C25.3896 31.0414 25.7943 29.9549 26.1988 28.8099C26.8182 27.0563 27.4235 25.2062 27.8736 23.7768ZM26.319 31.3815C26.5906 30.6771 26.8689 29.915 27.1417 29.143C27.6412 27.729 28.131 26.2542 28.5389 24.9841C29.2869 26.2148 30.1624 27.2977 31.0321 28.2056C31.3867 28.5759 31.7416 28.9184 32.0882 29.2312C32.0183 29.2514 31.9481 29.272 31.8777 29.293C30.6877 29.6481 29.3886 30.1289 28.127 30.634C27.5116 30.8805 26.9032 31.1335 26.319 31.3815ZM24.4246 33.2912C23.6145 33.6453 22.9257 33.9454 22.4486 34.1322C21.358 34.5592 20.7951 35.0606 20.5905 35.421C20.4912 35.596 20.4948 35.7013 20.5056 35.7454C20.514 35.7794 20.5407 35.8389 20.6607 35.8976C21.2366 36.1795 22.8159 35.9824 24.1218 33.852C24.2146 33.7007 24.316 33.5119 24.4246 33.2912ZM34.3317 29.7523C34.9482 30.1847 35.4168 30.4333 35.6555 30.5112C35.8525 30.5755 36.0531 30.5452 36.218 30.456C36.3932 30.3613 36.4779 30.2296 36.496 30.15L36.4961 30.1496C36.5037 30.1158 36.5181 30.0524 36.3756 29.9561C36.1964 29.835 35.8009 29.6998 35.044 29.6998C34.8297 29.6998 34.5913 29.7179 34.3317 29.7523Z" fill="black"/>
</svg>
