<svg width="174" height="44" viewBox="0 0 174 44" fill="none" xmlns="http://www.w3.org/2000/svg">
<g clip-path="url(#clip0_772_10808)">
<path d="M170.804 30.3963V37.3298L165.988 30.3963H164.678V40.5696H166.355V33.6361L171.171 40.5696H172.481V30.3963H170.804ZM160.812 40.5696H162.489V30.3963H160.812V40.5696ZM153.401 31.9658H155.806C156.234 32.0025 156.632 32.1977 156.922 32.5128C157.213 32.8279 157.374 33.24 157.374 33.6676C157.374 34.0953 157.213 34.5074 156.922 34.8225C156.632 35.1376 156.234 35.3328 155.806 35.3695H153.401V31.9658ZM157.565 40.5822H159.407L157.084 36.6301C157.679 36.3949 158.189 35.9887 158.551 35.4633C158.913 34.938 159.109 34.3172 159.116 33.6802C159.117 33.2502 159.033 32.824 158.869 32.4264C158.704 32.0287 158.463 31.6674 158.157 31.3633C157.852 31.0592 157.489 30.8183 157.09 30.6545C156.691 30.4907 156.263 30.4072 155.831 30.4089H151.749V40.5822H153.426V36.8759H155.407L157.565 40.5822ZM145.541 38.9875V36.2393H149.623V34.6572H145.541V32.0099H149.971V30.3963H143.845V40.5696H150.041V38.9749L145.541 38.9875ZM137.061 40.5822H139.08L142.624 30.4089H140.801L138.048 38.5904L135.34 30.3963H133.517L137.061 40.5822ZM128.265 38.9875V36.2393H132.353V34.6572H128.265V32.0099H132.694V30.3963H126.556V40.5696H132.758V38.9749L128.265 38.9875ZM121.455 40.7713C123.581 40.7713 125.069 39.6367 125.069 37.7773C125.069 35.7603 123.366 35.256 121.67 34.7013C120.183 34.2349 119.614 33.9008 119.614 33.113C119.614 32.3251 120.246 31.8523 121.221 31.8523C121.684 31.8351 122.14 31.9635 122.525 32.2192C122.91 32.4749 123.204 32.845 123.366 33.2768L124.778 32.4574C124.472 31.7768 123.972 31.2013 123.339 30.8032C122.706 30.4051 121.969 30.2021 121.221 30.2198C119.5 30.2198 117.937 31.285 117.937 33.1571C117.937 35.0291 119.481 35.6783 121.101 36.1385C122.721 36.5986 123.417 36.9074 123.417 37.8088C123.417 38.5463 122.847 39.1451 121.518 39.1451C120.964 39.1882 120.411 39.0419 119.951 38.7303C119.491 38.4187 119.151 37.9603 118.987 37.4306L117.544 38.2752C118.082 39.7817 119.443 40.7965 121.487 40.7965L121.455 40.7713ZM111.361 33.3462L109.469 38.5904L107.292 33.321H105.571L108.653 40.4813L108.577 40.6326C108.216 41.5907 107.659 42.1138 106.64 42.0508V43.5194C108.317 43.6203 109.513 42.6937 110.197 40.8469L113 33.3525L111.361 33.3462ZM101.242 39.2774C100.779 39.2837 100.324 39.1526 99.9363 38.9009C99.5481 38.6491 99.2439 38.2881 99.0623 37.8637C98.8807 37.4393 98.8299 36.9707 98.9164 36.5174C99.0029 36.0642 99.2228 35.6468 99.5481 35.3184C99.8734 34.99 100.289 34.7653 100.743 34.673C101.197 34.5806 101.668 34.6248 102.097 34.7999C102.525 34.975 102.892 35.273 103.15 35.6562C103.408 36.0393 103.546 36.4902 103.546 36.9516C103.557 37.2574 103.505 37.5622 103.394 37.8474C103.283 38.1326 103.114 38.3921 102.898 38.6099C102.682 38.8278 102.424 38.9994 102.139 39.1142C101.855 39.229 101.549 39.2845 101.242 39.2774ZM101.489 33.1319C100.999 33.1139 100.513 33.2153 100.072 33.4273C99.6306 33.6393 99.2481 33.9555 98.9576 34.3484V30.3963H97.3818V40.5696H98.9576V39.5359C99.242 39.938 99.6221 40.2637 100.064 40.4837C100.506 40.7037 100.995 40.8112 101.489 40.7965C102.468 40.7404 103.388 40.3136 104.062 39.6034C104.735 38.8932 105.11 37.9535 105.11 36.9768C105.11 36.0001 104.735 35.0603 104.062 34.3502C103.388 33.64 102.468 33.2131 101.489 33.1571" fill="white"/>
<path d="M60.5249 4.0682V9.5141H71.9984C73.5109 9.5141 74.2892 9.21785 74.2892 7.85637V5.71962C74.2892 4.35814 73.5109 4.0682 71.9984 4.0682H60.5249ZM55.5508 0.519531H74.1437C77.4598 0.519531 78.9723 1.59107 78.9723 4.50312V9.07289C78.9723 11.9408 77.4598 13.0628 74.1437 13.0628H60.5249V21.0804H55.5508V0.519531Z" fill="white"/>
<path d="M90.0789 17.2418H104.406V0.519531H109.469V16.2206C109.469 20.0593 108.153 21.0804 104.052 21.0804H90.4207C86.3199 21.0804 85.0479 20.0593 85.0479 16.2206V0.519531H90.0789V17.2418Z" fill="white"/>
<path d="M120.557 4.0682V9.74102H132.024C133.536 9.74102 134.315 9.45106 134.315 8.08959V5.707C134.315 4.34552 133.536 4.05558 132.024 4.05558L120.557 4.0682ZM115.576 0.519531H134.15C137.472 0.519531 138.985 1.63519 138.985 4.50312V9.36914C138.985 12.1866 137.472 13.3023 134.15 13.3023H131.321L141.13 21.0804H133.929L125.29 13.3023H120.557V21.0804H115.576V0.519531Z" fill="white"/>
<path d="M168.475 4.30727H151.831V17.1594H168.475V4.30727ZM152.173 0.525391H168.133C172.184 0.525391 173.506 1.44566 173.506 5.38512V16.2265C173.506 20.1155 172.184 21.0862 168.133 21.0862H152.173C148.079 21.0862 146.807 20.1155 146.807 16.2265V5.38512C146.807 1.44566 148.123 0.525391 152.173 0.525391Z" fill="white"/>
<path d="M42.5332 8.46094H28.8828V11.9403H42.5332V8.46094Z" fill="white"/>
<path d="M49.5198 0.5H28.8828V4.07388H49.5198V0.5Z" fill="white"/>
<path d="M49.7603 16.8945H28.8828V20.6575H49.7603V16.8945Z" fill="white"/>
<path d="M18.15 8.33462H4.99318V4.0926H22.9532V0.474609H5.86651C1.89859 0.474609 0.556953 1.42638 0.556953 5.23978V7.4774C0.556953 11.2908 1.89859 12.2426 5.86651 12.2426H18.9727V16.8628H0.5V20.6446H0.85439H18.15C22.1748 20.6446 23.4152 19.6425 23.4152 15.8795V13.125C23.4152 9.31161 22.1495 8.35984 18.15 8.35984" fill="white"/>
</g>
<defs>
<clipPath id="clip0_772_10808">
<rect width="173" height="43" fill="white" transform="translate(0.5 0.5)"/>
</clipPath>
</defs>
</svg>
