<?xml version="1.0" encoding="UTF-8"?> <svg xmlns="http://www.w3.org/2000/svg" width="80" height="69" viewBox="0 0 80 69" fill="none"><path d="M52.7671 31.4307C51.7003 31.4307 50.6575 31.7585 49.7706 32.3726C48.8836 32.9868 48.1923 33.8597 47.7841 34.881C47.3759 35.9023 47.2691 37.0261 47.4772 38.1103C47.6853 39.1945 48.199 40.1904 48.9533 40.9721C49.7076 41.7538 50.6686 42.2861 51.7148 42.5018C52.7611 42.7174 53.8455 42.6067 54.8311 42.1837C55.8166 41.7607 56.659 41.0443 57.2516 40.1251C57.8443 39.206 58.1606 38.1254 58.1606 37.0199C58.1606 36.2859 58.0211 35.5591 57.75 34.881C57.479 34.2029 57.0817 33.5868 56.5809 33.0677C56.08 32.5487 55.4855 32.137 54.8311 31.8561C54.1767 31.5753 53.4754 31.4307 52.7671 31.4307Z" fill="white"></path><path d="M62.4629 26.1484C61.7717 26.1452 61.095 26.3547 60.5188 26.7503C59.9425 27.146 59.4925 27.71 59.2259 28.3709C58.9592 29.0318 58.8878 29.7598 59.0208 30.4628C59.1537 31.1658 59.4851 31.812 59.9728 32.3197C60.4605 32.8274 61.0826 33.1736 61.7604 33.3145C62.4381 33.4555 63.141 33.3848 63.7799 33.1114C64.4189 32.838 64.9652 32.3742 65.3495 31.7788C65.7339 31.1834 65.9391 30.4832 65.9391 29.7668C65.9391 28.81 65.5734 27.892 64.9219 27.2139C64.2704 26.5358 63.3863 26.1527 62.4629 26.1484Z" fill="white"></path><path d="M53.858 20.6238C53.1674 20.6238 52.4923 20.836 51.9181 21.2336C51.3438 21.6312 50.8963 22.1963 50.632 22.8575C50.3677 23.5187 50.2986 24.2463 50.4333 24.9482C50.568 25.6501 50.9006 26.2948 51.3889 26.8009C51.8773 27.3069 52.4994 27.6516 53.1768 27.7912C53.8541 27.9308 54.5562 27.8591 55.1942 27.5853C55.8323 27.3114 56.3776 26.8476 56.7613 26.2525C57.145 25.6575 57.3497 24.9579 57.3497 24.2422C57.3497 23.2826 56.9819 22.3622 56.327 21.6836C55.6722 21.005 54.784 20.6238 53.858 20.6238Z" fill="white"></path><path d="M32.206 42.9161C32.206 44.6797 31.7013 46.4037 30.7558 47.8701C29.8103 49.3364 28.4665 50.4793 26.8942 51.1542C25.3219 51.8291 23.5917 52.0057 21.9226 51.6617C20.2534 51.3176 18.7202 50.4684 17.5168 49.2213C16.3135 47.9742 15.4939 46.3854 15.1619 44.6557C14.8299 42.926 15.0003 41.1331 15.6516 39.5037C16.3028 37.8744 17.4057 36.4817 18.8208 35.5019C20.2358 34.5221 21.8994 33.9992 23.6013 33.9992C24.7313 33.9992 25.8502 34.2298 26.8942 34.6779C27.9381 35.126 28.8867 35.7829 29.6857 36.6109C30.4848 37.4389 31.1186 38.4219 31.551 39.5037C31.9834 40.5856 32.206 41.7451 32.206 42.9161Z" fill="white"></path><path d="M44.8635 18.653V50.5245V18.653ZM34.1076 18.7176V50.6538V18.7176ZM34.1076 18.5399V50.3792V18.5399ZM30.4444 43.013H48.1214H30.4444ZM29.4155 35.0653H49.1346H29.4155ZM29.9767 26.5522H48.4643H29.9767ZM39.2361 15.9715V53.2545V15.9715ZM49.1346 34.6615C49.1346 45.1938 44.7232 53.7392 39.2985 53.7392C33.8738 53.7392 29.4467 45.1938 29.4467 34.6615C29.4467 24.1292 33.8582 15.5838 39.2985 15.5838H39.8908C45.0505 16.2138 49.1346 24.5168 49.1346 34.6615Z" stroke="white" stroke-miterlimit="10"></path><path d="M40.6394 34.6615C40.6394 36.6322 40.0159 38.2315 39.2364 38.2315C38.457 38.2315 37.8335 36.6161 37.8335 34.6615C37.8335 32.7069 38.4726 31.1076 39.2364 31.1076C40.0003 31.1076 40.6394 32.723 40.6394 34.6615Z" fill="white"></path><path d="M40.6394 34.6615C40.6394 36.6322 40.0159 38.2315 39.2364 38.2315C38.457 38.2315 37.8335 36.6161 37.8335 34.6615C37.8335 32.7069 38.4726 31.1076 39.2364 31.1076C40.0003 31.1076 40.6394 32.6907 40.6394 34.6615Z" stroke="white" stroke-width="0.56" stroke-miterlimit="10"></path><path d="M39.5635 53.723C41.58 53.5349 43.5806 53.1948 45.5494 52.7053C50.2258 50.783 52.8135 43.1584 52.8135 34.0799C52.8135 23.5315 49.1035 15.5838 43.6788 15.5838C42.5401 15.5298 41.3991 15.5622 40.2649 15.6807" stroke="white" stroke-miterlimit="10"></path></svg> 