<?xml version="1.0" encoding="UTF-8"?> <svg xmlns="http://www.w3.org/2000/svg" width="100" height="100" viewBox="0 0 100 100" fill="none"><path d="M57.0364 61.4351C57.0364 61.4351 65.5074 57.2417 65.5074 49.695C65.5074 42.1482 60.9219 35.3496 50.6266 34.5369C46.171 34.2655 41.3514 36.1128 41.3514 36.1128L37.0975 33L35.7029 40.7395C35.7029 40.7395 33.7926 43.0476 33.5233 45.5838L30 45.59V53.387H33.8592C33.8592 53.387 36.0519 59.0466 41.6653 61.5076L40.0541 66.986H44.9808L47.734 62.8898C48.8741 63.1186 50.0441 63.1542 51.1958 62.995L53.7069 67.07L58.6301 67.0558L57.0364 61.4351Z" stroke="#2D2D2D" stroke-miterlimit="10"></path><path d="M50.717 39.2744C50.717 39.2744 59.159 39.0719 60.2037 47.4817" stroke="#2D2D2D" stroke-miterlimit="10"></path><path d="M70.9419 44.5176C70.9419 44.5176 71.0998 47.8285 65.5039 49.6952" stroke="#2D2D2D" stroke-miterlimit="10"></path></svg> 