<?xml version="1.0" encoding="UTF-8"?> <svg xmlns="http://www.w3.org/2000/svg" width="100" height="100" viewBox="0 0 100 100" fill="none"><path d="M37 31H63.968V67.5415L60.7379 63.0256L57.2479 67.5415L53.8436 63.0256L50.4461 67.5415L47.0368 63.0256L43.6326 67.5415L40.3167 63.0256L37 68.171V31Z" stroke="#2D2D2D" stroke-miterlimit="10"></path><path d="M42.0303 39.1729H49.6265" stroke="#2D2D2D" stroke-miterlimit="10"></path><path d="M42.0303 44.8203H49.6265" stroke="#2D2D2D" stroke-miterlimit="10"></path><path d="M42.0303 50.4678H59.7079" stroke="#2D2D2D" stroke-miterlimit="10"></path><path d="M42.0303 56.1147H59.7079" stroke="#2D2D2D" stroke-miterlimit="10"></path><path d="M52.189 40.1026H58.9705V40.9767H52.189V40.1026ZM52.189 42.2152H58.9705V43.0892H52.189V42.2152ZM56.6763 46.4188C56.0842 46.2231 55.5379 45.9058 55.0714 45.4866C54.5933 45.048 54.2192 44.505 53.9773 43.8983C53.7114 43.2569 53.5787 42.4991 53.5793 41.625V41.6105C53.5793 40.7364 53.712 39.9789 53.9773 39.338C54.2181 38.7307 54.5923 38.1875 55.0714 37.7498C55.5383 37.3315 56.0849 37.0154 56.6772 36.821C57.2988 36.6163 57.9485 36.5141 58.6019 36.5182C58.8628 36.519 59.1235 36.5339 59.3829 36.5627C59.5921 36.5781 59.799 36.6171 59.9998 36.679V37.8593C59.7948 37.8102 59.5863 37.7785 59.3762 37.7643C59.1035 37.7404 58.8451 37.7275 58.6019 37.7275C58.1028 37.7224 57.6062 37.8013 57.1325 37.961C56.6835 38.1102 56.2741 38.3616 55.9354 38.6962C55.5967 39.0307 55.3377 39.4395 55.1783 39.8914C54.9836 40.4501 54.8904 41.0401 54.9031 41.6327V41.6472C54.8898 42.2352 54.9846 42.8205 55.1825 43.3732C55.3493 43.8294 55.6151 44.2416 55.9601 44.5791C56.2954 44.8989 56.6955 45.1401 57.1325 45.2856C57.6084 45.445 58.1067 45.5242 58.6078 45.5199C58.8507 45.5199 59.1088 45.5088 59.3821 45.4866C59.5926 45.475 59.8016 45.4421 60.0057 45.3882V46.5685C59.8049 46.6303 59.598 46.6693 59.3888 46.6848C59.1294 46.7133 58.8687 46.7279 58.6078 46.7284C57.9518 46.7312 57.2996 46.6266 56.6763 46.4188Z" fill="#2D2D2D"></path></svg> 