<?xml version="1.0" encoding="UTF-8"?> <svg xmlns="http://www.w3.org/2000/svg" width="24" height="24" viewBox="0 0 24 24" fill="none"><path fill-rule="evenodd" clip-rule="evenodd" d="M4.95605 18.9988V9.23975H7.98902V18.9982L4.95605 18.9988Z" fill="white" stroke="#2D2D2D" stroke-linejoin="round"></path><path fill-rule="evenodd" clip-rule="evenodd" d="M10.4205 12.3542C10.4205 11.1369 10.3804 10.0992 10.3403 9.24099H12.9747L13.1148 10.5779H13.1746C13.5738 9.95913 14.5714 9.02197 16.1879 9.02197C18.1831 9.02197 19.6799 10.3392 19.6799 13.2117V19H16.6469V13.5918C16.6469 12.3338 16.2082 11.4762 15.1107 11.4762C14.2722 11.4762 13.7737 12.0549 13.5744 12.6133C13.4942 12.8132 13.4547 13.092 13.4547 13.3721V19H10.4218V12.3542H10.4205Z" fill="white" stroke="#2D2D2D" stroke-linejoin="round"></path><circle cx="6.5" cy="6" r="1.5" stroke="#2D2D2D"></circle></svg> 