<?xml version="1.0" encoding="UTF-8"?> <svg xmlns="http://www.w3.org/2000/svg" width="204" height="38" viewBox="0 0 204 38" fill="none"><path d="M0 34.2394C0.458112 34.2154 0.916225 34.1709 1.38298 34.1709C54.811 34.1709 108.24 34.1709 161.669 34.1709C175.038 34.1709 188.402 34.1709 201.761 34.1709C202.506 34.1709 203.253 34.1092 203.998 34.075V37.4999C203.653 37.4999 203.307 37.4742 202.961 37.4742H1.21011C0.807315 37.4742 0.404522 37.4914 0 37.4999V34.2394Z" fill="#2D2D2D"></path><path d="M203.99 27.732L197.777 27.6653C197.403 27.6653 197.03 27.6653 196.566 27.6653L184.18 13.1913V27.5762H175.488V1.66628H182.949L195.346 15.8388V1.66628C195.652 1.64402 195.982 1.6012 196.314 1.59949C198.561 1.59949 200.809 1.59949 203.056 1.59949C203.371 1.59949 203.685 1.5601 204 1.53784L203.99 27.732Z" fill="#2D2D2D"></path><path d="M16.9415 1.70215C17.9563 1.8734 18.9935 1.95731 19.9789 2.23131C21.2426 2.58237 22.5374 2.94713 23.687 3.55507C25.8323 4.68873 26.9076 6.61699 27.2931 9.07784L18.6287 9.59158C18.2277 8.374 17.3599 7.64106 16.1134 7.3996C14.3363 7.0571 12.5626 6.98175 10.8771 7.7969C10.5569 7.9341 10.2856 8.16329 10.0982 8.45482C9.91088 8.74636 9.81607 9.08686 9.82607 9.43232C9.8157 10.2338 10.2202 10.792 10.91 11.0181C12.5719 11.5592 14.251 12.0433 15.9475 12.4703C17.9545 12.972 20.0013 13.318 21.998 13.8677C23.0791 14.1592 24.109 14.6119 25.0527 15.2103C27.5507 16.8337 28.4064 19.9162 27.3571 23.0534C26.4495 25.7438 24.5375 27.4323 21.9185 28.3998C19.0108 29.4753 15.9717 29.6482 12.9084 29.6345C10.566 29.6243 8.25293 29.4085 6.02461 28.6447C2.95266 27.5898 0.866091 25.6153 0.146941 22.3856C0.109757 22.2788 0.0604614 22.1765 0 22.0808V21.3958C0.365506 21.3292 0.734205 21.2812 1.10466 21.2519C2.77115 21.1971 4.43821 21.1537 6.10586 21.1218C6.97022 21.1046 7.82075 21.1218 8.71623 21.1218C9.3645 22.9849 10.8892 23.7059 12.6923 23.92C13.8045 24.0424 14.9269 24.0424 16.0391 23.92C16.7505 23.8364 17.4321 23.5883 18.0289 23.1956C19.6435 22.1219 19.4516 20.1217 17.7039 19.2997C17.3915 19.1559 17.0639 19.0474 16.7271 18.976C13.8056 18.351 10.8754 17.7653 7.96251 17.1077C6.06091 16.6779 4.26649 15.9757 2.90426 14.5133C0.656916 12.1158 0.646543 8.15994 2.81955 5.4662C4.31663 3.60987 6.36516 2.71424 8.62979 2.21248C9.49416 2.01725 10.3689 1.86998 11.2384 1.69873L16.9415 1.70215Z" fill="#2D2D2D"></path><path d="M148.255 17.2206L154.576 27.5829H144.743C143.036 24.4787 141.307 21.3306 139.556 18.1385H134.384V27.576H125.568V1.66439C125.855 1.64213 126.157 1.59932 126.458 1.5976C132.623 1.5976 138.787 1.58219 144.955 1.60788C145.991 1.62142 147.024 1.71763 148.045 1.89557C150.558 2.31342 152.366 3.69197 153.404 6.00554C154.417 8.27116 154.534 10.5899 153.656 12.9171C153.337 13.8128 152.815 14.6243 152.131 15.2895C151.447 15.9547 150.618 16.4559 149.708 16.7548C149.284 16.9072 148.843 17.034 148.255 17.2206ZM134.415 12.2767C134.594 12.3247 134.776 12.3585 134.96 12.3777C137.086 12.3897 139.214 12.4085 141.341 12.388C142.029 12.3913 142.715 12.3235 143.389 12.1859C144.687 11.8965 145.353 11.0385 145.332 9.82782C145.31 8.57941 144.495 7.62385 143.218 7.38752C142.818 7.3191 142.413 7.287 142.008 7.29162C139.765 7.28249 137.523 7.28249 135.283 7.29162C135.006 7.29162 134.73 7.33272 134.407 7.35669L134.415 12.2767Z" fill="#2D2D2D"></path><path d="M103.883 17.457V21.93H119.218V27.5812H95.0437V1.61646H118.871V7.19574H103.935V11.7869H117.51V17.457H103.883Z" fill="#2D2D2D"></path><path d="M33.0584 1.60791H56.9148V7.18205H41.9579V11.8058H55.5803V17.4895H41.8922V21.9608H57.2537V27.5863H33.0515L33.0584 1.60791Z" fill="#2D2D2D"></path><path d="M75.9274 17.7996C78.0457 12.4224 80.1668 7.03894 82.2909 1.64917H91.6485C87.7882 10.3503 83.9729 18.9453 80.1369 27.5951H71.7214L60.2825 1.65944H69.6297L75.9274 17.7996Z" fill="#2D2D2D"></path><path d="M168.646 27.5985H159.892V1.66284H168.646V27.5985Z" fill="#2D2D2D"></path></svg> 