<?xml version="1.0" encoding="UTF-8"?> <svg xmlns="http://www.w3.org/2000/svg" width="51" height="35" viewBox="0 0 51 35" fill="none"><path d="M43.5312 10.9761H40.9118C40.1199 10.9761 39.5108 11.2319 39.1453 12.0634L34.1501 24.0243H37.6833C37.6833 24.0243 38.2924 22.4253 38.4143 22.0415C38.7798 22.0415 42.252 22.0415 42.7393 22.0415C42.8612 22.4892 43.1657 23.9604 43.1657 23.9604H46.3334L43.5312 10.9761ZM39.3889 19.3551C39.6935 18.5876 40.7291 15.7093 40.7291 15.7093C40.7291 15.7732 41.0337 14.9417 41.1555 14.494L41.3992 15.6453C41.3992 15.6453 42.0692 18.7794 42.1911 19.4191H39.3889V19.3551Z" fill="#3362AB"></path><path d="M34.3939 19.7389C34.3939 22.4253 32.0791 24.2162 28.4851 24.2162C26.9621 24.2162 25.5002 23.8964 24.7083 23.5126L25.1956 20.5704L25.622 20.7622C26.7185 21.2739 27.4495 21.4658 28.7896 21.4658C29.7643 21.4658 30.7999 21.0821 30.7999 20.1866C30.7999 19.6109 30.3735 19.2272 29.0333 18.5875C27.7541 17.9479 26.0484 16.9245 26.0484 15.0696C26.0484 12.5112 28.4241 10.7842 31.7745 10.7842C33.0538 10.7842 34.1503 11.04 34.8203 11.3598L34.333 14.1742L34.0893 13.9183C33.4802 13.6625 32.6883 13.4066 31.5309 13.4066C30.2516 13.4706 29.6425 14.0462 29.6425 14.5579C29.6425 15.1336 30.3735 15.5813 31.5309 16.157C33.4802 17.1164 34.3939 18.2038 34.3939 19.7389Z" fill="#3362AB"></path><path d="M4.66675 11.104L4.72766 10.8481H9.96645C10.6974 10.8481 11.2457 11.104 11.4284 11.9355L12.5858 17.6921C11.4284 14.6219 8.74813 12.1274 4.66675 11.104Z" fill="#F9B50B"></path><path d="M19.9567 10.9761L14.657 23.9604H11.0629L8.01709 13.0868C10.2101 14.5579 12.0376 16.8606 12.7076 18.4596L13.0731 19.8028L16.3626 10.9121H19.9567V10.9761Z" fill="#3362AB"></path><path d="M21.3579 10.9121H24.7083L22.5762 23.9604H19.2258L21.3579 10.9121Z" fill="#3362AB"></path></svg> 