<?xml version="1.0" encoding="UTF-8"?> <svg xmlns="http://www.w3.org/2000/svg" width="51" height="35" viewBox="0 0 51 35" fill="none"><path d="M39.2609 27.0089C41.1813 27.0089 42.0852 26.2761 42.8747 24.055L46.3334 14.354H44.3309L42.0115 21.8593H41.9708L39.6515 14.3641H37.5921L40.9289 23.5976L40.7501 24.1592C40.6239 24.9631 39.9022 25.5366 39.0898 25.4773C38.9348 25.4773 38.6341 25.4612 38.5121 25.4451V26.9699C38.7603 27.0038 39.011 27.0199 39.2609 27.019V27.0089ZM32.5874 22.1507C31.537 22.1507 30.8704 21.6425 30.8704 20.8733C30.8704 20.0762 31.5133 19.6119 32.7425 19.5382L34.9314 19.4002V20.1168C34.8831 21.2977 33.8861 22.2168 32.7052 22.1685C32.6654 22.1668 32.6264 22.1634 32.5874 22.16V22.1507ZM32.0588 23.656C33.2507 23.6882 34.3655 23.0673 34.9644 22.0364H35.0051V23.5612H36.8281V17.246C36.8281 15.4145 35.3634 14.2345 33.1084 14.2345C31.0169 14.2345 29.4701 15.4306 29.4133 17.0749H31.188C31.3998 16.2388 32.1944 15.6873 33.0517 15.7805C34.2562 15.7805 34.9314 16.3421 34.9314 17.3756V18.0753L32.4748 18.2218C30.1876 18.3599 28.9508 19.296 28.9508 20.9241C28.9491 22.5751 30.2266 23.6653 32.058 23.6653L32.0588 23.656ZM21.4946 12.531H23.7648C25.4743 12.531 26.451 13.4425 26.451 15.0461C26.451 16.6496 25.4743 17.5687 23.7572 17.5687H21.4946V12.531ZM19.5251 10.8707V23.5586H21.4946V19.2333H24.2214C26.4425 19.3527 28.3392 17.6492 28.4587 15.4281C28.4654 15.3019 28.4663 15.1765 28.4612 15.0503C28.5662 12.8537 26.8712 10.9884 24.6746 10.8825C24.545 10.8766 24.4163 10.8774 24.2867 10.8834L19.5251 10.8707ZM12.988 13.2383C11.8562 13.1731 10.888 13.8813 10.3509 13.8813C9.81387 13.8813 8.98371 13.2714 8.08832 13.2883C6.90237 13.3188 5.82147 13.9753 5.24798 15.0139C4.0273 17.1138 4.93031 20.2227 6.11033 21.9313C6.68806 22.7784 7.38099 23.706 8.29163 23.673C9.15398 23.6408 9.49621 23.1113 10.5381 23.1113C11.5801 23.1113 11.8893 23.673 12.8008 23.656C13.7444 23.6399 14.3391 22.8089 14.9185 21.9618C15.3268 21.3621 15.6445 20.7056 15.8622 20.0135C14.75 19.5272 14.0291 18.4319 14.0231 17.218C14.0401 16.1473 14.6009 15.1596 15.5123 14.5979C14.9312 13.7729 13.9986 13.2663 12.9897 13.2307L12.988 13.2383ZM12.2815 12.1176C11.7859 12.7419 11.0278 13.1003 10.2306 13.0859C10.1798 12.3082 10.4441 11.5433 10.9634 10.9622C11.4801 10.3624 12.2086 9.9863 12.9964 9.9126C13.0524 10.7123 12.7957 11.5018 12.2798 12.1151" fill="black"></path></svg> 