<?xml version="1.0" encoding="UTF-8"?> <svg xmlns="http://www.w3.org/2000/svg" width="114" height="43" viewBox="0 0 114 43" fill="none"><g clip-path="url(#clip0_772_10761)"><path d="M77.7406 0L69.515 14.9384L60.804 0H55.1123L67.5673 20.586H71.0214L82.947 0H77.7406Z" fill="white"></path><path d="M108.405 3.79448H91.8147V16.6592H108.405V3.79448ZM92.1551 0.0125993H108.064C112.104 0.0125993 113.416 0.932852 113.416 4.87231V15.7137C113.416 19.6091 112.104 20.5797 108.064 20.5797H92.1551C88.0643 20.5797 86.8037 19.6091 86.8037 15.7137V4.85971C86.8037 0.920253 88.1148 0 92.1551 0" fill="white"></path><path d="M43.3311 8.125H29.4453V11.6737H43.3311V8.125Z" fill="white"></path><path d="M50.6743 16.7402H29.4453V20.5851H50.6743V16.7402Z" fill="white"></path><path d="M50.4348 0H29.4453V3.64952H50.4348V0Z" fill="white"></path><path d="M18.5217 8.02388H5.14018V3.69363H23.4193V0H6.01631C1.9823 0 0.614516 0.970678 0.614516 4.85971V7.14776C0.614516 11.0431 1.9823 12.0138 6.01631 12.0138H19.3537V16.7348H0.583008V20.5671H0.942291H18.528C22.6188 20.5671 23.8857 19.546 23.8857 15.7011V12.8773C23.8857 8.98827 22.6251 8.01128 18.528 8.01128" fill="white"></path><path d="M110.731 29.8965V36.8299L105.934 29.8965H104.63V40.0697H106.3V33.1363L111.097 40.0697H112.401V29.8965H110.731ZM100.804 40.0823H102.474V29.8965H100.804V40.0823ZM93.4227 31.4785H95.8179C96.2439 31.5153 96.6408 31.7104 96.9299 32.0255C97.219 32.3406 97.3794 32.7527 97.3794 33.1804C97.3794 33.608 97.219 34.0201 96.9299 34.3352C96.6408 34.6503 96.2439 34.8455 95.8179 34.8822H93.4227V31.4785ZM97.5449 40.0823H99.3791L97.0218 36.1303C97.6138 35.895 98.1223 35.4888 98.4827 34.9635C98.843 34.4381 99.0388 33.8174 99.0451 33.1804C99.0467 32.7503 98.9633 32.3242 98.7995 31.9265C98.6356 31.5289 98.3947 31.1676 98.0906 30.8635C97.7865 30.5594 97.4253 30.3185 97.0276 30.1547C96.63 29.9909 96.2038 29.9074 95.7737 29.9091H91.7019V40.0823H93.3786V36.3761H95.3514L97.5449 40.0823ZM85.569 38.4876V35.7395H89.6345V34.1574H85.5501V31.5101H89.9623V29.8965H83.8545V40.0697H90.0316V38.475L85.569 38.4876ZM77.1228 40.0823H79.1272L82.6443 29.8965H80.8227L78.1124 38.0905L75.402 29.8965H73.5741L77.1228 40.0823ZM68.3614 38.4876V35.7395H72.4395V34.1574H68.3425V31.5101H72.7547V29.8965H66.6533V40.0697H72.8303V38.475L68.3614 38.4876ZM61.5729 40.2714C63.6971 40.2714 65.1783 39.1368 65.1783 37.2774C65.1783 35.2604 63.4765 34.7562 61.7935 34.2015C60.3123 33.7351 59.745 33.401 59.745 32.6131C59.745 31.8252 60.3753 31.3525 61.3397 31.3525C61.8008 31.3333 62.256 31.4609 62.64 31.7169C63.024 31.9729 63.3168 32.344 63.4765 32.777L64.8884 31.9576C64.5838 31.276 64.0843 30.6998 63.4528 30.3016C62.8213 29.9034 62.086 29.701 61.3397 29.72C59.6253 29.72 58.0747 30.7852 58.0747 32.6572C58.0747 34.5293 59.6127 35.1785 61.1947 35.6386C62.7768 36.0987 63.508 36.4076 63.508 37.3089C63.508 38.0464 62.9407 38.6452 61.617 38.6452C61.0645 38.6883 60.5138 38.5421 60.0556 38.2304C59.5973 37.9188 59.2588 37.4604 59.0958 36.9308L57.6587 37.7754C58.1944 39.2818 59.5496 40.2966 61.5792 40.2966L61.5729 40.2714ZM51.4942 32.8463L49.6285 38.0905L47.4602 32.8211H45.7458L48.828 39.9815L48.7524 40.1327C48.3931 41.0908 47.8384 41.614 46.8236 41.5509V43.0196C48.4939 43.1204 49.6852 42.1939 50.366 40.347L53.1582 32.8526L51.4942 32.8463ZM41.4533 38.8028C40.992 38.809 40.5393 38.678 40.1527 38.4262C39.7661 38.1745 39.4631 37.8135 39.2822 37.389C39.1013 36.9646 39.0507 36.496 39.1369 36.0428C39.223 35.5896 39.442 35.1722 39.766 34.8438C40.09 34.5153 40.5043 34.2907 40.9563 34.1983C41.4083 34.106 41.8776 34.1502 42.3044 34.3253C42.7313 34.5003 43.0964 34.7984 43.3534 35.1815C43.6104 35.5647 43.7476 36.0156 43.7477 36.4769C43.758 36.7825 43.706 37.0869 43.5947 37.3717C43.4835 37.6565 43.3154 37.9156 43.1007 38.1333C42.886 38.3509 42.6292 38.5226 42.3459 38.6377C42.0627 38.7528 41.759 38.809 41.4533 38.8028ZM41.6991 32.6572C41.2118 32.6409 40.7278 32.743 40.2887 32.9549C39.8495 33.1668 39.4683 33.4821 39.1779 33.8737V29.8965H37.6084V40.0697H39.1779V39.036C39.4623 39.437 39.8411 39.7617 40.2809 39.9816C40.7206 40.2014 41.2077 40.3097 41.6991 40.2966C42.6743 40.2406 43.591 39.8137 44.2615 39.1036C44.9321 38.3934 45.3056 37.4536 45.3056 36.4769C45.3056 35.5002 44.9321 34.5605 44.2615 33.8503C43.591 33.1401 42.6743 32.7133 41.6991 32.6572Z" fill="white"></path></g><defs><clipPath id="clip0_772_10761"><rect width="112.845" height="43" fill="white" transform="translate(0.577148)"></rect></clipPath></defs></svg> 