<?xml version="1.0" encoding="UTF-8"?> <svg xmlns="http://www.w3.org/2000/svg" width="24" height="24" viewBox="0 0 24 24" fill="none"><path d="M8.33681 6.53043C8.27578 6.376 8.18036 6.24483 8.06109 6.15143C7.94182 6.05802 7.80336 6.00601 7.661 6.00115H5.27044C5.20555 5.99566 5.14057 6.00992 5.0815 6.0426C5.02243 6.07529 4.97119 6.12533 4.93253 6.18811C4.90505 6.25724 4.893 6.33375 4.89757 6.41015C4.90214 6.48654 4.92316 6.56021 4.95859 6.62392L6.56967 9.98695V10.0182L4.04882 15.3743C4.01684 15.4405 4 15.5157 4 15.5922C4 15.6687 4.01684 15.7439 4.04882 15.8101C4.07963 15.8747 4.12568 15.927 4.18117 15.9602C4.23667 15.9935 4.29912 16.0063 4.36067 15.9971H6.75151C6.89407 15.9922 7.03216 15.9362 7.14796 15.8363C7.26377 15.7364 7.35199 15.5971 7.40126 15.4365C7.45054 15.2759 10.3961 10.1866 10.5 10L8.33681 6.53043Z" stroke="#2D2D2D" stroke-miterlimit="10" stroke-linecap="round" stroke-linejoin="round"></path><path d="M19.9264 3.56408C19.9742 3.50686 19.9999 3.43814 19.9999 3.36763C19.9999 3.29712 19.9742 3.2284 19.9264 3.17118C19.8878 3.11293 19.83 3.06585 19.7603 3.03585C19.6907 3.00586 19.6123 2.9943 19.535 3.00263H16.5017C16.3228 3.00694 16.1494 3.05736 16.004 3.14738C15.8586 3.2374 15.7478 3.36289 15.6859 3.50769C15.6859 3.50769 9.69587 14.1911 9.5 14.5C10 15.2735 13.2725 20.4923 13.2725 20.4923C13.3471 20.6351 13.4654 20.7576 13.6148 20.8466C13.7643 20.9356 13.939 20.9877 14.1203 20.9974H17.121C17.1982 21.0057 17.2766 20.9941 17.3462 20.9641C17.4159 20.9342 17.4737 20.8871 17.5124 20.8288C17.5447 20.7671 17.5614 20.7001 17.5614 20.6324C17.5614 20.5646 17.5447 20.4977 17.5124 20.4359L13.2728 13.7547V13.7265L19.9264 3.56408Z" stroke="#2D2D2D" stroke-miterlimit="10" stroke-linecap="round" stroke-linejoin="round"></path></svg> 