<?xml version="1.0" encoding="UTF-8"?> <svg xmlns="http://www.w3.org/2000/svg" width="24" height="24" viewBox="0 0 24 24" fill="none"><path d="M12.0027 19L12.0027 19.5L12.0027 19H12.0025H12.0017L11.9985 19L11.9853 19L11.9334 18.9999C11.8877 18.9998 11.8203 18.9996 11.7338 18.9991C11.5609 18.9982 11.3119 18.9965 11.0082 18.993C10.4006 18.9859 9.57488 18.9718 8.70152 18.9436C7.82729 18.9154 6.90967 18.8732 6.11688 18.8103C5.3089 18.7463 4.67622 18.6637 4.34423 18.5668L4.34322 18.5665C4.00861 18.4695 3.69951 18.2792 3.44847 18.0104C3.19813 17.7423 3.01472 17.4057 2.91975 17.0326C2.27952 14.2952 2.44929 9.88806 2.91126 6.9643C3.00742 6.59792 3.18907 6.26743 3.43565 6.00337L3.43565 6.00337C3.68669 5.73453 3.99578 5.54424 4.33039 5.44728L4.3314 5.44698C4.66383 5.34989 5.2969 5.26656 6.10485 5.2012C6.89773 5.13705 7.81541 5.09316 8.68967 5.06324C9.56307 5.03334 10.3888 5.01752 10.9965 5.00918C11.3002 5.00501 11.5492 5.00272 11.7221 5.00146C11.8085 5.00084 11.8759 5.00047 11.9216 5.00026L11.9736 5.00005L11.9867 5.00001L11.99 5L11.9901 5L11.9909 5L11.9941 5L12.0073 5.00001L12.0592 5.00011C12.1049 5.00022 12.1723 5.00044 12.2588 5.00088C12.4317 5.00176 12.6806 5.00352 12.9844 5.00705C13.592 5.01411 14.4177 5.02821 15.2911 5.0564C16.1653 5.08462 17.0829 5.1268 17.8757 5.18967C18.6837 5.25374 19.3164 5.33628 19.6484 5.43324L19.6494 5.43354C19.984 5.53051 20.2931 5.7208 20.5441 5.98964C20.7943 6.2576 20.9777 6.59395 21.0727 6.96679C21.71 9.71982 21.568 14.1267 21.0818 17.0475C20.9858 17.4147 20.804 17.7458 20.5569 18.0104C20.3059 18.2792 19.9968 18.4695 19.6622 18.5665L19.6612 18.5668C19.3292 18.6637 18.6965 18.7463 17.8885 18.8103C17.0957 18.8732 16.1781 18.9154 15.3039 18.9436C14.4305 18.9718 13.6048 18.9859 12.9972 18.993C12.6935 18.9965 12.4445 18.9982 12.2716 18.9991C12.1852 18.9996 12.1178 18.9998 12.072 18.9999L12.0201 19L12.007 19L12.0037 19H12.0029H12.0027ZM9.50174 15.2143V16.1128L10.2653 15.6392L15.4473 12.4249L16.1323 12L15.4473 11.5751L10.2653 8.36081L9.50174 7.88719V8.78571V15.2143Z" fill="white" stroke="#2D2D2D"></path></svg> 