<?xml version="1.0" encoding="UTF-8"?> <svg xmlns="http://www.w3.org/2000/svg" width="94" height="69" viewBox="0 0 94 69" fill="none"><path d="M19.5 25.3038L57.9938 14.5L76.0474 17.9739V42.291L44.134 55.3355M19.5 25.3038L44.134 29.973V55.3355M19.5 25.3038V49.2041L44.134 55.3355M37.4001 46.3902C34.9282 48.9088 30.3083 48.2835 27.1715 45.0007C24.0347 41.7179 23.3357 36.9934 25.8077 34.4748C28.2796 31.9563 32.8995 32.5642 36.1216 35.8644C39.3436 39.1646 39.8721 43.8717 37.4001 46.3902Z" stroke="white" stroke-linecap="round"></path><path d="M44.0964 29.4032L43.6277 29.5773L43.9759 30.5147L44.4446 30.3406L44.0964 29.4032ZM75.4544 18.8248L75.9232 18.6507L75.575 17.7132L75.1063 17.8873L75.4544 18.8248ZM44.4446 30.3406L75.4544 18.8248L75.1063 17.8873L44.0964 29.4032L44.4446 30.3406Z" fill="white"></path></svg> 