<?xml version="1.0" encoding="UTF-8"?> <svg xmlns="http://www.w3.org/2000/svg" width="24" height="24" viewBox="0 0 24 24" fill="none"><path d="M7.00268 16.5H15C15.5523 16.5 16 16.0523 16 15.5V8.44815V6.5C16 5.94772 15.5523 5.5 15 5.5H3C2.44772 5.5 2 5.94772 2 6.5V15.5C2 16.0523 2.44772 16.5 3 16.5H4.01485" stroke="#2D2D2D" stroke-miterlimit="10"></path><path d="M20.2797 16.5H21C21.5523 16.5 22 16.0523 22 15.5V13.0048C22 12.7947 21.9338 12.5898 21.8108 12.4194L19.2803 8.91463C19.0923 8.65425 18.7907 8.5 18.4695 8.5H16" stroke="#2D2D2D" stroke-miterlimit="10"></path><path d="M2 13.5H16" stroke="#2D2D2D" stroke-miterlimit="10"></path><path d="M18 11.5L21 11.5" stroke="#2D2D2D" stroke-miterlimit="10" stroke-linecap="round"></path><path d="M14 16.5L17 16.5" stroke="#2D2D2D" stroke-miterlimit="10"></path><path d="M5.5 18.5C6.32843 18.5 7 17.8284 7 17C7 16.1716 6.32843 15.5 5.5 15.5C4.67157 15.5 4 16.1716 4 17C4 17.8284 4.67157 18.5 5.5 18.5Z" stroke="#2D2D2D" stroke-miterlimit="10"></path><path d="M18.5 18.5C19.3284 18.5 20 17.8284 20 17C20 16.1716 19.3284 15.5 18.5 15.5C17.6716 15.5 17 16.1716 17 17C17 17.8284 17.6716 18.5 18.5 18.5Z" stroke="#2D2D2D" stroke-miterlimit="10"></path></svg> 