<?xml version="1.0" encoding="UTF-8"?> <svg xmlns="http://www.w3.org/2000/svg" width="360" height="43" viewBox="0 0 360 43" fill="none"><g clip-path="url(#clip0_623_5800)"><path d="M124.92 7.45563V18.8342H148.759C151.902 18.8342 153.527 18.2273 153.527 15.3664V10.9017C153.527 8.06249 151.902 7.45563 148.759 7.45563H124.92ZM114.604 0.043335H153.289C160.202 0.043335 163.345 2.21068 163.345 8.36592V17.9022C163.345 23.9057 160.202 26.2465 153.289 26.2465H124.92V43H114.604V0.043335Z" fill="white"></path><path d="M186.404 34.9808H216.247V0.043335H226.823V32.8352C226.823 40.876 224.071 43 215.554 43H187.119C178.581 43 175.937 40.8327 175.937 32.8352V0.043335H186.404V34.9808Z" fill="white"></path><path d="M249.817 7.45563V19.3327H273.657C276.821 19.3327 278.447 18.7258 278.447 15.8866V10.9017C278.447 8.06249 276.821 7.45563 273.657 7.45563H249.817ZM239.458 0.043335H278.165C285.057 0.043335 288.221 2.38407 288.221 8.36592V18.6391C288.221 24.5126 285.057 26.8533 278.165 26.8533H272.27L292.685 43.1084H277.645L259.678 26.8533H249.817V43.1084H239.458V0.043335Z" fill="white"></path><path d="M349.554 7.95412H314.878V34.7641H349.554V7.95412ZM315.615 0.043335H348.839C357.269 0.043335 360 1.97227 360 10.1865V32.8352C360 40.9627 357.269 43 348.839 43H315.615C307.098 43 304.454 40.9627 304.454 32.8352V10.1865C304.454 1.97227 307.184 0.043335 315.615 0.043335Z" fill="white"></path><path d="M87.4696 16.6235H59.0571V23.8841H87.4696V16.6235Z" fill="white"></path><path d="M102.034 0H59.0791V7.47732H102.034V0Z" fill="white"></path><path d="M102.532 34.2439H59.0791V42.1113H102.532V34.2439Z" fill="white"></path><path d="M36.7347 16.4718H9.34079V7.56401H46.7257V0H11.1396C2.88246 0 0.0867081 1.99394 0.0867081 9.94808V14.6295C0.0867081 22.6053 2.88246 24.5993 11.1396 24.5993H38.4252V34.2439H0V42.0897H36.7347C45.1003 42.0897 47.6792 39.9224 47.6792 32.1416V26.3548C47.6792 18.4007 45.1003 16.4068 36.7347 16.4068" fill="white"></path></g><defs><clipPath id="clip0_623_5800"><rect width="360" height="43" fill="white"></rect></clipPath></defs></svg> 