<svg width="86" height="69" viewBox="0 0 86 69" fill="none" xmlns="http://www.w3.org/2000/svg">
<path d="M62.2449 30.6677C59.1459 26.6516 54.8677 23.7062 50.0102 22.2443C45.1527 20.7823 39.9595 20.8772 35.1586 22.5156C30.3578 24.1541 26.1901 27.2539 23.2398 31.3804C20.2896 35.507 18.7047 40.4534 18.7075 45.5261C18.7075 36.995 27.5942 30.1842 38.6136 30.1842C44.0799 30.0777 49.3994 31.957 53.5858 35.4736M42.9787 44.019L67.2925 32.1322L42.9787 44.019ZM57.6949 41.6871C58.1109 42.9242 58.3222 44.221 58.3206 45.5261H67.2925C67.3049 42.692 66.8238 39.8773 65.8706 37.2082L57.6949 41.6871Z" stroke="white"/>
<path d="M42.0268 47.7868C44.1156 47.7868 45.8089 46.0934 45.8089 44.0046C45.8089 41.9158 44.1156 40.2225 42.0268 40.2225C39.938 40.2225 38.2446 41.9158 38.2446 44.0046C38.2446 46.0934 39.938 47.7868 42.0268 47.7868Z" stroke="white"/>
</svg>
