<svg width="100" height="100" viewBox="0 0 100 100" fill="none" xmlns="http://www.w3.org/2000/svg">
<path d="M52.6978 66.884H60.6284C63.2748 66.884 64.5099 65.5609 64.5099 64.1936V60.042" stroke="#2D2D2D" stroke-miterlimit="10"/>
<path d="M39.8976 44.0459H38.6511C37.6319 44.0459 36.8057 44.8912 36.8057 45.934V59.2958C36.8057 60.3385 37.6319 61.1839 38.6511 61.1839H39.8976C40.9169 61.1839 41.7431 60.3385 41.7431 59.2958V45.934C41.7431 44.8912 40.9169 44.0459 39.8976 44.0459Z" stroke="#2D2D2D" stroke-miterlimit="10"/>
<path d="M52.6978 68.3173V65.45C52.6978 64.8468 52.2199 64.3579 51.6303 64.3579H46.9575C46.368 64.3579 45.8901 64.8468 45.8901 65.45V68.3173C45.8901 68.9204 46.368 69.4093 46.9575 69.4093H51.6303C52.2199 69.4093 52.6978 68.9204 52.6978 68.3173Z" stroke="#2D2D2D" stroke-miterlimit="10"/>
<path d="M61.2521 44.0459H60.0056C58.9864 44.0459 58.1602 44.8912 58.1602 45.934V59.2958C58.1602 60.3385 58.9864 61.1839 60.0056 61.1839H61.2521C62.2714 61.1839 63.0976 60.3385 63.0976 59.2958V45.934C63.0976 44.8912 62.2714 44.0459 61.2521 44.0459Z" stroke="#2D2D2D" stroke-miterlimit="10"/>
<path d="M33.0024 51.9466V48.3049C33.0024 38.7481 40.5749 31 49.9161 31C59.2573 31 66.8306 38.7481 66.8306 48.3049L66.97 52.1551" stroke="#2D2D2D" stroke-miterlimit="10"/>
<path d="M36.8886 45.3733C36.8886 45.3733 33 44.534 33 52.9455C33 61.357 36.8445 60.1476 36.8445 60.1476L36.9768 60.0916" stroke="#2D2D2D" stroke-miterlimit="10"/>
<path d="M63.0791 45.3733C63.0791 45.3733 66.9677 44.534 66.9677 52.9455C66.9677 61.357 63.1232 60.1476 63.1232 60.1476L62.9468 60.0384" stroke="#2D2D2D" stroke-miterlimit="10"/>
</svg>
