<svg width="37" height="25" viewBox="0 0 37 25" fill="none" xmlns="http://www.w3.org/2000/svg">
<rect x="0.541504" width="36.4583" height="25" rx="4" fill="#FEB4C7"/>
<path fill-rule="evenodd" clip-rule="evenodd" d="M6.19151 16.0204H4.70801V9.375H6.19151V16.0204ZM9.89523 9.375H8.4439C8.4439 10.5979 7.89698 11.7204 6.94344 12.4547L6.36845 12.8974L8.59636 16.0207H10.4281L8.37816 13.1468C9.34988 12.152 9.89523 10.8137 9.89523 9.375ZM12.2614 16.0186H10.8604V9.37628H12.2614V16.0186ZM16.4943 11.4238V11.7178C16.1163 11.4526 15.66 11.2968 15.1679 11.2968C13.8654 11.2968 12.8096 12.3823 12.8096 13.7213C12.8096 15.0603 13.8654 16.1458 15.1679 16.1458C15.66 16.1458 16.1163 15.99 16.4943 15.725V16.0186H17.8324V11.4238H16.4943ZM16.4902 13.7215C16.4902 14.3744 15.9474 14.9037 15.2777 14.9037C14.6081 14.9037 14.0652 14.3744 14.0652 13.7215C14.0652 13.0686 14.6081 12.5394 15.2777 12.5394C15.9474 12.5394 16.4902 13.0686 16.4902 13.7215ZM30.6112 11.7178V11.4238H31.9493V16.0186H30.6112V15.725C30.2332 15.99 29.7769 16.1458 29.2847 16.1458C27.9823 16.1458 26.9265 15.0603 26.9265 13.7213C26.9265 12.3823 27.9823 11.2968 29.2847 11.2968C29.7769 11.2968 30.2332 11.4526 30.6112 11.7178ZM29.3946 14.9037C30.0643 14.9037 30.6071 14.3744 30.6071 13.7215C30.6071 13.0686 30.0643 12.5394 29.3946 12.5394C28.725 12.5394 28.1821 13.0686 28.1821 13.7215C28.1821 14.3744 28.725 14.9037 29.3946 14.9037ZM24.5486 11.3004C24.0141 11.3004 23.5082 11.471 23.17 11.9417V11.4242H21.8377V16.0187H23.1864V13.6042C23.1864 12.9054 23.6421 12.5633 24.1909 12.5633C24.7789 12.5633 25.117 12.9245 25.117 13.5946V16.0187H26.4536V13.0968C26.4536 12.0275 25.6266 11.3004 24.5486 11.3004ZM19.9024 11.4238V12.0223C20.1707 11.6633 20.6705 11.4241 21.2139 11.4241V12.7611L21.2064 12.7608C21.2036 12.7607 21.2008 12.7605 21.198 12.7605C20.6685 12.7605 19.9055 13.1496 19.9055 13.8733V16.0186H18.5324V11.4238H19.9024ZM32.5301 15.2521C32.5301 14.7753 32.906 14.3888 33.3698 14.3888C33.8335 14.3888 34.2095 14.7753 34.2095 15.2521C34.2095 15.7288 33.8335 16.1154 33.3698 16.1154C32.906 16.1154 32.5301 15.7288 32.5301 15.2521Z" fill="#17120F"/>
</svg>
