<svg width="51" height="35" viewBox="0 0 51 35" fill="none" xmlns="http://www.w3.org/2000/svg">
<path d="M30.7836 7.13933L19.999 7.18298L20.2999 27.8608L31.0845 27.8171L30.7836 7.13933Z" fill="#FF5F00"/>
<path d="M20.7156 17.5588C20.6542 13.3536 22.4564 9.61619 25.2751 7.19122C23.152 5.44445 20.4889 4.39468 17.6006 4.40634C10.7581 4.43395 5.30815 10.3437 5.41443 17.6206C5.52072 24.8975 11.1426 30.7625 17.9851 30.7349C20.8735 30.7232 23.5056 29.6521 25.5774 27.8884C22.6888 25.523 20.777 21.7641 20.7156 17.5588Z" fill="#EB001B"/>
<path d="M45.6689 17.3795C45.7752 24.6564 40.3253 30.5661 33.4828 30.5938C30.5945 30.6054 27.9313 29.5557 25.8083 27.8089C28.6613 25.3838 30.4292 21.6465 30.3678 17.4413C30.3064 13.236 28.3951 9.51365 25.506 7.11172C27.5778 5.34801 30.2099 4.27687 33.0982 4.26521C39.9408 4.23759 45.5632 10.1392 45.6689 17.3795Z" fill="#F79E1B"/>
</svg>
