<svg width="24" height="24" viewBox="0 0 24 24" fill="none" xmlns="http://www.w3.org/2000/svg">
<path d="M6.01611 3.75195H17.9841V19.9685L16.5506 17.9644L15.0018 19.9685L13.4911 17.9644L11.9833 19.9685L10.4703 17.9644L8.95955 19.9685L7.48802 17.9644L6.01611 20.2479V3.75195Z" stroke="#2D2D2D" stroke-miterlimit="10" stroke-linejoin="round"/>
<path d="M8.24854 12.3916H16.0936" stroke="#2D2D2D" stroke-miterlimit="10" stroke-linecap="round" stroke-linejoin="round"/>
<path d="M8.24854 14.8975H16.0936" stroke="#2D2D2D" stroke-miterlimit="10" stroke-linecap="round" stroke-linejoin="round"/>
<path d="M10 7.75535H13.4703V8.18338H10V7.75535ZM10 8.78984H13.4703V9.21788H10V8.78984ZM12.2963 10.8484C11.9933 10.7525 11.7137 10.5971 11.475 10.3918C11.2303 10.1771 11.0389 9.91117 10.9152 9.61409C10.7791 9.29997 10.7112 8.92889 10.7115 8.50085V8.49373C10.7115 8.0657 10.7794 7.69476 10.9152 7.38092C11.0383 7.08353 11.2298 6.81749 11.475 6.60316C11.714 6.39835 11.9937 6.24353 12.2967 6.14832C12.6148 6.04812 12.9473 5.99807 13.2817 6.00006C13.4152 6.00046 13.5486 6.00774 13.6813 6.02184C13.7884 6.02942 13.8943 6.04852 13.997 6.0788V6.65677C13.8921 6.63277 13.7854 6.61721 13.6779 6.61028C13.5383 6.59855 13.4061 6.59227 13.2817 6.59227C13.0262 6.58976 12.7722 6.62839 12.5297 6.70661C12.3 6.77964 12.0904 6.90277 11.9171 7.06661C11.7438 7.23044 11.6113 7.43063 11.5297 7.6519C11.4301 7.92551 11.3824 8.21444 11.3889 8.50462V8.51174C11.3821 8.79966 11.4306 9.0863 11.5319 9.35693C11.6172 9.58034 11.7532 9.78218 11.9298 9.94747C12.1013 10.1041 12.3061 10.2222 12.5297 10.2934C12.7732 10.3715 13.0283 10.4103 13.2847 10.4082C13.409 10.4082 13.5411 10.4027 13.6809 10.3918C13.7886 10.3862 13.8955 10.3701 14 10.3437V10.9217C13.8973 10.9519 13.7914 10.971 13.6843 10.9786C13.5516 10.9926 13.4182 10.9997 13.2847 11C12.949 11.0013 12.6153 10.9501 12.2963 10.8484Z" fill="#2D2D2D" stroke="#2D2D2D" stroke-width="0.25" stroke-linejoin="round"/>
</svg>
