<svg width="51" height="35" viewBox="0 0 51 35" fill="none" xmlns="http://www.w3.org/2000/svg">
<g clip-path="url(#clip0_17014_8616)">
<path d="M11.7609 12.6933C11.2387 12.3237 10.5572 12.1384 9.71645 12.1384H6.46155C6.20381 12.1384 6.06141 12.2711 6.03437 12.5362L4.71216 21.0802C4.69842 21.1641 4.71881 21.2409 4.77316 21.3106C4.82719 21.3805 4.89516 21.4153 4.97655 21.4153H6.52261C6.79378 21.4153 6.94282 21.2829 6.97018 21.0175L7.3363 18.714C7.34967 18.6024 7.39736 18.5116 7.47876 18.4417C7.56009 18.372 7.66182 18.3263 7.78388 18.3055C7.90594 18.2847 8.02103 18.2742 8.12973 18.2742C8.23811 18.2742 8.36688 18.2813 8.5163 18.2952C8.66535 18.3091 8.76036 18.316 8.80109 18.316C9.96735 18.316 10.8828 17.9777 11.5474 17.3003C12.2118 16.6234 12.5443 15.6846 12.5443 14.4837C12.5443 13.66 12.283 13.0632 11.7609 12.6931V12.6933ZM10.0828 15.2587C10.0147 15.7475 9.83863 16.0684 9.55385 16.222C9.269 16.3758 8.86215 16.4524 8.3333 16.4524L7.66194 16.4733L8.00785 14.2325C8.03484 14.0791 8.12295 14.0022 8.27224 14.0022H8.65888C9.2011 14.0022 9.59464 14.0827 9.83876 14.243C10.0828 14.4036 10.1641 14.7423 10.0828 15.2587Z" fill="#003087"/>
<path d="M46.11 12.1384H44.6048C44.4552 12.1384 44.3671 12.2152 44.3403 12.3689L43.018 21.0806L42.9976 21.1224C42.9976 21.1926 43.0247 21.2586 43.0791 21.3214C43.133 21.3842 43.2011 21.4156 43.2824 21.4156H44.6253C44.8825 21.4156 45.025 21.2832 45.0525 21.0178L46.3747 12.4527V12.4319C46.3746 12.2364 46.2862 12.1387 46.11 12.1387V12.1384Z" fill="#009CDE"/>
<path d="M27.9236 15.5103C27.9236 15.4407 27.8964 15.3742 27.8425 15.3116C27.7881 15.2488 27.727 15.2172 27.6594 15.2172H26.093C25.9435 15.2172 25.8214 15.2873 25.7267 15.4265L23.5704 18.6935L22.6753 15.5523C22.6071 15.3291 22.4581 15.2172 22.2278 15.2172H20.7018C20.6338 15.2172 20.5728 15.2487 20.5189 15.3116C20.4645 15.3742 20.4375 15.4408 20.4375 15.5103C20.4375 15.5384 20.5698 15.9501 20.8342 16.7459C21.0985 17.5419 21.3833 18.4005 21.6885 19.322C21.9937 20.2433 22.1529 20.7322 22.1666 20.7876C21.0544 22.3514 20.4986 23.1891 20.4986 23.3006C20.4986 23.4822 20.5865 23.5729 20.763 23.5729H22.3294C22.4785 23.5729 22.6005 23.5032 22.6957 23.3636L27.8832 15.6568C27.9102 15.6292 27.9236 15.5805 27.9236 15.5103V15.5103Z" fill="#003087"/>
<path d="M42.5098 15.2171H40.9637C40.7736 15.2171 40.6587 15.4476 40.618 15.9084C40.2649 15.3501 39.6212 15.0706 38.6852 15.0706C37.7088 15.0706 36.878 15.4476 36.1933 16.2015C35.5083 16.9554 35.166 17.8422 35.166 18.8612C35.166 19.6851 35.3999 20.3412 35.8677 20.8296C36.3356 21.3186 36.9628 21.5626 37.7496 21.5626C38.1429 21.5626 38.5429 21.4787 38.9498 21.3113C39.3566 21.1438 39.675 20.9205 39.906 20.6412C39.906 20.6552 39.8922 20.7178 39.8654 20.8294C39.838 20.9413 39.8246 21.0254 39.8246 21.0807C39.8246 21.3044 39.9125 21.4158 40.0891 21.4158H41.4929C41.7502 21.4158 41.8996 21.2834 41.9401 21.0179L42.7743 15.5522C42.7877 15.4683 42.7674 15.3917 42.7133 15.3218C42.6587 15.2522 42.5911 15.2171 42.5098 15.2171ZM39.8551 19.3428C39.5092 19.6919 39.0921 19.8663 38.6039 19.8663C38.2105 19.8663 37.892 19.7548 37.6478 19.5313C37.4036 19.3084 37.2815 19.0012 37.2815 18.6098C37.2815 18.0937 37.4511 17.657 37.7903 17.301C38.1288 16.945 38.5497 16.7671 39.0514 16.7671C39.4309 16.7671 39.7462 16.8822 39.9974 17.1125C40.248 17.3429 40.3739 17.6605 40.3739 18.0655C40.3738 18.568 40.2008 18.994 39.8551 19.3428Z" fill="#009CDE"/>
<path d="M19.3996 15.2171H17.8535C17.6634 15.2171 17.5483 15.4476 17.5076 15.9084C17.1414 15.3501 16.4972 15.0706 15.575 15.0706C14.5985 15.0706 13.7677 15.4476 13.0829 16.2015C12.398 16.9554 12.0557 17.8422 12.0557 18.8612C12.0557 19.6851 12.2896 20.3412 12.7576 20.8296C13.2255 21.3186 13.8525 21.5626 14.6393 21.5626C15.0188 21.5626 15.4123 21.4787 15.8191 21.3113C16.226 21.1438 16.5515 20.9205 16.7956 20.6412C16.7412 20.8086 16.7142 20.9552 16.7142 21.0807C16.7142 21.3044 16.8023 21.4158 16.9787 21.4158H18.3823C18.6398 21.4158 18.7892 21.2834 18.8299 21.0179L19.6639 15.5522C19.6773 15.4683 19.657 15.3917 19.6029 15.3218C19.5486 15.2522 19.4809 15.2171 19.3996 15.2171ZM16.7449 19.3532C16.3989 19.6956 15.9749 19.8663 15.4735 19.8663C15.0799 19.8663 14.7646 19.7548 14.5274 19.5313C14.29 19.3084 14.1714 19.0012 14.1714 18.6098C14.1714 18.0937 14.3408 17.657 14.68 17.301C15.0189 16.945 15.4393 16.767 15.9413 16.767C16.3209 16.767 16.6362 16.8822 16.8873 17.1125C17.138 17.3429 17.2636 17.6605 17.2636 18.0655C17.2636 18.5821 17.0907 19.0115 16.7449 19.3532Z" fill="#003087"/>
<path d="M34.8709 12.6933C34.3487 12.3237 33.6674 12.1384 32.8265 12.1384H29.5919C29.3206 12.1384 29.1713 12.2711 29.1443 12.5362L27.822 21.0802C27.8083 21.1641 27.8287 21.2409 27.8831 21.3106C27.9369 21.3805 28.005 21.4153 28.0864 21.4153H29.7545C29.9172 21.4153 30.0256 21.3246 30.08 21.1431L30.4462 18.714C30.4597 18.6024 30.5072 18.5116 30.5887 18.4417C30.6701 18.372 30.7717 18.3263 30.8939 18.3055C31.0158 18.2847 31.1309 18.2742 31.2396 18.2742C31.3481 18.2742 31.4768 18.2813 31.6261 18.2952C31.7752 18.3091 31.8705 18.316 31.9109 18.316C33.0774 18.316 33.9926 17.9777 34.6573 17.3003C35.3218 16.6234 35.6541 15.6846 35.6541 14.4837C35.6541 13.66 35.3929 13.0632 34.8709 12.6931V12.6933ZM32.7858 16.1382C32.4874 16.3475 32.0398 16.4522 31.4432 16.4522L30.7921 16.4732L31.138 14.2324C31.1648 14.079 31.253 14.0021 31.4024 14.0021H31.7684C32.0668 14.0021 32.3041 14.0161 32.4807 14.0439C32.6567 14.072 32.8265 14.1591 32.9892 14.3056C33.1521 14.4522 33.2333 14.6653 33.2333 14.9443C33.2333 15.5309 33.084 15.9286 32.7858 16.1382Z" fill="#009CDE"/>
</g>
<defs>
<clipPath id="clip0_17014_8616">
<rect x="0.541504" y="0.34314" width="50" height="34.3137" rx="4" fill="white"/>
</clipPath>
</defs>
</svg>
