<svg width="51" height="35" viewBox="0 0 51 35" fill="none" xmlns="http://www.w3.org/2000/svg">
<path d="M24.3724 18.6203V23.4368H22.8337V11.5423H26.9144C27.4015 11.5322 27.8858 11.618 28.3393 11.7947C28.7929 11.9715 29.2067 12.2356 29.5568 12.572C29.9106 12.888 30.1921 13.2755 30.3824 13.7084C30.5728 14.1414 30.6677 14.6099 30.6606 15.0823C30.6708 15.5572 30.5774 16.0287 30.3868 16.4644C30.1963 16.9002 29.9132 17.2898 29.5568 17.6067C28.8433 18.2825 27.9625 18.62 26.9144 18.6194H24.3724V18.6203ZM24.3724 13.0067V17.1588H26.9527C27.2355 17.1671 27.517 17.1167 27.7792 17.0108C28.0413 16.9049 28.2783 16.7459 28.475 16.5438C28.6707 16.3549 28.8262 16.1289 28.9324 15.8793C29.0387 15.6296 29.0934 15.3613 29.0934 15.0903C29.0934 14.8193 29.0387 14.551 28.9324 14.3014C28.8262 14.0517 28.6707 13.8258 28.475 13.6369C28.2808 13.4305 28.0446 13.2676 27.7822 13.1588C27.5197 13.05 27.2369 12.9978 26.9527 13.0057H24.3724V13.0067Z" fill="#5F6368"/>
<path d="M34.2061 15.0327C35.3433 15.0327 36.241 15.3345 36.8992 15.9381C37.5573 16.5417 37.886 17.3693 37.8854 18.4208V23.4366H36.4137V22.3072H36.3468C35.7097 23.2373 34.8623 23.7023 33.8047 23.7023C32.9019 23.7023 32.1466 23.4366 31.5388 22.9051C31.2471 22.6612 31.0139 22.3557 30.8562 22.0109C30.6985 21.6661 30.6202 21.2907 30.6271 20.9121C30.6271 20.07 30.9476 19.4002 31.5885 18.9029C32.2295 18.4056 33.0851 18.1564 34.1554 18.1551C35.0691 18.1551 35.8215 18.3212 36.4127 18.6533V18.3041C36.4145 18.046 36.3583 17.7907 36.2484 17.5568C36.1385 17.3229 35.9775 17.1162 35.7772 16.9517C35.3703 16.5871 34.8401 16.3882 34.2921 16.3946C33.4326 16.3946 32.7525 16.7546 32.2518 17.4746L30.8966 16.6271C31.642 15.5642 32.7452 15.0327 34.2061 15.0327ZM32.2154 20.9453C32.2144 21.1398 32.2602 21.3317 32.349 21.505C32.4377 21.6783 32.5669 21.8281 32.7258 21.9418C33.0661 22.2076 33.4884 22.3484 33.9213 22.3404C34.5706 22.3393 35.1929 22.0827 35.652 21.6267C36.1617 21.1503 36.4165 20.5913 36.4165 19.9497C35.9368 19.5701 35.2678 19.3803 34.4097 19.3803C33.7846 19.3803 33.2635 19.5299 32.8462 19.8292C32.4247 20.1329 32.2154 20.5021 32.2154 20.9453Z" fill="#5F6368"/>
<path d="M46.3334 15.2988L41.1958 27.0243H39.6075L41.514 22.9216L38.1357 15.2988H39.8082L42.2499 21.145H42.2833L44.6582 15.2988H46.3334Z" fill="#5F6368"/>
<path d="M18.1548 17.5818C18.1554 17.1161 18.1158 16.6513 18.0363 16.1924H11.5474V18.8241H15.2639C15.1879 19.2444 15.0269 19.6451 14.7907 20.002C14.5546 20.3589 14.248 20.6645 13.8897 20.9006V22.6089H16.1078C17.4065 21.4198 18.1548 19.6612 18.1548 17.5818Z" fill="#4285F4"/>
<path d="M11.5472 24.2597C13.4041 24.2597 14.9675 23.6542 16.1076 22.6103L13.8895 20.902C13.2722 21.3177 12.4771 21.555 11.5472 21.555C9.75247 21.555 8.22914 20.3535 7.68441 18.7344H5.39941V20.4949C5.97211 21.6266 6.85028 22.578 7.93588 23.2428C9.02148 23.9076 10.2718 24.2597 11.5472 24.2597Z" fill="#34A853"/>
<path d="M7.68442 18.734C7.39644 17.8856 7.39644 16.9668 7.68442 16.1184V14.3579H5.39943C4.91766 15.31 4.66675 16.3607 4.66675 17.4262C4.66675 18.4917 4.91766 19.5424 5.39943 20.4945L7.68442 18.734Z" fill="#FBBC04"/>
<path d="M11.5472 13.298C12.5285 13.2821 13.4766 13.6503 14.1867 14.323L16.1506 12.3727C14.9053 11.2111 13.2556 10.5734 11.5472 10.5932C10.2718 10.5933 9.02148 10.9454 7.93588 11.6102C6.85028 12.275 5.97211 13.2264 5.39941 14.3581L7.68441 16.1186C8.22914 14.4995 9.75246 13.298 11.5472 13.298Z" fill="#EA4335"/>
</svg>
