<svg width="134" height="43" viewBox="0 0 134 43" fill="none" xmlns="http://www.w3.org/2000/svg">
<g clip-path="url(#clip0_772_10779)">
<path d="M131.272 29.8963V36.8298L126.476 29.8963H125.171V40.0696H126.841V33.1361L131.638 40.0696H132.943V29.8963H131.272ZM121.32 40.0696H122.99V29.8963H121.32V40.0696ZM113.958 31.4784H116.353C116.779 31.5151 117.176 31.7103 117.465 32.0254C117.754 32.3405 117.914 32.7526 117.914 33.1802C117.914 33.6079 117.754 34.02 117.465 34.3351C117.176 34.6502 116.779 34.8454 116.353 34.8821H113.958V31.4784ZM118.086 40.0822H119.914L117.607 36.1301C118.198 35.8946 118.706 35.4881 119.065 34.9627C119.425 34.4373 119.619 33.8167 119.624 33.1802C119.626 32.7502 119.542 32.324 119.378 31.9264C119.215 31.5287 118.974 31.1674 118.67 30.8633C118.366 30.5592 118.004 30.3183 117.607 30.1545C117.209 29.9907 116.783 29.9072 116.353 29.9089H112.287V40.0822H113.958V36.3759H115.93L118.086 40.0822ZM106.11 38.4875V35.7393H110.176V34.1572H106.104V31.5099H110.516V29.8963H104.415V40.0696H110.592V38.4749L106.11 38.4875ZM97.6703 40.0822H99.6746L103.204 29.9089H101.351L98.6535 38.0904L95.9495 29.8963H94.1153L97.6703 40.0822ZM88.9026 38.4875V35.7393H92.9744V34.1572H88.9026V31.5099H93.3148V29.8963H87.207V40.0696H93.3841V38.4749L88.9026 38.4875ZM82.1204 40.2713C84.2383 40.2713 85.7258 39.1367 85.7258 37.2773C85.7258 35.2603 84.024 34.756 82.3347 34.2013C80.8535 33.7349 80.2862 33.4008 80.2862 32.613C80.2862 31.8251 80.9165 31.3523 81.8872 31.3523C82.3481 31.3341 82.8029 31.4621 83.1867 31.718C83.5704 31.9738 83.8635 32.3444 84.024 32.7768L85.4296 31.9574C85.1254 31.2768 84.6268 30.7013 83.9966 30.3032C83.3663 29.9051 82.6325 29.7021 81.8872 29.7198C80.1727 29.7198 78.6159 30.785 78.6159 32.6571C78.6159 34.5291 80.1601 35.1783 81.7674 35.6385C83.3747 36.0986 84.0744 36.4074 84.0744 37.3088C84.0744 38.0463 83.5071 38.6451 82.1834 38.6451C81.6309 38.6882 81.0802 38.5419 80.622 38.2303C80.1637 37.9187 79.8252 37.4603 79.6622 36.9306L78.2188 37.7752C78.7608 39.2817 80.1097 40.2965 82.1456 40.2965L82.1204 40.2713ZM72.0606 32.8462L70.1697 38.1156L68.0077 32.8462H66.2869L69.3692 39.9813L69.2998 40.1326C68.9343 41.0907 68.3796 41.6138 67.3648 41.5508V43.0194C69.0351 43.1203 70.2264 42.1937 70.9134 40.3469L73.6994 32.8525L72.0606 32.8462ZM62.0197 38.8026C61.5584 38.8089 61.1057 38.6778 60.7191 38.4261C60.3325 38.1743 60.0295 37.8133 59.8486 37.3889C59.6677 36.9645 59.6171 36.4959 59.7033 36.0426C59.7894 35.5894 60.0084 35.1721 60.3324 34.8436C60.6564 34.5152 61.0707 34.2905 61.5227 34.1982C61.9747 34.1059 62.444 34.15 62.8708 34.3251C63.2977 34.5002 63.6628 34.7983 63.9198 35.1814C64.1768 35.5645 64.314 36.0154 64.3141 36.4768C64.3244 36.7823 64.2724 37.0868 64.1611 37.3716C64.0499 37.6563 63.8818 37.9155 63.6671 38.1331C63.4524 38.3508 63.1956 38.5224 62.9124 38.6375C62.6291 38.7526 62.3254 38.8088 62.0197 38.8026ZM62.2655 32.6571C61.778 32.6391 61.2934 32.7405 60.854 32.9525C60.4146 33.1645 60.0336 33.4807 59.7443 33.8736V29.8963H58.1748V40.0696H59.7443V39.0359C60.0275 39.438 60.4061 39.7637 60.8461 39.9837C61.2861 40.2037 61.7738 40.3112 62.2655 40.2965C63.2406 40.2404 64.1574 39.8136 64.8279 39.1034C65.4985 38.3932 65.872 37.4535 65.872 36.4768C65.872 35.5001 65.4985 34.5603 64.8279 33.8502C64.1574 33.14 63.2406 32.7131 62.2655 32.6571Z" fill="white"/>
<path d="M35.5658 0.158203H30.2207V20.2526H35.5658V0.158203Z" fill="white"/>
<path d="M42.417 0.207031H47.7621V16.5195H65.0074V20.3014H42.417V0.207031Z" fill="white"/>
<path d="M71.6074 0.251953H76.9966V8.62882L89.7352 0.251953H97.4881L82.2534 9.71296L99.3601 20.3464H90.7627L76.9966 11.5094V20.3464H71.6074V0.251953Z" fill="white"/>
<path d="M117.576 5.72352L122.019 12.3859H113.378L117.576 5.72352ZM115.849 0.107422L102.284 20.58H108.209L111.153 15.9094H124.389L127.503 20.58H133.983L119.807 0.107422H115.849Z" fill="white"/>
<path d="M23.0227 0H0.0351562V4.67693H23.0227V0Z" fill="white"/>
<path d="M0.230732 9.29102V9.4675H0.0605469V20.1198H5.40561V13.9679H15.4087V9.29102H0.230732Z" fill="white"/>
</g>
<defs>
<clipPath id="clip0_772_10779">
<rect width="133.929" height="43" fill="white" transform="translate(0.0351562)"/>
</clipPath>
</defs>
</svg>
